M48
;Layer_Color=9474304
;FILE_FORMAT=4:3
METRIC,LZ
;TYPE=PLATED
T1F00S00C0.300
T2F00S00C0.800
T3F00S00C0.990
T4F00S00C1.000
T5F00S00C1.050
T6F00S00C1.500
;TYPE=NON_PLATED
T7F00S00C3.400
%
T01
X011Y0035
X012
Y0045
X01225Y005
X0117921Y0052091
X0115Y0055
X011
X0109296Y0056413
X0110388Y005749
X0115951Y0059461
X0120269Y0060122
X0120726Y0058496
X0119615Y005776
X01225Y006
X0118415Y0066243
X0117221Y0065303
X0104597Y0062179
X00975Y006
X01Y0055
X0095
X009
X0085
X008
X00783Y005301
X0076122Y0052908
X0075Y0055
X0075117Y0059919
X0076529Y0060223
X0075808Y0062085
X0076403Y0064872
X0077876Y0063424
X0078882Y0064132
X0078696Y0065674
X0079055Y0066557
X0079121Y0067488
X0080192Y0067412
X0083033Y0065721
X0082423Y0065075
X0084633
X0084277Y0066192
X0085349Y0066776
X0088358Y0066032
X0088358Y0065075
X0090043Y0066807
X00875Y006
X00825Y005
X00775
X0075Y0045
X0073609Y0044099
X0075Y0035
X0085
X009
X01
X0100584Y0046711
X0102057Y0046761
X00975Y005
X0091465Y0047066
X0092989Y004503
X0092812Y0043282
X0073127Y0058725
X0072659Y0062568
X0071215Y0061551
X0069139Y0061824
X0069367Y006096
X0068478Y0060122
X0069725Y0063375
X0073141Y0066403
X0070003Y0055745
X0066821Y0060566
X0065573Y0059411
X0065303Y0061871
X0065456Y0062738
X0065253Y0063576
X0067462Y006416
X0061747Y0065075
X00625Y006
X0063627Y0060198
X0061106Y0059448
X005649Y0061062
X0056921Y0061791
X0056536Y0062636
X00525Y006
X005247Y0054991
X0050521
X0055Y0055
X0056159Y0046203
X0056617Y0045009
X0057609Y0046711
X005901Y0047303
X0060579Y0047904
X00619Y004859
X0062586Y0047346
X0063297Y0046104
X0065Y0045
X006538Y0041275
X0060427Y0041199
X006Y0045
X0056921Y0042062
X0053442Y0042723
X0053815Y0045458
X0051054Y0044933
X0049936Y0043459
X0049Y0044099
X0046533Y0043561
X0042875
X0039472Y0043446
X0035Y0045
X00375Y005
X00425
X00325
X003Y0055
X0035
X0037572Y0055396
X00375Y006
X004Y0057937
X00425Y006
X0045288Y0060477
X0045212Y0064491
X0046266Y0067314
X0039472Y0066614
X0040615Y0064922
X003Y0065
X00325Y006
X0065Y0035
X00275Y005
X00225
X002126Y0052629
X0025Y0055
X0015
X0012522Y0056642
Y0059436
X00175Y006
X002Y0065
X0025615Y006482
X001Y0065
X0005
Y0055
X00075Y005
X00125
X0015Y0045
X001
X0005
X0007874Y0040569
X0005Y0035
Y0075
X001
X0015
X002
X0020574Y0072898
Y0070644
X002286Y0069888
X0022352Y0068326
X00275Y007
X0026063Y0072224
X0025Y0075
X0026214Y0080965
X0026492Y0085903
X0024562Y00873
X00229Y0086393
X00225Y009
X00175
X00125
X001Y0095
X0005
X00075Y01
X00125
X0015Y0095
X002
X00225Y01
X0005Y0105
Y0085
X001
X00175Y008
X0029297Y0081077
X00325Y008
Y007
X0028903Y007001
X00375Y007
X00425
X00475
X0046257Y0071947
X0045923Y0073101
X004Y0075
X0051005Y0077094
X0051564Y0077909
X0052375Y0078715
X0052588Y0080925
X0052654Y0081991
X0051714Y0083261
X0050087Y008316
X0048285Y008255
X0049786Y008961
X0053596Y0089381
X0057014Y0088654
X0055Y0095
X00525Y01
X00625
X0065Y0105
Y0095
X0063284Y0091511
X0063551Y0084455
X0064973Y0085192
X0067056Y0085344
X0065989Y0082601
X0062047Y0083671
X00595Y0082689
X00588Y0079858
X0057937Y0078867
X0060071Y0078765
X0060376Y0076378
X0060682Y0074928
X0059436Y0074854
X0058572Y0074905
X0057582Y0074803
X0057556Y0073279
X0058496Y0073304
X0059487Y0073228
X0062213Y0071647
X0063195Y0074016
X0067032Y00747
X0067285Y0076911
X0067453Y0077826
X0067107Y0078613
X0066243Y0076962
X0063449Y0079934
X0062382Y0080061
X005644Y0080059
X0055364Y0079887
X0054916Y0078343
Y0077371
X0055499Y0076429
X0054813Y0075717
X0056159Y0071653
X0056591Y0069037
X0062195Y0067666
X006379Y0068405
X0065852Y0067769
X0066974Y0069618
X00375Y009
X0035Y0095
X0031496Y0098628
X00325Y01
X0039497Y0102235
X0041351Y0100381
X0041783Y0097511
X00675Y01
X0070294Y0096114
X0074524Y0095072
X0072974Y0093294
X00725Y009
X0075463Y0089992
X0074574Y009111
X0074168Y0088062
X0073374Y0087132
X0074422Y0086157
X0076937Y0086182
X0078663Y0083671
X0074803
X0074574Y0079502
X0075526Y0078777
X0075347Y0075779
X0075286Y0074905
X0075082Y0074092
X0075844Y0073533
X0076073Y0072695
X007641Y0071046
X0073584Y0071806
X0073508Y007366
X007125Y0074851
X0069374Y0074503
X0069852Y0072109
X0069374Y0070815
X007046Y0070841
X0071486Y0070911
X007232Y0070669
X0073177Y0070231
X0073939Y0069672
X0070582Y0069721
X0068783Y0070231
X0067843Y0069672
X0068707Y007808
X0069774Y0078283
X0070778Y0078918
X006919Y0079781
X0071907Y0085192
X0070574Y0086792
X00675Y009
X008Y0095
X0076581Y0099212
X0075717Y0101067
X0086352Y0102782
X0090068Y0102667
X009355Y0102782
X00925Y01
X0090602Y0095275
X0089284Y0094292
X0089905Y0090838
X00975Y009
X01025
X0101829Y0095326
X0104343Y0094285
X0105Y0085
X01025Y008
X0100584Y0081864
X0099339Y0080924
X00925Y008
X00875
X0085141Y0079046
X0082677Y0078524
X0081585Y0079502
X0080387Y0079887
X0080569Y0078524
X0079324Y0079248
X0079502Y0076124
X0083058Y0073863
X0086081Y0073787
X0085649Y0074905
X0087097Y0075311
X0087117Y0076246
X0089281Y007653
X0090119Y0077216
X0089814Y0075336
X0089468Y0073862
X0089777Y0069275
X0090899Y0068169
X0087674Y0068512
X0086625Y0068478
X0085141Y0067666
X0084633Y006985
X0084099Y0070739
X0082906Y0070129
X0082448Y0070968
X0081026Y0071247
X0080294Y0069378
X0080848Y0067894
X0082677Y0081636
X0095Y0075
X0094794Y0070192
X00975Y007
X01025
X0105Y0075
X01075Y008
X011Y0085
X0115
X012
X01175Y009
X01225
Y008
X01175
X012Y0075
X01225Y007
X0116002Y0069266
X0114783Y0069317
X01125Y009
X0115Y0095
X01125Y01
X01075
X01225
X0120561Y0108052
X0117122
X011364
X0110287
X0106844Y0107831
X01034
X00996
X00964
X0092879
X0089181
X00856
X00821
X0078663
X0075375
T02
X0048539Y0059014
Y0066614
T03
X0041048Y0050074
Y0054574
X0047548
Y0050074
T04
X0008016Y0069888
Y0072428
X0007442Y0079574
X0009982
X0009982Y0086393
X0007442
X0007493Y0093442
X0010033
T05
X003546Y000638
Y000892
X0038
Y001146
Y0014
Y001654
Y001908
Y002162
Y002416
X003546
Y002162
Y001908
Y001654
Y0014
Y001146
X0038Y000638
X0095Y0006277
Y0008817
X009754
Y0011357
Y0013897
Y0016437
Y0018977
Y0021517
Y0024057
X0095
Y0021517
Y0018977
Y0016437
Y0013897
Y0011357
X009754Y0006277
X0035357Y0063144
Y0065684
X0007874Y0060422
Y0057882
Y0055342
Y0052802
X0035357Y0068224
Y0070764
Y0073304
Y0075844
X0094945Y0121234
X0097485
Y0123774
Y0126314
Y0128854
Y0131394
Y0133934
Y0136474
Y0139014
X0094945
Y0136474
Y0133934
Y0131394
Y0128854
Y0126314
Y0123774
X0037846Y0123876
Y0126416
Y0128956
Y0131496
Y0134036
Y0136576
Y0139116
X0035306
Y0136576
Y0134036
Y0131496
Y0128956
Y0126416
Y0123876
Y0121336
X0037846
T06
X0117921Y0048522
X01225Y00476
X0106451Y0059867
X0066309Y0088686
X0048997Y0080965
X0043983Y0076751
X0120815Y0081919
Y0087655
T07
X001Y001
X0123Y001
Y014
X001
M30
