%TF.GenerationSoftware,Altium Limited,Altium Designer,19.1.6 (110)*%
G04 Layer_Color=255*
%FSLAX43Y43*%
%MOMM*%
%TF.FileFunction,Pads,Top*%
%TF.Part,Single*%
G01*
G75*
%TA.AperFunction,SMDPad,CuDef*%
%ADD10R,0.850X1.300*%
%ADD11R,1.300X0.850*%
%ADD12O,1.800X0.240*%
%ADD13O,0.240X1.800*%
G04:AMPARAMS|DCode=14|XSize=3.8mm|YSize=2.03mm|CornerRadius=0mm|HoleSize=0mm|Usage=FLASHONLY|Rotation=135.000|XOffset=0mm|YOffset=0mm|HoleType=Round|Shape=Rectangle|*
%AMROTATEDRECTD14*
4,1,4,2.061,-0.626,0.626,-2.061,-2.061,0.626,-0.626,2.061,2.061,-0.626,0.0*
%
%ADD14ROTATEDRECTD14*%

%ADD15R,2.030X3.800*%
%ADD16R,3.800X2.030*%
%ADD17R,1.000X1.400*%
G04:AMPARAMS|DCode=18|XSize=2.298mm|YSize=0.567mm|CornerRadius=0.283mm|HoleSize=0mm|Usage=FLASHONLY|Rotation=180.000|XOffset=0mm|YOffset=0mm|HoleType=Round|Shape=RoundedRectangle|*
%AMROUNDEDRECTD18*
21,1,2.298,0.000,0,0,180.0*
21,1,1.731,0.567,0,0,180.0*
1,1,0.567,-0.865,0.000*
1,1,0.567,0.865,0.000*
1,1,0.567,0.865,0.000*
1,1,0.567,-0.865,0.000*
%
%ADD18ROUNDEDRECTD18*%
%ADD19R,2.298X0.567*%
G04:AMPARAMS|DCode=20|XSize=1.3mm|YSize=0.85mm|CornerRadius=0mm|HoleSize=0mm|Usage=FLASHONLY|Rotation=225.000|XOffset=0mm|YOffset=0mm|HoleType=Round|Shape=Rectangle|*
%AMROTATEDRECTD20*
4,1,4,0.159,0.760,0.760,0.159,-0.159,-0.760,-0.760,-0.159,0.159,0.760,0.0*
%
%ADD20ROTATEDRECTD20*%

%ADD21R,0.350X0.250*%
%ADD22R,0.250X0.350*%
%ADD23R,1.200X1.100*%
%ADD24R,0.305X0.508*%
%ADD25R,1.400X1.000*%
%ADD26R,0.990X0.300*%
G04:AMPARAMS|DCode=27|XSize=0.99mm|YSize=0.97mm|CornerRadius=0.121mm|HoleSize=0mm|Usage=FLASHONLY|Rotation=0.000|XOffset=0mm|YOffset=0mm|HoleType=Round|Shape=RoundedRectangle|*
%AMROUNDEDRECTD27*
21,1,0.990,0.728,0,0,0.0*
21,1,0.748,0.970,0,0,0.0*
1,1,0.242,0.374,-0.364*
1,1,0.242,-0.374,-0.364*
1,1,0.242,-0.374,0.364*
1,1,0.242,0.374,0.364*
%
%ADD27ROUNDEDRECTD27*%
%ADD28C,1.600*%
%ADD29R,1.500X0.800*%
%ADD30R,0.800X1.500*%
%TA.AperFunction,ComponentPad*%
%ADD34R,1.750X1.750*%
%ADD35C,1.750*%
%ADD36C,1.500*%
%ADD37R,1.500X1.500*%
%ADD38R,1.500X1.500*%
%ADD39C,2.286*%
%ADD40C,2.000*%
%ADD41C,1.498*%
%ADD42R,1.498X1.498*%
%TA.AperFunction,WasherPad*%
%ADD43C,1.524*%
D10*
X40576Y98552D02*
D03*
X38876D02*
D03*
X95668Y46253D02*
D03*
X93968D02*
D03*
X75399Y65024D02*
D03*
X73699D02*
D03*
X60503Y73660D02*
D03*
X62203D02*
D03*
X67134Y65610D02*
D03*
X68834D02*
D03*
X27813Y72194D02*
D03*
X28829D02*
D03*
X23710Y74529D02*
D03*
X22010D02*
D03*
X14100Y79574D02*
D03*
X15800D02*
D03*
X14100Y93472D02*
D03*
X15800D02*
D03*
X18173Y54458D02*
D03*
X16473D02*
D03*
X123557Y52091D02*
D03*
X121857D02*
D03*
X121857Y54123D02*
D03*
X123557D02*
D03*
X15506Y59436D02*
D03*
X13806D02*
D03*
X25488Y66264D02*
D03*
X23788D02*
D03*
X71800Y83525D02*
D03*
X70100D02*
D03*
X23876Y68550D02*
D03*
X25576D02*
D03*
X15700Y86393D02*
D03*
X14000D02*
D03*
D11*
X81051Y75565D02*
D03*
Y73865D02*
D03*
X62586Y77331D02*
D03*
Y79031D02*
D03*
X71222Y65899D02*
D03*
Y64199D02*
D03*
X63000Y30650D02*
D03*
Y32350D02*
D03*
X59500Y30650D02*
D03*
Y32350D02*
D03*
X56000Y30650D02*
D03*
Y32350D02*
D03*
X52500Y30650D02*
D03*
Y32350D02*
D03*
X49000Y30650D02*
D03*
Y32350D02*
D03*
X45500Y30650D02*
D03*
Y32350D02*
D03*
X42000Y30650D02*
D03*
Y32350D02*
D03*
X38500Y30650D02*
D03*
Y32350D02*
D03*
X35000Y30650D02*
D03*
Y32350D02*
D03*
X31500Y30650D02*
D03*
Y32350D02*
D03*
X28000Y30650D02*
D03*
Y32350D02*
D03*
X24500Y30650D02*
D03*
Y32350D02*
D03*
X21000Y30650D02*
D03*
Y32350D02*
D03*
X17500Y30650D02*
D03*
Y32350D02*
D03*
X14000Y30650D02*
D03*
Y32350D02*
D03*
X10500Y30650D02*
D03*
Y32350D02*
D03*
X122500Y112220D02*
D03*
Y113920D02*
D03*
X119000Y112220D02*
D03*
Y113920D02*
D03*
X115500Y112220D02*
D03*
Y113920D02*
D03*
X112000Y112220D02*
D03*
Y113920D02*
D03*
X108500Y112220D02*
D03*
Y113920D02*
D03*
X105000Y112220D02*
D03*
Y113920D02*
D03*
X101500Y112220D02*
D03*
Y113920D02*
D03*
X98000Y112220D02*
D03*
Y113920D02*
D03*
X94500Y112220D02*
D03*
Y113920D02*
D03*
X91000Y112220D02*
D03*
Y113920D02*
D03*
X87500Y112220D02*
D03*
Y113920D02*
D03*
X84000Y112220D02*
D03*
Y113920D02*
D03*
X80500Y112220D02*
D03*
Y113920D02*
D03*
X77000Y112220D02*
D03*
Y113920D02*
D03*
X73500Y112220D02*
D03*
Y113920D02*
D03*
X70000Y112220D02*
D03*
Y113920D02*
D03*
X19939Y54393D02*
D03*
Y52693D02*
D03*
X54559Y51753D02*
D03*
Y53453D02*
D03*
X52500Y53453D02*
D03*
Y51753D02*
D03*
X50521Y51703D02*
D03*
Y53403D02*
D03*
X104322Y70998D02*
D03*
Y72698D02*
D03*
X106985Y70998D02*
D03*
Y72698D02*
D03*
X109525Y70930D02*
D03*
Y72630D02*
D03*
X21082Y66938D02*
D03*
Y68638D02*
D03*
X24217Y70524D02*
D03*
Y72224D02*
D03*
X18288Y70494D02*
D03*
Y72194D02*
D03*
D12*
X64824Y79446D02*
D03*
Y79046D02*
D03*
Y78646D02*
D03*
Y78246D02*
D03*
Y77846D02*
D03*
Y77446D02*
D03*
Y77046D02*
D03*
Y76646D02*
D03*
Y76246D02*
D03*
Y75846D02*
D03*
Y75446D02*
D03*
Y75046D02*
D03*
Y74646D02*
D03*
Y74246D02*
D03*
Y73846D02*
D03*
Y73446D02*
D03*
Y73046D02*
D03*
Y72646D02*
D03*
Y72246D02*
D03*
Y71846D02*
D03*
Y71446D02*
D03*
Y71046D02*
D03*
Y70646D02*
D03*
Y70246D02*
D03*
Y69846D02*
D03*
X77924D02*
D03*
Y70246D02*
D03*
Y70646D02*
D03*
Y71046D02*
D03*
Y71446D02*
D03*
Y71846D02*
D03*
Y72246D02*
D03*
Y72646D02*
D03*
Y73046D02*
D03*
Y73446D02*
D03*
Y73846D02*
D03*
Y74246D02*
D03*
Y74646D02*
D03*
Y75046D02*
D03*
Y75446D02*
D03*
Y75846D02*
D03*
Y76246D02*
D03*
Y76646D02*
D03*
Y77046D02*
D03*
Y77446D02*
D03*
Y77846D02*
D03*
Y78246D02*
D03*
Y78646D02*
D03*
Y79046D02*
D03*
Y79446D02*
D03*
D13*
X66574Y68096D02*
D03*
X66974D02*
D03*
X67374D02*
D03*
X67774D02*
D03*
X68174D02*
D03*
X68574D02*
D03*
X68974D02*
D03*
X69374D02*
D03*
X69774D02*
D03*
X70174D02*
D03*
X70574D02*
D03*
X70974D02*
D03*
X71374D02*
D03*
X71774D02*
D03*
X72174D02*
D03*
X72574D02*
D03*
X72974D02*
D03*
X73374D02*
D03*
X73774D02*
D03*
X74174D02*
D03*
X74574D02*
D03*
X74974D02*
D03*
X75374D02*
D03*
X75774D02*
D03*
X76174D02*
D03*
Y81196D02*
D03*
X75774D02*
D03*
X75374D02*
D03*
X74974D02*
D03*
X74574D02*
D03*
X74174D02*
D03*
X73774D02*
D03*
X73374D02*
D03*
X72974D02*
D03*
X72574D02*
D03*
X72174D02*
D03*
X71774D02*
D03*
X71374D02*
D03*
X70974D02*
D03*
X70574D02*
D03*
X70174D02*
D03*
X69774D02*
D03*
X69374D02*
D03*
X68974D02*
D03*
X68574D02*
D03*
X68174D02*
D03*
X67774D02*
D03*
X67374D02*
D03*
X66974D02*
D03*
X66574D02*
D03*
D14*
X40732Y79661D02*
D03*
D15*
X20400Y86139D02*
D03*
X27858Y61816D02*
D03*
X22892Y81021D02*
D03*
X13806Y65885D02*
D03*
X23146Y60554D02*
D03*
X100765Y43790D02*
D03*
X92117Y64971D02*
D03*
X98855Y67185D02*
D03*
D16*
X61080Y56296D02*
D03*
X46600Y84427D02*
D03*
X28727Y51499D02*
D03*
X35185D02*
D03*
X81517Y61100D02*
D03*
X94590Y72350D02*
D03*
X114783Y53273D02*
D03*
X120981Y94099D02*
D03*
Y77543D02*
D03*
Y72550D02*
D03*
X67571Y53680D02*
D03*
X50557Y87342D02*
D03*
X54519Y91452D02*
D03*
X59100Y95182D02*
D03*
D17*
X123450Y39600D02*
D03*
X122500Y37400D02*
D03*
X121550Y39600D02*
D03*
X119950D02*
D03*
X119000Y37400D02*
D03*
X118050Y39600D02*
D03*
X116450D02*
D03*
X115500Y37400D02*
D03*
X114550Y39600D02*
D03*
X112950D02*
D03*
X112000Y37400D02*
D03*
X111050Y39600D02*
D03*
X109450D02*
D03*
X108500Y37400D02*
D03*
X107550Y39600D02*
D03*
X105950D02*
D03*
X105000Y37400D02*
D03*
X104050Y39600D02*
D03*
X102450D02*
D03*
X101500Y37400D02*
D03*
X100550Y39600D02*
D03*
X98950D02*
D03*
X98000Y37400D02*
D03*
X97050Y39600D02*
D03*
X95450D02*
D03*
X94500Y37400D02*
D03*
X93550Y39600D02*
D03*
X91950D02*
D03*
X91000Y37400D02*
D03*
X90050Y39600D02*
D03*
X88450D02*
D03*
X87500Y37400D02*
D03*
X86550Y39600D02*
D03*
X84950D02*
D03*
X84000Y37400D02*
D03*
X83050Y39600D02*
D03*
X81450D02*
D03*
X80500Y37400D02*
D03*
X79550Y39600D02*
D03*
X77950D02*
D03*
X77000Y37400D02*
D03*
X76050Y39600D02*
D03*
X74450D02*
D03*
X73500Y37400D02*
D03*
X72550Y39600D02*
D03*
X70950D02*
D03*
X70000Y37400D02*
D03*
X69050Y39600D02*
D03*
X63950D02*
D03*
X63000Y37400D02*
D03*
X62050Y39600D02*
D03*
X60450D02*
D03*
X59500Y37400D02*
D03*
X58550Y39600D02*
D03*
X56950D02*
D03*
X56000Y37400D02*
D03*
X55050Y39600D02*
D03*
X53450D02*
D03*
X52500Y37400D02*
D03*
X51550Y39600D02*
D03*
X49950D02*
D03*
X49000Y37400D02*
D03*
X48050Y39600D02*
D03*
X46450D02*
D03*
X45500Y37400D02*
D03*
X44550Y39600D02*
D03*
X42950D02*
D03*
X42000Y37400D02*
D03*
X41050Y39600D02*
D03*
X39450D02*
D03*
X38500Y37400D02*
D03*
X37550Y39600D02*
D03*
X35950D02*
D03*
X35000Y37400D02*
D03*
X34050Y39600D02*
D03*
X32450D02*
D03*
X31500Y37400D02*
D03*
X30550Y39600D02*
D03*
X28950D02*
D03*
X28000Y37400D02*
D03*
X27050Y39600D02*
D03*
X25450D02*
D03*
X24500Y37400D02*
D03*
X23550Y39600D02*
D03*
X21950D02*
D03*
X21000Y37400D02*
D03*
X20050Y39600D02*
D03*
X18450D02*
D03*
X17500Y37400D02*
D03*
X16550Y39600D02*
D03*
X14950D02*
D03*
X14000Y37400D02*
D03*
X13050Y39600D02*
D03*
X11450D02*
D03*
X10500Y37400D02*
D03*
X9550Y39600D02*
D03*
X121550Y104720D02*
D03*
X122500Y106920D02*
D03*
X123450Y104720D02*
D03*
X118050D02*
D03*
X119000Y106920D02*
D03*
X119950Y104720D02*
D03*
X114550D02*
D03*
X115500Y106920D02*
D03*
X116450Y104720D02*
D03*
X111050D02*
D03*
X112000Y106920D02*
D03*
X112950Y104720D02*
D03*
X107550D02*
D03*
X108500Y106920D02*
D03*
X109450Y104720D02*
D03*
X104050D02*
D03*
X105000Y106920D02*
D03*
X105950Y104720D02*
D03*
X100550D02*
D03*
X101500Y106920D02*
D03*
X102450Y104720D02*
D03*
X97050D02*
D03*
X98000Y106920D02*
D03*
X98950Y104720D02*
D03*
X93550D02*
D03*
X94500Y106920D02*
D03*
X95450Y104720D02*
D03*
X90050D02*
D03*
X91000Y106920D02*
D03*
X91950Y104720D02*
D03*
X86550D02*
D03*
X87500Y106920D02*
D03*
X88450Y104720D02*
D03*
X83050D02*
D03*
X84000Y106920D02*
D03*
X84950Y104720D02*
D03*
X79550D02*
D03*
X80500Y106920D02*
D03*
X81450Y104720D02*
D03*
X76050D02*
D03*
X77000Y106920D02*
D03*
X77950Y104720D02*
D03*
X72550D02*
D03*
X73500Y106920D02*
D03*
X74450Y104720D02*
D03*
X69050D02*
D03*
X70000Y106920D02*
D03*
X70950Y104720D02*
D03*
X62050Y104781D02*
D03*
X63000Y106981D02*
D03*
X63950Y104781D02*
D03*
X58550D02*
D03*
X59500Y106981D02*
D03*
X60450Y104781D02*
D03*
X55050D02*
D03*
X56000Y106981D02*
D03*
X56950Y104781D02*
D03*
X51550D02*
D03*
X52500Y106981D02*
D03*
X53450Y104781D02*
D03*
X48050D02*
D03*
X49000Y106981D02*
D03*
X49950Y104781D02*
D03*
X44550D02*
D03*
X45500Y106981D02*
D03*
X46450Y104781D02*
D03*
X41050D02*
D03*
X42000Y106981D02*
D03*
X42950Y104781D02*
D03*
X37550D02*
D03*
X38500Y106981D02*
D03*
X39450Y104781D02*
D03*
X34050D02*
D03*
X35000Y106981D02*
D03*
X35950Y104781D02*
D03*
X30550D02*
D03*
X31500Y106981D02*
D03*
X32450Y104781D02*
D03*
X27050D02*
D03*
X28000Y106981D02*
D03*
X28950Y104781D02*
D03*
X23550D02*
D03*
X24500Y106981D02*
D03*
X25450Y104781D02*
D03*
X20050D02*
D03*
X21000Y106981D02*
D03*
X21950Y104781D02*
D03*
X16550D02*
D03*
X17500Y106981D02*
D03*
X18450Y104781D02*
D03*
X13050D02*
D03*
X14000Y106981D02*
D03*
X14950Y104781D02*
D03*
X9550Y104720D02*
D03*
X10500Y106920D02*
D03*
X11450Y104720D02*
D03*
D18*
X92983Y48158D02*
D03*
Y49428D02*
D03*
Y50698D02*
D03*
Y51968D02*
D03*
Y53238D02*
D03*
Y54508D02*
D03*
Y55778D02*
D03*
Y57048D02*
D03*
Y58318D02*
D03*
Y59588D02*
D03*
Y60858D02*
D03*
Y62128D02*
D03*
X102039D02*
D03*
Y60858D02*
D03*
Y59588D02*
D03*
Y58318D02*
D03*
Y57048D02*
D03*
Y55778D02*
D03*
Y54508D02*
D03*
Y53238D02*
D03*
Y51968D02*
D03*
Y50698D02*
D03*
Y49428D02*
D03*
X40478Y96490D02*
D03*
Y95220D02*
D03*
Y93950D02*
D03*
Y92680D02*
D03*
Y91410D02*
D03*
Y90140D02*
D03*
Y88870D02*
D03*
Y87600D02*
D03*
Y86330D02*
D03*
Y85060D02*
D03*
Y83790D02*
D03*
Y82520D02*
D03*
X31422D02*
D03*
Y83790D02*
D03*
Y85060D02*
D03*
Y86330D02*
D03*
Y87600D02*
D03*
Y88870D02*
D03*
Y90140D02*
D03*
Y91410D02*
D03*
Y92680D02*
D03*
Y93950D02*
D03*
Y95220D02*
D03*
D19*
X102039Y48158D02*
D03*
X31422Y96490D02*
D03*
D20*
X57260Y86252D02*
D03*
X58462Y85050D02*
D03*
X59719Y88507D02*
D03*
X60921Y87305D02*
D03*
X59656Y86140D02*
D03*
X58454Y87342D02*
D03*
D21*
X53825Y84202D02*
D03*
Y83702D02*
D03*
Y83202D02*
D03*
Y82702D02*
D03*
Y82202D02*
D03*
X56275D02*
D03*
Y82702D02*
D03*
Y83202D02*
D03*
Y83702D02*
D03*
Y84202D02*
D03*
D22*
X54550Y81977D02*
D03*
X55050D02*
D03*
X55550D02*
D03*
Y84427D02*
D03*
X55050D02*
D03*
X54550D02*
D03*
D23*
X104322Y78169D02*
D03*
Y76069D02*
D03*
X106985Y78169D02*
D03*
Y76069D02*
D03*
X109525Y78169D02*
D03*
Y76069D02*
D03*
D24*
X21844Y70644D02*
D03*
X22344D02*
D03*
X21344D02*
D03*
X21844Y72044D02*
D03*
X21344D02*
D03*
X22344D02*
D03*
D25*
X59405Y66025D02*
D03*
X57205Y65075D02*
D03*
X59405Y64125D02*
D03*
D26*
X14054Y56193D02*
D03*
Y56693D02*
D03*
Y57193D02*
D03*
X15664D02*
D03*
Y56693D02*
D03*
Y56193D02*
D03*
D27*
X56536Y58955D02*
D03*
X58576D02*
D03*
D28*
X112315Y56238D02*
D03*
Y67738D02*
D03*
D29*
X112615Y58988D02*
D03*
Y60188D02*
D03*
Y61388D02*
D03*
Y62588D02*
D03*
Y64988D02*
D03*
Y63788D02*
D03*
D30*
X116015Y67488D02*
D03*
X114815D02*
D03*
X117215D02*
D03*
X118415D02*
D03*
X119615D02*
D03*
X120815D02*
D03*
X122015D02*
D03*
X123215D02*
D03*
Y56488D02*
D03*
X122015D02*
D03*
X120815D02*
D03*
X119615D02*
D03*
X118415D02*
D03*
X117215D02*
D03*
X114815D02*
D03*
X116015D02*
D03*
D34*
X35306Y139116D02*
D03*
X97540Y6277D02*
D03*
X94945Y139014D02*
D03*
X38000Y6380D02*
D03*
X35357Y75844D02*
D03*
X7874Y52802D02*
D03*
D35*
X37846Y136576D02*
D03*
Y134036D02*
D03*
Y131496D02*
D03*
Y128956D02*
D03*
Y126416D02*
D03*
Y123876D02*
D03*
Y121336D02*
D03*
X35306Y123876D02*
D03*
Y134036D02*
D03*
X37846Y139116D02*
D03*
X35306Y121336D02*
D03*
Y126416D02*
D03*
Y128956D02*
D03*
Y131496D02*
D03*
Y136576D02*
D03*
X97540Y8817D02*
D03*
Y13897D02*
D03*
Y16437D02*
D03*
Y18977D02*
D03*
Y24057D02*
D03*
X95000Y6277D02*
D03*
X97540Y11357D02*
D03*
Y21517D02*
D03*
X95000Y24057D02*
D03*
Y21517D02*
D03*
Y18977D02*
D03*
Y16437D02*
D03*
Y13897D02*
D03*
Y11357D02*
D03*
Y8817D02*
D03*
X97485Y136474D02*
D03*
Y133934D02*
D03*
Y131394D02*
D03*
Y128854D02*
D03*
Y126314D02*
D03*
Y123774D02*
D03*
Y121234D02*
D03*
X94945Y123774D02*
D03*
Y133934D02*
D03*
X97485Y139014D02*
D03*
X94945Y121234D02*
D03*
Y126314D02*
D03*
Y128854D02*
D03*
Y131394D02*
D03*
Y136474D02*
D03*
X38000Y8920D02*
D03*
Y14000D02*
D03*
Y16540D02*
D03*
Y19080D02*
D03*
Y24160D02*
D03*
X35460Y6380D02*
D03*
X38000Y11460D02*
D03*
Y21620D02*
D03*
X35460Y24160D02*
D03*
Y21620D02*
D03*
Y19080D02*
D03*
Y16540D02*
D03*
Y14000D02*
D03*
Y11460D02*
D03*
Y8920D02*
D03*
X35357Y70764D02*
D03*
Y63144D02*
D03*
Y65684D02*
D03*
Y68224D02*
D03*
Y73304D02*
D03*
X7874Y55342D02*
D03*
Y60422D02*
D03*
Y57882D02*
D03*
D36*
X8016Y69888D02*
D03*
X7442Y79574D02*
D03*
X7442Y86393D02*
D03*
X7493Y93442D02*
D03*
D37*
X8016Y72428D02*
D03*
D38*
X9982Y79574D02*
D03*
X9982Y86393D02*
D03*
X10033Y93442D02*
D03*
D39*
X66309Y88686D02*
D03*
X48997Y80965D02*
D03*
X43983Y76751D02*
D03*
X106451Y59867D02*
D03*
X117921Y48522D02*
D03*
X120815Y87655D02*
D03*
Y81919D02*
D03*
X122500Y47600D02*
D03*
D40*
X48539Y59014D02*
D03*
Y66614D02*
D03*
D41*
X41048Y50074D02*
D03*
X47548D02*
D03*
Y54574D02*
D03*
D42*
X41048D02*
D03*
D43*
X123000Y140000D02*
D03*
Y10000D02*
D03*
X10000Y10000D02*
D03*
Y140000D02*
D03*
%TF.MD5,5b423df589da4f995913064f34790725*%
M02*
