%TF.GenerationSoftware,Altium Limited,Altium Designer,19.1.6 (110)*%
G04 Layer_Physical_Order=1*
G04 Layer_Color=255*
%FSLAX43Y43*%
%MOMM*%
%TF.FileFunction,Copper,L1,Top,Signal*%
%TF.Part,Single*%
G01*
G75*
%TA.AperFunction,SMDPad,CuDef*%
G04:AMPARAMS|DCode=10|XSize=1.2mm|YSize=1.1mm|CornerRadius=0mm|HoleSize=0mm|Usage=FLASHONLY|Rotation=135.000|XOffset=0mm|YOffset=0mm|HoleType=Round|Shape=Rectangle|*
%AMROTATEDRECTD10*
4,1,4,0.813,-0.035,0.035,-0.813,-0.813,0.035,-0.035,0.813,0.813,-0.035,0.0*
%
%ADD10ROTATEDRECTD10*%

%TA.AperFunction,Conductor*%
%ADD11C,0.600*%
%TA.AperFunction,WasherPad*%
%ADD12C,1.524*%
%TA.AperFunction,ComponentPad*%
%ADD13R,1.750X1.750*%
%ADD14C,1.750*%
%ADD15R,1.750X1.750*%
%TA.AperFunction,ViaPad*%
%ADD16C,1.000*%
D10*
X6625Y94860D02*
D03*
X5140Y93375D02*
D03*
X94860Y6625D02*
D03*
X93375Y5140D02*
D03*
X88978Y6625D02*
D03*
X87493Y5140D02*
D03*
X83095Y6625D02*
D03*
X81610Y5140D02*
D03*
X77213Y6625D02*
D03*
X75728Y5140D02*
D03*
X71331Y6625D02*
D03*
X69846Y5140D02*
D03*
X65448Y6625D02*
D03*
X63963Y5140D02*
D03*
X59566Y6625D02*
D03*
X58081Y5140D02*
D03*
X53684Y6625D02*
D03*
X52199Y5140D02*
D03*
X47801Y6625D02*
D03*
X46316Y5140D02*
D03*
X41919Y6625D02*
D03*
X40434Y5140D02*
D03*
X36037Y6625D02*
D03*
X34552Y5140D02*
D03*
X30154Y6625D02*
D03*
X28669Y5140D02*
D03*
X24272Y6625D02*
D03*
X22787Y5140D02*
D03*
X18390Y6625D02*
D03*
X16905Y5140D02*
D03*
X12507Y6625D02*
D03*
X11022Y5140D02*
D03*
X6625Y6625D02*
D03*
X5140Y5140D02*
D03*
X94860Y12507D02*
D03*
X93375Y11022D02*
D03*
X88978Y12507D02*
D03*
X87493Y11022D02*
D03*
X83095Y12507D02*
D03*
X81610Y11022D02*
D03*
X77213Y12507D02*
D03*
X75728Y11022D02*
D03*
X71331Y12507D02*
D03*
X69846Y11022D02*
D03*
X65448Y12507D02*
D03*
X63963Y11022D02*
D03*
X59566Y12507D02*
D03*
X58081Y11022D02*
D03*
X53684Y12507D02*
D03*
X52199Y11022D02*
D03*
X47801Y12507D02*
D03*
X46316Y11022D02*
D03*
X41919Y12507D02*
D03*
X40434Y11022D02*
D03*
X36037Y12507D02*
D03*
X34552Y11022D02*
D03*
X30154Y12507D02*
D03*
X28669Y11022D02*
D03*
X24272Y12507D02*
D03*
X22787Y11022D02*
D03*
X18390Y12507D02*
D03*
X16905Y11022D02*
D03*
X12507Y12507D02*
D03*
X11022Y11022D02*
D03*
X6625Y12507D02*
D03*
X5140Y11022D02*
D03*
X94860Y18390D02*
D03*
X93375Y16905D02*
D03*
X88978Y18390D02*
D03*
X87493Y16905D02*
D03*
X83095Y18390D02*
D03*
X81610Y16905D02*
D03*
X77213Y18390D02*
D03*
X75728Y16905D02*
D03*
X71331Y18390D02*
D03*
X69846Y16905D02*
D03*
X65448Y18390D02*
D03*
X63963Y16905D02*
D03*
X59566Y18390D02*
D03*
X58081Y16905D02*
D03*
X53684Y18390D02*
D03*
X52199Y16905D02*
D03*
X47801Y18390D02*
D03*
X46316Y16905D02*
D03*
X41919Y18390D02*
D03*
X40434Y16905D02*
D03*
X36037Y18390D02*
D03*
X34552Y16905D02*
D03*
X30154Y18390D02*
D03*
X28669Y16905D02*
D03*
X24272Y18390D02*
D03*
X22787Y16905D02*
D03*
X18390Y18390D02*
D03*
X16905Y16905D02*
D03*
X12507Y18390D02*
D03*
X11022Y16905D02*
D03*
X6625Y18390D02*
D03*
X5140Y16905D02*
D03*
X94860Y24272D02*
D03*
X93375Y22787D02*
D03*
X88978Y24272D02*
D03*
X87493Y22787D02*
D03*
X83095Y24272D02*
D03*
X81610Y22787D02*
D03*
X77213Y24272D02*
D03*
X75728Y22787D02*
D03*
X71331Y24272D02*
D03*
X69846Y22787D02*
D03*
X65448Y24272D02*
D03*
X63963Y22787D02*
D03*
X59566Y24272D02*
D03*
X58081Y22787D02*
D03*
X53684Y24272D02*
D03*
X52199Y22787D02*
D03*
X47801Y24272D02*
D03*
X46316Y22787D02*
D03*
X41919Y24272D02*
D03*
X40434Y22787D02*
D03*
X36037Y24272D02*
D03*
X34552Y22787D02*
D03*
X30154Y24272D02*
D03*
X28669Y22787D02*
D03*
X24272Y24272D02*
D03*
X22787Y22787D02*
D03*
X18390Y24272D02*
D03*
X16905Y22787D02*
D03*
X12507Y24272D02*
D03*
X11022Y22787D02*
D03*
X6625Y24272D02*
D03*
X5140Y22787D02*
D03*
X94860Y30154D02*
D03*
X93375Y28669D02*
D03*
X88978Y30154D02*
D03*
X87493Y28669D02*
D03*
X83095Y30154D02*
D03*
X81610Y28669D02*
D03*
X77213Y30154D02*
D03*
X75728Y28669D02*
D03*
X71331Y30154D02*
D03*
X69846Y28669D02*
D03*
X65448Y30154D02*
D03*
X63963Y28669D02*
D03*
X59566Y30154D02*
D03*
X58081Y28669D02*
D03*
X53684Y30154D02*
D03*
X52199Y28669D02*
D03*
X47801Y30154D02*
D03*
X46316Y28669D02*
D03*
X41919Y30154D02*
D03*
X40434Y28669D02*
D03*
X36037Y30154D02*
D03*
X34552Y28669D02*
D03*
X30154Y30154D02*
D03*
X28669Y28669D02*
D03*
X24272Y30154D02*
D03*
X22787Y28669D02*
D03*
X18390Y30154D02*
D03*
X16905Y28669D02*
D03*
X12507Y30154D02*
D03*
X11022Y28669D02*
D03*
X6625Y30154D02*
D03*
X5140Y28669D02*
D03*
X94860Y36037D02*
D03*
X93375Y34552D02*
D03*
X88978Y36037D02*
D03*
X87493Y34552D02*
D03*
X83095Y36037D02*
D03*
X81610Y34552D02*
D03*
X77213Y36037D02*
D03*
X75728Y34552D02*
D03*
X71331Y36037D02*
D03*
X69846Y34552D02*
D03*
X65448Y36037D02*
D03*
X63963Y34552D02*
D03*
X59566Y36037D02*
D03*
X58081Y34552D02*
D03*
X53684Y36037D02*
D03*
X52199Y34552D02*
D03*
X47801Y36037D02*
D03*
X46316Y34552D02*
D03*
X41919Y36037D02*
D03*
X40434Y34552D02*
D03*
X36037Y36037D02*
D03*
X34552Y34552D02*
D03*
X30154Y36037D02*
D03*
X28669Y34552D02*
D03*
X24272Y36037D02*
D03*
X22787Y34552D02*
D03*
X18390Y36037D02*
D03*
X16905Y34552D02*
D03*
X12507Y36037D02*
D03*
X11022Y34552D02*
D03*
X6625Y36037D02*
D03*
X5140Y34552D02*
D03*
X94860Y41919D02*
D03*
X93375Y40434D02*
D03*
X88978Y41919D02*
D03*
X87493Y40434D02*
D03*
X83095Y41919D02*
D03*
X81610Y40434D02*
D03*
X77213Y41919D02*
D03*
X75728Y40434D02*
D03*
X71331Y41919D02*
D03*
X69846Y40434D02*
D03*
X65448Y41919D02*
D03*
X63963Y40434D02*
D03*
X59566Y41919D02*
D03*
X58081Y40434D02*
D03*
X53684Y41919D02*
D03*
X52199Y40434D02*
D03*
X47801Y41919D02*
D03*
X46316Y40434D02*
D03*
X41919Y41919D02*
D03*
X40434Y40434D02*
D03*
X36037Y41919D02*
D03*
X34552Y40434D02*
D03*
X30154Y41919D02*
D03*
X28669Y40434D02*
D03*
X24272Y41919D02*
D03*
X22787Y40434D02*
D03*
X18390Y41919D02*
D03*
X16905Y40434D02*
D03*
X12507Y41919D02*
D03*
X11022Y40434D02*
D03*
X6625Y41919D02*
D03*
X5140Y40434D02*
D03*
X94860Y47801D02*
D03*
X93375Y46316D02*
D03*
X88978Y47801D02*
D03*
X87493Y46316D02*
D03*
X83095Y47801D02*
D03*
X81610Y46316D02*
D03*
X77213Y47801D02*
D03*
X75728Y46316D02*
D03*
X71331Y47801D02*
D03*
X69846Y46316D02*
D03*
X65448Y47801D02*
D03*
X63963Y46316D02*
D03*
X59566Y47801D02*
D03*
X58081Y46316D02*
D03*
X53684Y47801D02*
D03*
X52199Y46316D02*
D03*
X47801Y47801D02*
D03*
X46316Y46316D02*
D03*
X41919Y47801D02*
D03*
X40434Y46316D02*
D03*
X36037Y47801D02*
D03*
X34552Y46316D02*
D03*
X30154Y47801D02*
D03*
X28669Y46316D02*
D03*
X24272Y47801D02*
D03*
X22787Y46316D02*
D03*
X18390Y47801D02*
D03*
X16905Y46316D02*
D03*
X12507Y47801D02*
D03*
X11022Y46316D02*
D03*
X6625Y47801D02*
D03*
X5140Y46316D02*
D03*
X94860Y53684D02*
D03*
X93375Y52199D02*
D03*
X88978Y53684D02*
D03*
X87493Y52199D02*
D03*
X83095Y53684D02*
D03*
X81610Y52199D02*
D03*
X77213Y53684D02*
D03*
X75728Y52199D02*
D03*
X71331Y53684D02*
D03*
X69846Y52199D02*
D03*
X65448Y53684D02*
D03*
X63963Y52199D02*
D03*
X59566Y53684D02*
D03*
X58081Y52199D02*
D03*
X53684Y53684D02*
D03*
X52199Y52199D02*
D03*
X47801Y53684D02*
D03*
X46316Y52199D02*
D03*
X41919Y53684D02*
D03*
X40434Y52199D02*
D03*
X36037Y53684D02*
D03*
X34552Y52199D02*
D03*
X30154Y53684D02*
D03*
X28669Y52199D02*
D03*
X24272Y53684D02*
D03*
X22787Y52199D02*
D03*
X18390Y53684D02*
D03*
X16905Y52199D02*
D03*
X12507Y53684D02*
D03*
X11022Y52199D02*
D03*
X6625Y53684D02*
D03*
X5140Y52199D02*
D03*
X94860Y59566D02*
D03*
X93375Y58081D02*
D03*
X88978Y59566D02*
D03*
X87493Y58081D02*
D03*
X83095Y59566D02*
D03*
X81610Y58081D02*
D03*
X77213Y59566D02*
D03*
X75728Y58081D02*
D03*
X71331Y59566D02*
D03*
X69846Y58081D02*
D03*
X65448Y59566D02*
D03*
X63963Y58081D02*
D03*
X59566Y59566D02*
D03*
X58081Y58081D02*
D03*
X53684Y59566D02*
D03*
X52199Y58081D02*
D03*
X47801Y59566D02*
D03*
X46316Y58081D02*
D03*
X41919Y59566D02*
D03*
X40434Y58081D02*
D03*
X36037Y59566D02*
D03*
X34552Y58081D02*
D03*
X30154Y59566D02*
D03*
X28669Y58081D02*
D03*
X24272Y59566D02*
D03*
X22787Y58081D02*
D03*
X18390Y59566D02*
D03*
X16905Y58081D02*
D03*
X12507Y59566D02*
D03*
X11022Y58081D02*
D03*
X6625Y59566D02*
D03*
X5140Y58081D02*
D03*
X94860Y65448D02*
D03*
X93375Y63963D02*
D03*
X88978Y65448D02*
D03*
X87493Y63963D02*
D03*
X83095Y65448D02*
D03*
X81610Y63963D02*
D03*
X77213Y65448D02*
D03*
X75728Y63963D02*
D03*
X71331Y65448D02*
D03*
X69846Y63963D02*
D03*
X65448Y65448D02*
D03*
X63963Y63963D02*
D03*
X59566Y65448D02*
D03*
X58081Y63963D02*
D03*
X53684Y65448D02*
D03*
X52199Y63963D02*
D03*
X47801Y65448D02*
D03*
X46316Y63963D02*
D03*
X41919Y65448D02*
D03*
X40434Y63963D02*
D03*
X36037Y65448D02*
D03*
X34552Y63963D02*
D03*
X30154Y65448D02*
D03*
X28669Y63963D02*
D03*
X24272Y65448D02*
D03*
X22787Y63963D02*
D03*
X18390Y65448D02*
D03*
X16905Y63963D02*
D03*
X12507Y65448D02*
D03*
X11022Y63963D02*
D03*
X6625Y65448D02*
D03*
X5140Y63963D02*
D03*
X94860Y71331D02*
D03*
X93375Y69846D02*
D03*
X88978Y71331D02*
D03*
X87493Y69846D02*
D03*
X83095Y71331D02*
D03*
X81610Y69846D02*
D03*
X77213Y71331D02*
D03*
X75728Y69846D02*
D03*
X71331Y71331D02*
D03*
X69846Y69846D02*
D03*
X65448Y71331D02*
D03*
X63963Y69846D02*
D03*
X59566Y71331D02*
D03*
X58081Y69846D02*
D03*
X53684Y71331D02*
D03*
X52199Y69846D02*
D03*
X47801Y71331D02*
D03*
X46316Y69846D02*
D03*
X41919Y71331D02*
D03*
X40434Y69846D02*
D03*
X36037Y71331D02*
D03*
X34552Y69846D02*
D03*
X30154Y71331D02*
D03*
X28669Y69846D02*
D03*
X24272Y71331D02*
D03*
X22787Y69846D02*
D03*
X18390Y71331D02*
D03*
X16905Y69846D02*
D03*
X12507Y71331D02*
D03*
X11022Y69846D02*
D03*
X6625Y71331D02*
D03*
X5140Y69846D02*
D03*
X94860Y77213D02*
D03*
X93375Y75728D02*
D03*
X88978Y77213D02*
D03*
X87493Y75728D02*
D03*
X83095Y77213D02*
D03*
X81610Y75728D02*
D03*
X77213Y77213D02*
D03*
X75728Y75728D02*
D03*
X71331Y77213D02*
D03*
X69846Y75728D02*
D03*
X65448Y77213D02*
D03*
X63963Y75728D02*
D03*
X59566Y77213D02*
D03*
X58081Y75728D02*
D03*
X53684Y77213D02*
D03*
X52199Y75728D02*
D03*
X47801Y77213D02*
D03*
X46316Y75728D02*
D03*
X41919Y77213D02*
D03*
X40434Y75728D02*
D03*
X36037Y77213D02*
D03*
X34552Y75728D02*
D03*
X30154Y77213D02*
D03*
X28669Y75728D02*
D03*
X24272Y77213D02*
D03*
X22787Y75728D02*
D03*
X18390Y77213D02*
D03*
X16905Y75728D02*
D03*
X12507Y77213D02*
D03*
X11022Y75728D02*
D03*
X6625Y77213D02*
D03*
X5140Y75728D02*
D03*
X94860Y83095D02*
D03*
X93375Y81610D02*
D03*
X88978Y83095D02*
D03*
X87493Y81610D02*
D03*
X83095Y83095D02*
D03*
X81610Y81610D02*
D03*
X77213Y83095D02*
D03*
X75728Y81610D02*
D03*
X71331Y83095D02*
D03*
X69846Y81610D02*
D03*
X65448Y83095D02*
D03*
X63963Y81610D02*
D03*
X59566Y83095D02*
D03*
X58081Y81610D02*
D03*
X53684Y83095D02*
D03*
X52199Y81610D02*
D03*
X47801Y83095D02*
D03*
X46316Y81610D02*
D03*
X41919Y83095D02*
D03*
X40434Y81610D02*
D03*
X36037Y83095D02*
D03*
X34552Y81610D02*
D03*
X30154Y83095D02*
D03*
X28669Y81610D02*
D03*
X24272Y83095D02*
D03*
X22787Y81610D02*
D03*
X18390Y83095D02*
D03*
X16905Y81610D02*
D03*
X12507Y83095D02*
D03*
X11022Y81610D02*
D03*
X6625Y83095D02*
D03*
X5140Y81610D02*
D03*
X94860Y88978D02*
D03*
X93375Y87493D02*
D03*
X88978Y88978D02*
D03*
X87493Y87493D02*
D03*
X83095Y88978D02*
D03*
X81610Y87493D02*
D03*
X77213Y88978D02*
D03*
X75728Y87493D02*
D03*
X71331Y88978D02*
D03*
X69846Y87493D02*
D03*
X65448Y88978D02*
D03*
X63963Y87493D02*
D03*
X59566Y88978D02*
D03*
X58081Y87493D02*
D03*
X53684Y88978D02*
D03*
X52199Y87493D02*
D03*
X47801Y88978D02*
D03*
X46316Y87493D02*
D03*
X41919Y88978D02*
D03*
X40434Y87493D02*
D03*
X36037Y88978D02*
D03*
X34552Y87493D02*
D03*
X30154Y88978D02*
D03*
X28669Y87493D02*
D03*
X24272Y88978D02*
D03*
X22787Y87493D02*
D03*
X18390Y88978D02*
D03*
X16905Y87493D02*
D03*
X12507Y88978D02*
D03*
X11022Y87493D02*
D03*
X6625Y88978D02*
D03*
X5140Y87493D02*
D03*
X94860Y94860D02*
D03*
X93375Y93375D02*
D03*
X88978Y94860D02*
D03*
X87493Y93375D02*
D03*
X83095Y94860D02*
D03*
X81610Y93375D02*
D03*
X77213Y94860D02*
D03*
X75728Y93375D02*
D03*
X71331Y94860D02*
D03*
X69846Y93375D02*
D03*
X65448Y94860D02*
D03*
X63963Y93375D02*
D03*
X59566Y94860D02*
D03*
X58081Y93375D02*
D03*
X53684Y94860D02*
D03*
X52199Y93375D02*
D03*
X47801Y94860D02*
D03*
X46316Y93375D02*
D03*
X41919Y94860D02*
D03*
X40434Y93375D02*
D03*
X36037Y94860D02*
D03*
X34552Y93375D02*
D03*
X30154Y94860D02*
D03*
X28669Y93375D02*
D03*
X24272Y94860D02*
D03*
X22787Y93375D02*
D03*
X18390Y94860D02*
D03*
X16905Y93375D02*
D03*
X12507Y94860D02*
D03*
X11022Y93375D02*
D03*
D11*
X4100Y86275D02*
Y86524D01*
X5105Y87528D01*
X3550Y80091D02*
X5105Y81646D01*
X3550Y80000D02*
Y80091D01*
X5105Y87528D02*
X5140Y87493D01*
X50700Y115100D02*
X65625D01*
X53684Y65448D02*
Y83095D01*
Y6958D02*
Y18390D01*
X61850Y103026D02*
Y109725D01*
X59950Y111625D02*
X61850Y109725D01*
X43785Y111625D02*
X59950D01*
X41200Y109040D02*
X43785Y111625D01*
X53684Y94860D02*
X61850Y103026D01*
X94825Y94895D02*
Y97372D01*
X94895Y6958D02*
Y30154D01*
X59601Y47801D02*
Y65448D01*
Y6660D02*
Y47801D01*
Y83095D02*
Y94825D01*
Y65448D02*
Y83095D01*
X47500Y114125D02*
X68900D01*
X68925Y114150D01*
X65413Y71331D02*
Y94118D01*
Y53684D02*
Y71331D01*
Y36750D02*
Y53684D01*
Y24272D02*
Y36750D01*
Y6660D02*
Y24272D01*
X71366Y77213D02*
Y94825D01*
Y53684D02*
Y77213D01*
Y36037D02*
Y53684D01*
Y6958D02*
Y36037D01*
X77178Y88978D02*
Y94118D01*
Y71331D02*
Y88978D01*
Y53684D02*
Y71331D01*
Y36525D02*
Y53684D01*
Y24272D02*
Y36525D01*
Y6660D02*
Y24272D01*
X88978Y94860D02*
Y99075D01*
X82975Y94981D02*
Y100427D01*
Y94981D02*
X83095Y94860D01*
X77178Y94895D02*
Y101825D01*
X71075Y95116D02*
X71331Y94860D01*
X71075Y95116D02*
Y103550D01*
X69950Y104928D02*
Y106000D01*
X65448Y100427D02*
X69950Y104928D01*
X65448Y94860D02*
Y100427D01*
X59566Y97391D02*
X71450Y109275D01*
X59566Y94860D02*
Y97391D01*
X6660Y47801D02*
Y94825D01*
Y18390D02*
Y47801D01*
Y6660D02*
Y18390D01*
X6625Y41919D02*
Y71331D01*
Y30154D02*
Y41919D01*
X12542Y77213D02*
Y94825D01*
Y71331D02*
Y77213D01*
Y59566D02*
Y71331D01*
Y41919D02*
Y59566D01*
Y6660D02*
Y41919D01*
X18425Y65448D02*
Y83095D01*
Y53684D02*
Y65448D01*
Y83095D02*
Y94825D01*
Y36037D02*
Y53684D01*
Y24272D02*
Y36037D01*
Y6731D02*
Y24272D01*
X18354Y6660D02*
X18425Y6731D01*
X18350Y94900D02*
X18390Y94860D01*
X18350Y94900D02*
Y99325D01*
X24125Y95007D02*
X24272Y94860D01*
X24125Y95007D02*
Y100675D01*
X30025Y94989D02*
Y102025D01*
Y94989D02*
X30154Y94860D01*
X36072Y94969D02*
Y103300D01*
X36000Y94897D02*
X36072Y94969D01*
X39475Y100451D02*
Y104650D01*
Y100451D02*
X41884Y98043D01*
X36000Y94897D02*
X36037Y94860D01*
X36001Y6660D02*
X36072Y6731D01*
Y83095D02*
Y94825D01*
Y71331D02*
Y83095D01*
Y53684D02*
Y71331D01*
Y24272D02*
Y53684D01*
Y6731D02*
Y24272D01*
X41884Y71331D02*
Y88978D01*
Y59566D02*
Y71331D01*
Y47801D02*
Y59566D01*
Y88978D02*
Y94118D01*
Y18390D02*
Y47801D01*
Y6660D02*
Y18390D01*
X83131Y6958D02*
Y94825D01*
X88942Y83095D02*
Y94118D01*
Y72225D02*
Y83095D01*
Y71331D02*
Y72225D01*
Y53684D02*
Y71331D01*
Y36037D02*
Y53684D01*
Y18390D02*
Y36037D01*
Y6660D02*
Y18390D01*
X47837Y71331D02*
Y94825D01*
Y59566D02*
Y71331D01*
Y41919D02*
Y59566D01*
Y30154D02*
Y41919D01*
Y6731D02*
Y30154D01*
X41200Y104475D02*
Y106500D01*
Y104475D02*
X47766Y97909D01*
Y95357D02*
Y97909D01*
Y95357D02*
X47801Y95321D01*
X41884Y94895D02*
Y98043D01*
Y94895D02*
X41919Y94860D01*
X36037D02*
X36072Y94825D01*
X24237Y6660D02*
X24307Y6731D01*
Y83095D02*
Y94825D01*
Y71331D02*
Y83095D01*
Y47801D02*
Y71331D01*
Y18390D02*
Y47801D01*
Y6731D02*
Y18390D01*
X18390Y94860D02*
X18425Y94825D01*
X12507Y94860D02*
X12542Y94825D01*
X12472Y94895D02*
X12507Y94860D01*
X12450Y97800D02*
X12472Y97778D01*
Y94895D02*
Y97778D01*
X6575Y96600D02*
X6589Y96586D01*
Y94895D02*
Y96586D01*
Y94895D02*
X6625Y94860D01*
X30119Y6660D02*
Y47837D01*
X30190Y94188D02*
Y94825D01*
Y94188D02*
Y94188D01*
X30190Y94188D01*
X30154Y94153D02*
X30190Y94188D01*
X30119Y94118D02*
X30154Y94153D01*
X30119Y89013D02*
Y89850D01*
Y84450D02*
Y89013D01*
Y71331D02*
Y83131D01*
Y48800D02*
Y71331D01*
Y47837D02*
Y48800D01*
X30154Y94153D02*
X30190Y94188D01*
X30119Y94118D02*
X30154Y94153D01*
X30119Y89013D02*
X30154Y88978D01*
X30119Y89013D02*
X30119Y89013D01*
X94825Y94895D02*
X94860Y94860D01*
X83095D02*
X83131Y94825D01*
X77178Y94895D02*
X77213Y94860D01*
X47801D02*
Y95321D01*
X30190Y94825D02*
X30190Y94825D01*
X24272Y94860D02*
X24307Y94825D01*
X30119Y89850D02*
Y94118D01*
X30119Y89850D02*
Y94118D01*
X30119Y83131D02*
Y84450D01*
X30119Y83131D02*
X30154Y83095D01*
X30119Y83131D02*
X30119Y83131D01*
X30119Y84450D02*
X30119Y84450D01*
X94860Y94860D02*
X94895Y94825D01*
Y6958D02*
Y94825D01*
X94825Y6887D02*
X94895Y6958D01*
X94825Y6660D02*
Y6887D01*
X83060D02*
X83131Y6958D01*
X83060Y6660D02*
Y6887D01*
X71295D02*
X71366Y6958D01*
X71295Y6660D02*
Y6887D01*
X59566Y6625D02*
X59601Y6660D01*
X53684Y6958D02*
X53850Y6791D01*
X53684Y83095D02*
Y88978D01*
Y59566D02*
Y65448D01*
Y53684D02*
Y59566D01*
Y47801D02*
Y53684D01*
Y41919D02*
Y47801D01*
Y36037D02*
Y41919D01*
Y30154D02*
Y36037D01*
Y18390D02*
Y24272D01*
Y6625D02*
X53850Y6791D01*
X47766Y6660D02*
X47837Y6731D01*
X12507Y6625D02*
X12542Y6660D01*
X6625Y6625D02*
X6660Y6660D01*
X6625Y6660D02*
X6625Y6660D01*
X6625Y6625D02*
Y6660D01*
Y88978D02*
Y94860D01*
Y83095D02*
Y88978D01*
Y77213D02*
Y83095D01*
Y77213D02*
X6625Y71331D01*
Y30154D02*
X6625Y24272D01*
X3050Y69846D02*
X3085Y69881D01*
X-9475Y40835D02*
X-9235D01*
X46015Y16940D02*
X46316Y17241D01*
X-14075Y44250D02*
X-9685Y48640D01*
X-9290D01*
X-14075Y38300D02*
Y44250D01*
Y38300D02*
X-4444Y28669D01*
X3263D01*
X-12375Y43015D02*
X-9290Y46100D01*
X-12375Y38875D02*
Y43015D01*
Y38875D02*
X-8052Y34552D01*
X3263D01*
X67560Y40434D02*
X69846D01*
X-11075Y42950D02*
X-10465Y43560D01*
X-11075Y40025D02*
Y42950D01*
Y40025D02*
X-9000Y37950D01*
X-10465Y43560D02*
X-9290D01*
X-9000Y37950D02*
X-2650D01*
X-275Y40325D01*
X3050D01*
X-9475Y40835D02*
X-9290Y41020D01*
X4116Y52234D02*
X5105D01*
X3263Y51381D02*
X4116Y52234D01*
X-6750Y56260D02*
X-6485Y56525D01*
X14700Y11058D02*
X16869D01*
X16905Y11022D01*
X20550D02*
X22787D01*
X26535D02*
X28669D01*
X32271Y11058D02*
X32306Y11022D01*
X34552D01*
X38100D02*
X38135Y11058D01*
X40399D01*
X40434Y11022D01*
X44035Y11100D02*
X44078Y11058D01*
X46281D01*
X46316Y11022D01*
X49875Y10975D02*
X49958Y11058D01*
X52163D01*
X52199Y11022D01*
X55900D02*
X55935Y11058D01*
X58046D01*
X58081Y11022D01*
X32271Y5140D02*
X32306Y5175D01*
X34516D01*
X34552Y5140D01*
X26500Y5140D02*
Y5175D01*
X26500Y5175D01*
X28634D01*
X28669Y5140D01*
X20550Y5140D02*
X20585Y5175D01*
X22752D01*
X22787Y5140D01*
X14700D02*
X14735Y5175D01*
X16869D01*
X16905Y5140D01*
X38159Y5175D02*
X38159Y5175D01*
X40399D01*
X40434Y5140D01*
X44071Y5175D02*
X46281D01*
X46316Y5140D01*
X50176Y5175D02*
X52163D01*
X52199Y5140D01*
X55900Y5175D02*
X58046D01*
X58081Y5140D01*
X61800D02*
X61835Y5175D01*
X61800Y5140D02*
Y5175D01*
X61835D02*
X63928D01*
X63963Y5140D01*
X61834Y11100D02*
X61877Y11058D01*
X63928D01*
X63963Y11022D01*
X67525Y11100D02*
X67596D01*
X67638Y11058D01*
X69810D01*
X69846Y11022D01*
X73469Y11058D02*
X75693D01*
X75728Y11022D01*
X67525Y5140D02*
X67560Y5175D01*
X69810D01*
X69846Y5140D01*
X73447Y5175D02*
X75693D01*
X75728Y5140D01*
X79335Y5175D02*
X81575D01*
X81610Y5140D01*
X85200Y5175D02*
X85200Y5175D01*
X87457D01*
X87493Y5140D01*
X79300Y11022D02*
X79335Y11058D01*
X81575D01*
X81610Y11022D01*
X85318D02*
X85353Y11058D01*
X87457D01*
X87493Y11022D01*
X85200Y16905D02*
X85235Y16940D01*
X87457D01*
X87493Y16905D01*
X85282Y22787D02*
X85318Y22822D01*
X87457D01*
X87493Y22787D01*
X79300Y16905D02*
X79335Y16940D01*
X81575D01*
X81610Y16905D01*
X73412D02*
X75728D01*
X67525D02*
X67560Y16940D01*
X69810D01*
X69846Y16905D01*
X79300Y22787D02*
X79335Y22822D01*
X81575D01*
X81610Y22787D01*
X73412D02*
X73447Y22822D01*
X75693D01*
X75728Y22787D01*
X67525D02*
X67560Y22822D01*
X69810D01*
X69846Y22787D01*
X85200Y28669D02*
X85235Y28705D01*
X87457D01*
X87493Y28669D01*
X79300D02*
X79335Y28705D01*
X81575D01*
X81610Y28669D01*
X73434D02*
X73469Y28705D01*
X75693D01*
X75728Y28669D01*
X67525Y28705D02*
X67560Y28669D01*
X69846D01*
X85200Y34552D02*
X85235Y34587D01*
X87457D01*
X87493Y34552D01*
X79300D02*
X79335Y34587D01*
X81575D01*
X81610Y34552D01*
X73412D02*
X73447Y34587D01*
X75693D01*
X75728Y34552D01*
X69810Y34587D02*
X69846Y34552D01*
X67560D02*
X67596Y34587D01*
X69810D01*
X61800Y34552D02*
X63963D01*
X61834Y28705D02*
X63928D01*
X63963Y28669D01*
X61800Y22822D02*
X63928D01*
X63963Y22787D01*
X61800Y16940D02*
X63928D01*
X63963Y16905D01*
X55935Y16940D02*
X58046D01*
X58081Y16905D01*
X50176Y16940D02*
X50211Y16905D01*
X52199D01*
X46316Y17241D02*
X46350Y17275D01*
X44035Y16905D02*
X44071Y16940D01*
X46015D01*
X46316Y16905D02*
Y17241D01*
X38100Y16905D02*
X40434D01*
X55935Y22787D02*
X58081D01*
X50176Y22822D02*
X52163D01*
X52199Y22787D01*
X44035Y22822D02*
X46281D01*
X46316Y22787D01*
X38135Y22822D02*
X40399D01*
X40434Y22787D01*
X55900Y28705D02*
X58046D01*
X58081Y28669D01*
X50176Y28705D02*
X52163D01*
X52199Y28669D01*
X44035Y28705D02*
X46281D01*
X46316Y28669D01*
X38159Y28705D02*
X40399D01*
X40434Y28669D01*
X55935Y34587D02*
X58046D01*
X58081Y34552D01*
X50176Y34587D02*
X52163D01*
X52199Y34552D01*
X44035D02*
X46316D01*
X20562Y16940D02*
X22752D01*
X22787Y16905D01*
X14700Y16940D02*
X14735Y16905D01*
X16905D01*
X26500D02*
X28669D01*
X32235Y16940D02*
X32271Y16905D01*
X34552D01*
X32235Y22822D02*
X34516D01*
X34552Y22787D01*
X26535Y22822D02*
X28634D01*
X28669Y22787D01*
X20550Y22822D02*
X20585Y22787D01*
X22787D01*
X14735D02*
X16905D01*
X32200Y28669D02*
X32235Y28705D01*
X34516D01*
X34552Y28669D01*
X26500D02*
X26535Y28705D01*
X28634D01*
X28669Y28669D01*
X20562D02*
X20597Y28705D01*
X22752D01*
X22787Y28669D01*
X14700D02*
X14735Y28705D01*
X16869D01*
X16905Y28669D01*
X38100Y34587D02*
X38100Y34587D01*
X40399D01*
X40434Y34552D01*
X32200Y34587D02*
X32235Y34552D01*
X34552D01*
X26500D02*
X28669D01*
X20550D02*
X22787D01*
X14735D02*
X16905D01*
X14700Y40434D02*
X16905D01*
X20562D02*
X22787D01*
X26500Y40469D02*
X28634D01*
X28669Y40434D01*
X32200D02*
X34552D01*
X38100D02*
X40434D01*
X44000D02*
X46316D01*
X50230D02*
X52199D01*
X55935D02*
X58081D01*
X61800D02*
X63963D01*
X67560D02*
Y40469D01*
X73412Y40434D02*
X73447Y40469D01*
X75693D01*
X75728Y40434D01*
X79300D02*
X81610D01*
X85282Y40469D02*
X85318Y40434D01*
X87493D01*
X85200Y46316D02*
X85235Y46352D01*
X87457D01*
X87493Y46316D01*
X79300D02*
X79335Y46352D01*
X81575D01*
X81610Y46316D01*
X73412D02*
X73447Y46352D01*
X75693D01*
X75728Y46316D01*
X67525D02*
X67560Y46352D01*
X69810D01*
X69846Y46316D01*
X61800D02*
X61835Y46352D01*
X63928D01*
X63963Y46316D01*
X55900D02*
X55935Y46352D01*
X58046D01*
X58081Y46316D01*
X30119Y89013D02*
Y89850D01*
X30154Y94860D02*
X30190Y94825D01*
X30119Y89850D02*
X30119Y89850D01*
X88942Y72225D02*
X88942Y72225D01*
Y71366D02*
Y72225D01*
Y71366D02*
X88978Y71331D01*
X65413Y36750D02*
X65413Y36750D01*
Y36072D02*
Y36750D01*
Y36072D02*
X65448Y36037D01*
X77178Y36525D02*
X77213Y36490D01*
Y36037D02*
Y36490D01*
X30119Y47837D02*
X30154Y47801D01*
X30119Y47837D02*
X30119Y47837D01*
X30119Y48800D02*
X30119Y48800D01*
X30119Y47837D02*
Y48800D01*
X50176Y46316D02*
X50211Y46352D01*
X52163D01*
X52199Y46316D01*
X44000D02*
X44035Y46352D01*
X46281D01*
X46316Y46316D01*
X38100Y46352D02*
X38135Y46316D01*
X40434D01*
X32200D02*
X32235Y46352D01*
X34516D01*
X34552Y46316D01*
X26500D02*
X26535Y46352D01*
X28634D01*
X28669Y46316D01*
X20550D02*
X20585Y46352D01*
X22752D01*
X22787Y46316D01*
X14700D02*
X16905D01*
X85200Y52200D02*
X85234Y52234D01*
X87457D01*
X87493Y52199D01*
X79300Y52200D02*
X79334Y52234D01*
X81575D01*
X81610Y52199D01*
X73400Y52200D02*
X73434Y52234D01*
X75693D01*
X75728Y52199D01*
X67525Y52200D02*
X67559Y52234D01*
X69810D01*
X69846Y52199D01*
X61800Y52200D02*
X61834Y52234D01*
X63928D01*
X63963Y52199D01*
X55900Y52200D02*
X55934Y52234D01*
X58046D01*
X58081Y52199D01*
X49950Y52200D02*
X49984Y52234D01*
X52163D01*
X52199Y52199D01*
X44000Y52200D02*
X44034Y52234D01*
X46281D01*
X46316Y52199D01*
X38125Y52200D02*
X38159Y52234D01*
X40399D01*
X40434Y52199D01*
X32200Y52200D02*
X32234Y52234D01*
X34516D01*
X34552Y52199D01*
X26500Y52200D02*
X26534Y52234D01*
X28634D01*
X28669Y52199D01*
X20550Y52200D02*
X20584Y52234D01*
X22752D01*
X22787Y52199D01*
X14735D02*
X14771Y52234D01*
X16869D01*
X16905Y52199D01*
X85247Y63963D02*
X85282Y63999D01*
X87457D01*
X87493Y63963D01*
X79300D02*
X79335Y63999D01*
X81575D01*
X81610Y63963D01*
X73400D02*
X73435Y63999D01*
X75693D01*
X75728Y63963D01*
X67500D02*
X67535Y63999D01*
X69810D01*
X69846Y63963D01*
X61800D02*
X61835Y63999D01*
X63928D01*
X63963Y63963D01*
X55900D02*
X55935Y63999D01*
X58046D01*
X58081Y63963D01*
X85247Y58081D02*
X85282Y58116D01*
X87457D01*
X87493Y58081D01*
X79300D02*
X79335Y58116D01*
X81575D01*
X81610Y58081D01*
X73412Y58125D02*
X75684D01*
X75728Y58081D01*
X67525D02*
X67560Y58116D01*
X69810D01*
X69846Y58081D01*
X61800Y58116D02*
X63928D01*
X63963Y58081D01*
X55900D02*
X55935Y58116D01*
X58046D01*
X58081Y58081D01*
X49950D02*
X49985Y58116D01*
X52163D01*
X52199Y58081D01*
X44000D02*
X44035Y58116D01*
X46281D01*
X46316Y58081D01*
X49950Y63963D02*
X49985Y63999D01*
X52163D01*
X52199Y63963D01*
X44000D02*
X44035Y63999D01*
X46281D01*
X46316Y63963D01*
X41884Y94118D02*
X41954Y94188D01*
X40399Y63999D02*
X40434Y63963D01*
X38135Y63999D02*
X40399D01*
X38100Y63963D02*
X38135Y63999D01*
X65413Y94118D02*
X65484Y94188D01*
X77178Y94118D02*
X77248Y94188D01*
X88942Y94118D02*
X89013Y94188D01*
X91509Y58116D02*
X93340D01*
X91500Y58125D02*
X91509Y58116D01*
X91595Y40469D02*
X93340D01*
X8935D02*
X10987D01*
X91535Y34587D02*
X93340D01*
X10987D02*
X11022Y34552D01*
X8935Y34587D02*
X10987D01*
X91571Y22822D02*
X93340D01*
X8900Y22787D02*
X8935Y22822D01*
X91791Y16940D02*
X93340D01*
X32200Y63963D02*
X32235Y63999D01*
X34516D01*
X34552Y63963D01*
X85200Y69846D02*
X85235Y69881D01*
X87457D01*
X87493Y69846D01*
X79300D02*
X79335Y69881D01*
X81575D01*
X81610Y69846D01*
X73400D02*
X73435Y69881D01*
X75693D01*
X75728Y69846D01*
X67525D02*
X67560Y69881D01*
X69810D01*
X69846Y69846D01*
X61800D02*
X61835Y69881D01*
X63928D01*
X63963Y69846D01*
X55900D02*
X55935Y69881D01*
X58046D01*
X58081Y69846D01*
X50025D02*
X50060Y69881D01*
X52163D01*
X52199Y69846D01*
X44000D02*
X44035Y69881D01*
X46281D01*
X46316Y69846D01*
X38100D02*
X38135Y69881D01*
X40399D01*
X40434Y69846D01*
X32200D02*
X32235Y69881D01*
X34516D01*
X34552Y69846D01*
X85235Y75775D02*
X85247Y75763D01*
X87457D01*
X87493Y75728D01*
X79300Y75775D02*
X79312Y75763D01*
X81575D01*
X81610Y75728D01*
X73400Y75775D02*
X73412Y75763D01*
X75693D01*
X75728Y75728D01*
X67525Y75775D02*
X67537Y75763D01*
X69810D01*
X69846Y75728D01*
X61800Y75775D02*
X61812Y75763D01*
X63928D01*
X63963Y75728D01*
X55900Y75775D02*
X55912Y75763D01*
X58046D01*
X58081Y75728D01*
X49950Y75775D02*
X49962Y75763D01*
X52163D01*
X52199Y75728D01*
X44000Y75775D02*
X44012Y75763D01*
X46281D01*
X46316Y75728D01*
X38100Y75775D02*
X38112Y75763D01*
X40399D01*
X40434Y75728D01*
X32200Y75775D02*
X32212Y75763D01*
X34516D01*
X34552Y75728D01*
X36001Y6660D02*
X36037Y6625D01*
X38125Y58081D02*
X38160Y58116D01*
X40399D01*
X40434Y58081D01*
X32200D02*
X32235Y58116D01*
X34516D01*
X34552Y58081D01*
X26500D02*
X26535Y58116D01*
X28634D01*
X28669Y58081D01*
X20562D02*
X22787D01*
X14735D02*
X16905D01*
X26500Y63963D02*
X26535Y63999D01*
X28634D01*
X28669Y63963D01*
X26500Y69881D02*
X28634D01*
X28669Y69846D01*
X20550Y63963D02*
X20585Y63999D01*
X22752D01*
X22787Y63963D01*
X14700D02*
X14735Y63999D01*
X16869D01*
X16905Y63963D01*
X20550Y69846D02*
X20585Y69881D01*
X22752D01*
X22787Y69846D01*
X14700D02*
X14735Y69881D01*
X16869D01*
X16905Y69846D01*
X26500Y75775D02*
X26512Y75763D01*
X28634D01*
X28669Y75728D01*
X20550Y75775D02*
X20562Y75763D01*
X22752D01*
X22787Y75728D01*
X14700Y75775D02*
X14712Y75763D01*
X16869D01*
X16905Y75728D01*
X8900Y5140D02*
X8935Y5175D01*
X10987D01*
X11022Y5140D01*
X8900Y11022D02*
X8935Y11058D01*
X10987D01*
X11022Y11022D01*
X8900Y16905D02*
X8935Y16940D01*
X10987D01*
X11022Y16905D01*
X8935Y22822D02*
X10987D01*
X11022Y22787D01*
X8900Y28669D02*
X8935Y28705D01*
X10987D01*
X11022Y28669D01*
X8900Y34552D02*
X8935Y34587D01*
X8900Y40434D02*
X8935Y40469D01*
X10987D02*
X11022Y40434D01*
X8900Y46316D02*
X11022D01*
X8900Y52200D02*
X8934Y52234D01*
X10987D01*
X11022Y52199D01*
X8900Y58081D02*
X11022D01*
X8900Y63963D02*
X8935Y63999D01*
X10987D01*
X11022Y63963D01*
X8900Y69846D02*
X8935Y69881D01*
X10987D01*
X11022Y69846D01*
X8900Y75775D02*
X8912Y75763D01*
X10987D01*
X11022Y75728D01*
X85200Y81610D02*
X85235Y81646D01*
X87457D01*
X87493Y81610D01*
X79300D02*
X79335Y81646D01*
X81575D01*
X81610Y81610D01*
X73400D02*
X73435Y81646D01*
X75693D01*
X75728Y81610D01*
X67500D02*
X67535Y81646D01*
X69810D01*
X69846Y81610D01*
X61800D02*
X61835Y81646D01*
X63928D01*
X63963Y81610D01*
X85200Y87493D02*
X85235Y87528D01*
X87457D01*
X87493Y87493D01*
X79300D02*
X79335Y87528D01*
X81575D01*
X81610Y87493D01*
X73400D02*
X73435Y87528D01*
X75693D01*
X75728Y87493D01*
X67500Y87528D02*
X69810D01*
X69846Y87493D01*
X49950D02*
X49985Y87528D01*
X52163D01*
X52199Y87493D01*
X61800Y87528D02*
X63928D01*
X63963Y87493D01*
X55900D02*
X55935Y87528D01*
X58046D01*
X58081Y87493D01*
X55900Y81646D02*
X58046D01*
X58081Y81610D01*
X44000D02*
X44035Y81646D01*
X46281D01*
X46316Y81610D01*
X44000Y87493D02*
X44035Y87528D01*
X46281D01*
X46316Y87493D01*
X38100D02*
X38135Y87528D01*
X40399D01*
X40434Y87493D01*
X50000Y81610D02*
X50035Y81646D01*
X52163D01*
X52199Y81610D01*
X38100D02*
X38135Y81646D01*
X40399D01*
X40434Y81610D01*
X32200D02*
X32235Y81646D01*
X34516D01*
X34552Y81610D01*
X26500D02*
X26535Y81646D01*
X28634D01*
X28669Y81610D01*
X20550D02*
X20585Y81646D01*
X22752D01*
X22787Y81610D01*
X14700D02*
X14735Y81646D01*
X16869D01*
X16905Y81610D01*
X8900D02*
X8935Y81646D01*
X10987D01*
X11022Y81610D01*
X32200Y87493D02*
X32235Y87528D01*
X34516D01*
X34552Y87493D01*
X28634Y87528D02*
X28669Y87493D01*
X26500Y87528D02*
X28634D01*
X20550Y87493D02*
X20585Y87528D01*
X22752D01*
X22787Y87493D01*
X14700Y87528D02*
X16869D01*
X16905Y87493D01*
X8900D02*
X8935Y87528D01*
X10987D01*
X11022Y87493D01*
X3172Y5140D02*
X5140D01*
X91535D02*
X91571Y5175D01*
X93340D01*
X93375Y5140D01*
X91559Y11100D02*
X91602Y11058D01*
X93340D01*
X93375Y11022D01*
X3172D02*
X3207Y11058D01*
X5105D01*
X5140Y11022D01*
X91559Y17050D02*
X91681D01*
X91791Y16940D01*
X93340D02*
X93375Y16905D01*
X3172D02*
X3298D01*
X3333Y16940D01*
X5105D01*
X5140Y16905D01*
X3172Y22787D02*
X3207Y22822D01*
X5105D01*
X5140Y22787D01*
X91535D02*
X91571Y22822D01*
X93340D02*
X93375Y22787D01*
X91559Y28669D02*
X91595Y28705D01*
X93340D01*
X93375Y28669D01*
X3263D02*
X3298Y28705D01*
X5105D01*
X5140Y28669D01*
X91500Y34552D02*
X91535Y34587D01*
X93340D02*
X93375Y34552D01*
X3263D02*
X3298Y34587D01*
X5105D01*
X5140Y34552D01*
X3263Y46316D02*
X5140D01*
X3316Y40469D02*
X5105D01*
X5140Y40434D01*
X91559D02*
X91595Y40469D01*
X93340D02*
X93375Y40434D01*
X91535Y46400D02*
X91584Y46352D01*
X93340D01*
X93375Y46316D01*
X5105Y52234D02*
X5140Y52199D01*
X91500Y52200D02*
X91534Y52234D01*
X93340D01*
X93375Y52199D01*
X93340Y58116D02*
X93375Y58081D01*
X3121D02*
X5140D01*
X91535Y63975D02*
X91559Y63999D01*
X93340D01*
X93375Y63963D01*
X3085D02*
X3121Y63999D01*
X5105D01*
X5140Y63963D01*
X91535Y69875D02*
X91541Y69881D01*
X93340D01*
X93375Y69846D01*
X3085Y69881D02*
X5105D01*
X5140Y69846D01*
X91733Y75763D02*
X93340D01*
X93375Y75728D01*
X3050Y75775D02*
X3062Y75763D01*
X5105D01*
X5140Y75728D01*
X5105Y81646D02*
X5140Y81610D01*
X91535D02*
X93375D01*
X91500Y87493D02*
X91535Y87528D01*
X93340D01*
X93375Y87493D01*
X26500Y93411D02*
X28634D01*
X28669Y93375D01*
X20550Y93400D02*
X20561Y93411D01*
X22752D01*
X22787Y93375D01*
X14700Y93411D02*
X16869D01*
X16905Y93375D01*
X32200Y93400D02*
X32211Y93411D01*
X34516D01*
X34552Y93375D01*
X38100Y93411D02*
X40399D01*
X40434Y93375D01*
X44000Y93400D02*
X44011Y93411D01*
X46281D01*
X46316Y93375D01*
X50000Y93411D02*
X52163D01*
X52199Y93375D01*
X55900Y93400D02*
X55911Y93411D01*
X58046D01*
X58081Y93375D01*
X61800Y93411D02*
X63928D01*
X63963Y93375D01*
X67500Y93400D02*
X67510Y93411D01*
X69810D01*
X69846Y93375D01*
X73400Y93411D02*
X75693D01*
X75728Y93375D01*
X79300Y93411D02*
X81575D01*
X81610Y93375D01*
X85200Y93411D02*
X87457D01*
X87493Y93375D01*
X91500Y93400D02*
X91510Y93411D01*
X93340D01*
X93375Y93375D01*
X8900Y93400D02*
X8911Y93411D01*
X10987D01*
X11022Y93375D01*
X2900Y93400D02*
X2911Y93411D01*
X5105D01*
X5140Y93375D01*
X94825Y6660D02*
X94860Y6625D01*
X88978Y94860D02*
X89013Y94825D01*
Y94188D02*
Y94825D01*
X88942Y6660D02*
X88978Y6625D01*
X83060Y6660D02*
X83095Y6625D01*
X77213Y94860D02*
X77248Y94825D01*
Y94188D02*
Y94825D01*
X77178Y6660D02*
X77213Y6625D01*
X71295Y6660D02*
X71331Y6625D01*
Y94860D02*
X71366Y94825D01*
X65448Y94860D02*
X65484Y94825D01*
Y94188D02*
Y94825D01*
X65413Y6660D02*
X65448Y6625D01*
X59566Y94860D02*
X59601Y94825D01*
X53684Y88978D02*
Y94860D01*
Y24272D02*
Y30154D01*
X47766Y6660D02*
X47801Y6625D01*
Y94860D02*
X47837Y94825D01*
X41919Y94860D02*
X41954Y94825D01*
Y94188D02*
Y94825D01*
X41884Y6660D02*
X41919Y6625D01*
X30190Y94188D02*
Y94825D01*
X30119Y6660D02*
X30154Y6625D01*
X24237Y6660D02*
X24272Y6625D01*
X18354Y6660D02*
X18390Y6625D01*
D12*
X-7500Y85000D02*
D03*
X15000Y107500D02*
D03*
X107500Y15000D02*
D03*
X85000Y-7500D02*
D03*
D13*
X-6750Y58800D02*
D03*
D14*
X-9290Y56260D02*
D03*
Y53720D02*
D03*
Y51180D02*
D03*
Y48640D02*
D03*
Y46100D02*
D03*
Y43560D02*
D03*
Y41020D02*
D03*
X-6750Y43560D02*
D03*
Y53720D02*
D03*
X-9290Y58800D02*
D03*
X-6750Y41020D02*
D03*
Y46100D02*
D03*
Y48640D02*
D03*
Y51180D02*
D03*
Y56260D02*
D03*
X56440Y106500D02*
D03*
X51360D02*
D03*
X48820D02*
D03*
X46280D02*
D03*
X41200D02*
D03*
X58980Y109040D02*
D03*
X53900Y106500D02*
D03*
X43740D02*
D03*
X41200Y109040D02*
D03*
X43740D02*
D03*
X46280D02*
D03*
X48820D02*
D03*
X51360D02*
D03*
X53900D02*
D03*
X56440D02*
D03*
D15*
X58980Y106500D02*
D03*
D16*
X4100Y86275D02*
D03*
X3550Y80000D02*
D03*
X50700Y115100D02*
D03*
X94825Y97372D02*
D03*
X68925Y114150D02*
D03*
X47500Y114125D02*
D03*
X88978Y99075D02*
D03*
X82975Y100427D02*
D03*
X77178Y101825D02*
D03*
X71075Y103550D02*
D03*
X69950Y106000D02*
D03*
X71450Y109275D02*
D03*
X18350Y99325D02*
D03*
X24125Y100675D02*
D03*
X30025Y102025D02*
D03*
X36072Y103300D02*
D03*
X39475Y104650D02*
D03*
X65625Y115100D02*
D03*
X12450Y97800D02*
D03*
X6575Y96600D02*
D03*
X3050Y69846D02*
D03*
X3263Y51381D02*
D03*
X14700Y11058D02*
D03*
X20550Y11022D02*
D03*
X26535D02*
D03*
X32271Y11058D02*
D03*
X38100Y11022D02*
D03*
X44035Y11100D02*
D03*
X49875Y10975D02*
D03*
X55900Y11022D02*
D03*
X32271Y5140D02*
D03*
X26500Y5140D02*
D03*
X20550D02*
D03*
X14700D02*
D03*
X38159Y5175D02*
D03*
X44071D02*
D03*
X50176D02*
D03*
X55900D02*
D03*
X61800D02*
D03*
X61834Y11100D02*
D03*
X67525D02*
D03*
X73469Y11058D02*
D03*
X67525Y5140D02*
D03*
X73447Y5175D02*
D03*
X79335D02*
D03*
X85200D02*
D03*
X79300Y11022D02*
D03*
X85318D02*
D03*
X85200Y16905D02*
D03*
X85282Y22787D02*
D03*
X79300Y16905D02*
D03*
X73412D02*
D03*
X67525D02*
D03*
X79300Y22787D02*
D03*
X73412D02*
D03*
X67525D02*
D03*
X85200Y28669D02*
D03*
X79300D02*
D03*
X73434D02*
D03*
X67525Y28705D02*
D03*
X85200Y34552D02*
D03*
X79300D02*
D03*
X73412D02*
D03*
X67560D02*
D03*
X61800D02*
D03*
X61834Y28705D02*
D03*
X61800Y22822D02*
D03*
Y16940D02*
D03*
X55935D02*
D03*
X50176D02*
D03*
X44035Y16905D02*
D03*
X38100D02*
D03*
X55935Y22787D02*
D03*
X50176Y22822D02*
D03*
X44035D02*
D03*
X38135D02*
D03*
X55900Y28705D02*
D03*
X50176D02*
D03*
X44035D02*
D03*
X38159D02*
D03*
X55935Y34587D02*
D03*
X50176D02*
D03*
X44035Y34552D02*
D03*
X20562Y16940D02*
D03*
X14700D02*
D03*
X26500Y16905D02*
D03*
X32235Y16940D02*
D03*
Y22822D02*
D03*
X26535D02*
D03*
X20550D02*
D03*
X14735Y22787D02*
D03*
X32200Y28669D02*
D03*
X26500D02*
D03*
X20562D02*
D03*
X14700D02*
D03*
X38100Y34587D02*
D03*
X32200D02*
D03*
X26500Y34552D02*
D03*
X20550D02*
D03*
X14735D02*
D03*
X14700Y40434D02*
D03*
X20562D02*
D03*
X26500Y40469D02*
D03*
X32200Y40434D02*
D03*
X38100D02*
D03*
X44000D02*
D03*
X50230D02*
D03*
X55935D02*
D03*
X61800D02*
D03*
X67560Y40469D02*
D03*
X73412Y40434D02*
D03*
X79300D02*
D03*
X85282Y40469D02*
D03*
X85200Y46316D02*
D03*
X79300D02*
D03*
X73412D02*
D03*
X67525D02*
D03*
X61800D02*
D03*
X55900D02*
D03*
X50176D02*
D03*
X44000D02*
D03*
X38100Y46352D02*
D03*
X32200Y46316D02*
D03*
X26500D02*
D03*
X20550D02*
D03*
X14700D02*
D03*
X85200Y52200D02*
D03*
X79300D02*
D03*
X73400D02*
D03*
X67525D02*
D03*
X61800D02*
D03*
X55900D02*
D03*
X49950D02*
D03*
X44000D02*
D03*
X38125D02*
D03*
X32200D02*
D03*
X26500D02*
D03*
X20550D02*
D03*
X14735Y52199D02*
D03*
X85247Y63963D02*
D03*
X79300D02*
D03*
X73400D02*
D03*
X67500D02*
D03*
X61800D02*
D03*
X55900D02*
D03*
X85247Y58081D02*
D03*
X79300D02*
D03*
X73412Y58125D02*
D03*
X67525Y58081D02*
D03*
X61800Y58116D02*
D03*
X55900Y58081D02*
D03*
X49950D02*
D03*
X44000D02*
D03*
X49950Y63963D02*
D03*
X44000D02*
D03*
X38100D02*
D03*
X32200D02*
D03*
X85200Y69846D02*
D03*
X79300D02*
D03*
X73400D02*
D03*
X67525D02*
D03*
X61800D02*
D03*
X55900D02*
D03*
X50025D02*
D03*
X44000D02*
D03*
X38100D02*
D03*
X32200D02*
D03*
X85235Y75775D02*
D03*
X79300D02*
D03*
X73400D02*
D03*
X67525D02*
D03*
X61800D02*
D03*
X55900D02*
D03*
X49950D02*
D03*
X44000D02*
D03*
X38100D02*
D03*
X32200D02*
D03*
X38125Y58081D02*
D03*
X32200D02*
D03*
X26500D02*
D03*
X20562D02*
D03*
X14735D02*
D03*
X26500Y63963D02*
D03*
Y69881D02*
D03*
X20550Y63963D02*
D03*
X14700D02*
D03*
X20550Y69846D02*
D03*
X14700D02*
D03*
X26500Y75775D02*
D03*
X20550D02*
D03*
X14700D02*
D03*
X8900Y5140D02*
D03*
Y11022D02*
D03*
Y16905D02*
D03*
Y22787D02*
D03*
Y28669D02*
D03*
Y34552D02*
D03*
Y40434D02*
D03*
Y46316D02*
D03*
Y52200D02*
D03*
Y58081D02*
D03*
Y63963D02*
D03*
Y69846D02*
D03*
Y75775D02*
D03*
X85200Y81610D02*
D03*
X79300D02*
D03*
X73400D02*
D03*
X67500D02*
D03*
X61800D02*
D03*
X85200Y87493D02*
D03*
X79300D02*
D03*
X73400D02*
D03*
X67500Y87528D02*
D03*
X49950Y87493D02*
D03*
X61800Y87528D02*
D03*
X55900Y87493D02*
D03*
Y81646D02*
D03*
X44000Y81610D02*
D03*
Y87493D02*
D03*
X38100D02*
D03*
X50000Y81610D02*
D03*
X38100D02*
D03*
X32200D02*
D03*
X26500D02*
D03*
X20550D02*
D03*
X14700D02*
D03*
X8900D02*
D03*
X32200Y87493D02*
D03*
X26500Y87528D02*
D03*
X20550Y87493D02*
D03*
X14700Y87528D02*
D03*
X8900Y87493D02*
D03*
X3172Y5140D02*
D03*
X91535D02*
D03*
X91559Y11100D02*
D03*
X3172Y11022D02*
D03*
X91559Y17050D02*
D03*
X3172Y16905D02*
D03*
Y22787D02*
D03*
X91535D02*
D03*
X91559Y28669D02*
D03*
X3263D02*
D03*
X91500Y34552D02*
D03*
X3263D02*
D03*
Y46316D02*
D03*
X3050Y40325D02*
D03*
X91559Y40434D02*
D03*
X91535Y46400D02*
D03*
X91500Y52200D02*
D03*
Y58125D02*
D03*
X3121Y58081D02*
D03*
X91535Y63975D02*
D03*
X3085Y63963D02*
D03*
X91535Y69875D02*
D03*
X91500Y75875D02*
D03*
X3050Y75775D02*
D03*
X91535Y81610D02*
D03*
X91500Y87493D02*
D03*
X26500Y93411D02*
D03*
X20550Y93400D02*
D03*
X14700Y93411D02*
D03*
X32200Y93400D02*
D03*
X38100Y93411D02*
D03*
X44000Y93400D02*
D03*
X50000Y93411D02*
D03*
X55900Y93400D02*
D03*
X61800Y93411D02*
D03*
X67500Y93400D02*
D03*
X73400Y93411D02*
D03*
X79300D02*
D03*
X85200D02*
D03*
X91500Y93400D02*
D03*
X2900D02*
D03*
X8900D02*
D03*
%TF.MD5,00f7b698df4740e07a8a80c59b249baf*%
M02*
