%TF.GenerationSoftware,Altium Limited,Altium Designer,19.1.6 (110)*%
G04 Layer_Color=16711935*
%FSLAX43Y43*%
%MOMM*%
%TF.FileFunction,Soldermask,Bot*%
%TF.Part,Single*%
G01*
G75*
%TA.AperFunction,WasherPad*%
%ADD12C,1.524*%
%TA.AperFunction,ComponentPad*%
%ADD13R,1.750X1.750*%
%ADD14C,1.750*%
%ADD15R,1.750X1.750*%
%TA.AperFunction,ViaPad*%
%ADD16C,1.000*%
D12*
X-7500Y85000D02*
D03*
X15000Y107500D02*
D03*
X107500Y15000D02*
D03*
X85000Y-7500D02*
D03*
D13*
X-6750Y58800D02*
D03*
D14*
X-9290Y56260D02*
D03*
Y53720D02*
D03*
Y51180D02*
D03*
Y48640D02*
D03*
Y46100D02*
D03*
Y43560D02*
D03*
Y41020D02*
D03*
X-6750Y43560D02*
D03*
Y53720D02*
D03*
X-9290Y58800D02*
D03*
X-6750Y41020D02*
D03*
Y46100D02*
D03*
Y48640D02*
D03*
Y51180D02*
D03*
Y56260D02*
D03*
X56440Y106500D02*
D03*
X51360D02*
D03*
X48820D02*
D03*
X46280D02*
D03*
X41200D02*
D03*
X58980Y109040D02*
D03*
X53900Y106500D02*
D03*
X43740D02*
D03*
X41200Y109040D02*
D03*
X43740D02*
D03*
X46280D02*
D03*
X48820D02*
D03*
X51360D02*
D03*
X53900D02*
D03*
X56440D02*
D03*
D15*
X58980Y106500D02*
D03*
D16*
X4100Y86275D02*
D03*
X3550Y80000D02*
D03*
X50700Y115100D02*
D03*
X94825Y97372D02*
D03*
X68925Y114150D02*
D03*
X47500Y114125D02*
D03*
X88978Y99075D02*
D03*
X82975Y100427D02*
D03*
X77178Y101825D02*
D03*
X71075Y103550D02*
D03*
X69950Y106000D02*
D03*
X71450Y109275D02*
D03*
X18350Y99325D02*
D03*
X24125Y100675D02*
D03*
X30025Y102025D02*
D03*
X36072Y103300D02*
D03*
X39475Y104650D02*
D03*
X65625Y115100D02*
D03*
X12450Y97800D02*
D03*
X6575Y96600D02*
D03*
X3050Y69846D02*
D03*
X3263Y51381D02*
D03*
X14700Y11058D02*
D03*
X20550Y11022D02*
D03*
X26535D02*
D03*
X32271Y11058D02*
D03*
X38100Y11022D02*
D03*
X44035Y11100D02*
D03*
X49875Y10975D02*
D03*
X55900Y11022D02*
D03*
X32271Y5140D02*
D03*
X26500Y5140D02*
D03*
X20550D02*
D03*
X14700D02*
D03*
X38159Y5175D02*
D03*
X44071D02*
D03*
X50176D02*
D03*
X55900D02*
D03*
X61800D02*
D03*
X61834Y11100D02*
D03*
X67525D02*
D03*
X73469Y11058D02*
D03*
X67525Y5140D02*
D03*
X73447Y5175D02*
D03*
X79335D02*
D03*
X85200D02*
D03*
X79300Y11022D02*
D03*
X85318D02*
D03*
X85200Y16905D02*
D03*
X85282Y22787D02*
D03*
X79300Y16905D02*
D03*
X73412D02*
D03*
X67525D02*
D03*
X79300Y22787D02*
D03*
X73412D02*
D03*
X67525D02*
D03*
X85200Y28669D02*
D03*
X79300D02*
D03*
X73434D02*
D03*
X67525Y28705D02*
D03*
X85200Y34552D02*
D03*
X79300D02*
D03*
X73412D02*
D03*
X67560D02*
D03*
X61800D02*
D03*
X61834Y28705D02*
D03*
X61800Y22822D02*
D03*
Y16940D02*
D03*
X55935D02*
D03*
X50176D02*
D03*
X44035Y16905D02*
D03*
X38100D02*
D03*
X55935Y22787D02*
D03*
X50176Y22822D02*
D03*
X44035D02*
D03*
X38135D02*
D03*
X55900Y28705D02*
D03*
X50176D02*
D03*
X44035D02*
D03*
X38159D02*
D03*
X55935Y34587D02*
D03*
X50176D02*
D03*
X44035Y34552D02*
D03*
X20562Y16940D02*
D03*
X14700D02*
D03*
X26500Y16905D02*
D03*
X32235Y16940D02*
D03*
Y22822D02*
D03*
X26535D02*
D03*
X20550D02*
D03*
X14735Y22787D02*
D03*
X32200Y28669D02*
D03*
X26500D02*
D03*
X20562D02*
D03*
X14700D02*
D03*
X38100Y34587D02*
D03*
X32200D02*
D03*
X26500Y34552D02*
D03*
X20550D02*
D03*
X14735D02*
D03*
X14700Y40434D02*
D03*
X20562D02*
D03*
X26500Y40469D02*
D03*
X32200Y40434D02*
D03*
X38100D02*
D03*
X44000D02*
D03*
X50230D02*
D03*
X55935D02*
D03*
X61800D02*
D03*
X67560Y40469D02*
D03*
X73412Y40434D02*
D03*
X79300D02*
D03*
X85282Y40469D02*
D03*
X85200Y46316D02*
D03*
X79300D02*
D03*
X73412D02*
D03*
X67525D02*
D03*
X61800D02*
D03*
X55900D02*
D03*
X50176D02*
D03*
X44000D02*
D03*
X38100Y46352D02*
D03*
X32200Y46316D02*
D03*
X26500D02*
D03*
X20550D02*
D03*
X14700D02*
D03*
X85200Y52200D02*
D03*
X79300D02*
D03*
X73400D02*
D03*
X67525D02*
D03*
X61800D02*
D03*
X55900D02*
D03*
X49950D02*
D03*
X44000D02*
D03*
X38125D02*
D03*
X32200D02*
D03*
X26500D02*
D03*
X20550D02*
D03*
X14735Y52199D02*
D03*
X85247Y63963D02*
D03*
X79300D02*
D03*
X73400D02*
D03*
X67500D02*
D03*
X61800D02*
D03*
X55900D02*
D03*
X85247Y58081D02*
D03*
X79300D02*
D03*
X73412Y58125D02*
D03*
X67525Y58081D02*
D03*
X61800Y58116D02*
D03*
X55900Y58081D02*
D03*
X49950D02*
D03*
X44000D02*
D03*
X49950Y63963D02*
D03*
X44000D02*
D03*
X38100D02*
D03*
X32200D02*
D03*
X85200Y69846D02*
D03*
X79300D02*
D03*
X73400D02*
D03*
X67525D02*
D03*
X61800D02*
D03*
X55900D02*
D03*
X50025D02*
D03*
X44000D02*
D03*
X38100D02*
D03*
X32200D02*
D03*
X85235Y75775D02*
D03*
X79300D02*
D03*
X73400D02*
D03*
X67525D02*
D03*
X61800D02*
D03*
X55900D02*
D03*
X49950D02*
D03*
X44000D02*
D03*
X38100D02*
D03*
X32200D02*
D03*
X38125Y58081D02*
D03*
X32200D02*
D03*
X26500D02*
D03*
X20562D02*
D03*
X14735D02*
D03*
X26500Y63963D02*
D03*
Y69881D02*
D03*
X20550Y63963D02*
D03*
X14700D02*
D03*
X20550Y69846D02*
D03*
X14700D02*
D03*
X26500Y75775D02*
D03*
X20550D02*
D03*
X14700D02*
D03*
X8900Y5140D02*
D03*
Y11022D02*
D03*
Y16905D02*
D03*
Y22787D02*
D03*
Y28669D02*
D03*
Y34552D02*
D03*
Y40434D02*
D03*
Y46316D02*
D03*
Y52200D02*
D03*
Y58081D02*
D03*
Y63963D02*
D03*
Y69846D02*
D03*
Y75775D02*
D03*
X85200Y81610D02*
D03*
X79300D02*
D03*
X73400D02*
D03*
X67500D02*
D03*
X61800D02*
D03*
X85200Y87493D02*
D03*
X79300D02*
D03*
X73400D02*
D03*
X67500Y87528D02*
D03*
X49950Y87493D02*
D03*
X61800Y87528D02*
D03*
X55900Y87493D02*
D03*
Y81646D02*
D03*
X44000Y81610D02*
D03*
Y87493D02*
D03*
X38100D02*
D03*
X50000Y81610D02*
D03*
X38100D02*
D03*
X32200D02*
D03*
X26500D02*
D03*
X20550D02*
D03*
X14700D02*
D03*
X8900D02*
D03*
X32200Y87493D02*
D03*
X26500Y87528D02*
D03*
X20550Y87493D02*
D03*
X14700Y87528D02*
D03*
X8900Y87493D02*
D03*
X3172Y5140D02*
D03*
X91535D02*
D03*
X91559Y11100D02*
D03*
X3172Y11022D02*
D03*
X91559Y17050D02*
D03*
X3172Y16905D02*
D03*
Y22787D02*
D03*
X91535D02*
D03*
X91559Y28669D02*
D03*
X3263D02*
D03*
X91500Y34552D02*
D03*
X3263D02*
D03*
Y46316D02*
D03*
X3050Y40325D02*
D03*
X91559Y40434D02*
D03*
X91535Y46400D02*
D03*
X91500Y52200D02*
D03*
Y58125D02*
D03*
X3121Y58081D02*
D03*
X91535Y63975D02*
D03*
X3085Y63963D02*
D03*
X91535Y69875D02*
D03*
X91500Y75875D02*
D03*
X3050Y75775D02*
D03*
X91535Y81610D02*
D03*
X91500Y87493D02*
D03*
X26500Y93411D02*
D03*
X20550Y93400D02*
D03*
X14700Y93411D02*
D03*
X32200Y93400D02*
D03*
X38100Y93411D02*
D03*
X44000Y93400D02*
D03*
X50000Y93411D02*
D03*
X55900Y93400D02*
D03*
X61800Y93411D02*
D03*
X67500Y93400D02*
D03*
X73400Y93411D02*
D03*
X79300D02*
D03*
X85200D02*
D03*
X91500Y93400D02*
D03*
X2900D02*
D03*
X8900D02*
D03*
%TF.MD5,5f1db3a14732861b79e259530f6d6e5a*%
M02*
