M48
;Layer_Color=9474304
;FILE_FORMAT=4:3
METRIC,LZ
;TYPE=PLATED
T1F00S00C0.350
T2F00S00C1.050
;TYPE=NON_PLATED
T3F00S00C3.400
%
T01
X0003172Y000514
X00089
X00147
Y0011058
X00089Y0011022
X0003172
Y0016905
X00089
X00147Y001694
X0020562
X002055Y0011022
Y000514
X00265
X0032271Y000514
Y0011058
X0026535Y0011022
X00265Y0016905
X0032235Y001694
X00381Y0016905
Y0011022
X0038159Y0005175
X0044071
X0044035Y00111
Y0016905
X0050176Y001694
X0049875Y0010975
X0050176Y0005175
X00559
Y0011022
X0055935Y001694
X00618
X0067525Y0016905
Y00111
X0061834
X00618Y0005175
X0067525Y000514
X0073447Y0005175
X0079335
X00852
X0085318Y0011022
X00852Y0016905
X00793
Y0011022
X0073469Y0011058
X0073412Y0016905
X0091559Y001705
Y00111
X0091535Y000514
Y0022787
X0091559Y0028669
X00915Y0034552
X0091559Y0040434
X0091535Y00464
X00915Y00522
Y0058125
X0085247Y0058081
X00852Y00522
X00852Y0046316
X00793
Y0040434
Y0034552
Y0028669
X0073434
X0073412Y0034552
X006756
X00618
X0061834Y0028705
X0067525
Y0022787
X00618Y0022822
X0055935Y0022787
X00559Y0028705
X0055935Y0034587
Y0040434
X00618
X006756Y0040469
X0067525Y0046316
X00618
Y00522
X0067525
X00734
X0073412Y0046316
Y0040434
X0085282Y0040469
X00852Y0034552
Y0028669
X0085282Y0022787
X00793
X0073412
X00793Y00522
Y0058081
X0073412Y0058125
X0067525Y0058081
X00618Y0058116
X00559Y0058081
Y00522
Y0046316
X0050176
X005023Y0040434
X0050176Y0034587
Y0028705
Y0022822
X0044035
Y0028705
Y0034552
X0044Y0040434
Y0046316
Y00522
X0038125
X00381Y0046352
Y0040434
Y0034587
X00322
X00265Y0034552
X00265Y0028669
X00322
X0032235Y0022822
X0026535
X002055
X0020562Y0028669
X002055Y0034552
X0020562Y0040434
X002055Y0046316
Y00522
X0020562Y0058081
X00265
X00322
Y00522
X00265
Y0046316
X00322
Y0040434
X00265Y0040469
X0038159Y0028705
X0038135Y0022822
X0038125Y0058081
X0044
X004995
Y00522
X0014735Y0052199
X00089Y00522
Y0058081
X0003121
X0003263Y0051381
Y0046316
X00089
X00147
Y0040434
X00089
Y0034552
X0003263
Y0028669
X00089
X00147
X0014735Y0034552
X0014735Y0022787
X00089
X0003172
X000305Y0040325
X0014735Y0058081
X00147Y0063963
X00089
X0003085
X000305Y0069846
X00089
X00147
Y0075775
X00089
Y008161
X00147
Y0087528
X00089Y0087493
Y00934
X0006575Y00966
X00029Y00934
X00041Y0086275
X000355Y008
X000305Y0075775
X00147Y0093411
X001245Y00978
X002055Y00934
Y0087493
Y008161
Y0075775
Y0069846
Y0063963
X00265
X00322
Y0069846
X00265Y0069881
Y0075775
X00322
Y008161
X00265
Y0087528
X00322Y0087493
X00381
Y008161
Y0075775
X0044
Y008161
Y0087493
Y00934
X00381Y0093411
X00322Y00934
X00265Y0093411
X005
X004995Y0087493
X005Y008161
X004995Y0075775
X0050025Y0069846
X004995Y0063963
X0044
Y0069846
X00381
Y0063963
X00559
Y0069846
X00618
X0067525
X00734
Y0063963
X00793
Y0069846
X00852
X0085247Y0063963
X0091535Y0063975
Y0069875
X00915Y0075875
X0091535Y008161
X00915Y0087493
Y00934
X00852Y0093411
X00793
X00734
X00675Y00934
X00618Y0093411
Y0087528
X00675
Y008161
X00618
Y0075775
X0067525
X00734
Y008161
Y0087493
X00793
Y008161
Y0075775
X0085235
X00852Y008161
Y0087493
X0088978Y0099075
X0094825Y0097372
X00559Y00934
Y0087493
Y0081646
Y0075775
X00618Y0063963
X00675
X0071075Y010355
X006995Y0106
X007145Y0109275
X0068925Y011415
X0065625Y01151
X0077178Y0101825
X0082975Y0100427
X00507Y01151
X00475Y0114125
X0039475Y010465
X0036072Y01033
X0030025Y0102025
X0024125Y0100675
X001835Y0099325
T02
X-000929Y004102
Y004356
Y00461
Y004864
Y005118
Y005372
Y005626
Y00588
X-000675
Y005626
Y005372
Y005118
Y004864
Y00461
Y004356
Y004102
X005644Y01065
Y010904
X005898
Y01065
X00539
X005136
X004882
X004628
X004374
X00412
Y010904
X004374
X004628
X004882
X005136
X00539
T03
X0085Y-00075
X01075Y0015
X-00075Y0085
X0015Y01075
M30
