%TF.GenerationSoftware,Altium Limited,Altium Designer,19.1.6 (110)*%
G04 Layer_Color=32896*
%FSLAX43Y43*%
%MOMM*%
%TF.FileFunction,Legend,Bot*%
%TF.Part,Single*%
G01*
G75*
%TA.AperFunction,NonConductor*%
%ADD17C,0.254*%
%ADD19C,0.250*%
%ADD20C,0.400*%
D17*
X-10362Y64712D02*
X-11195Y63462D01*
Y64712D02*
X-10362Y63462D01*
X-12445D02*
X-11612D01*
X-12445Y64295D01*
Y64504D01*
X-12237Y64712D01*
X-11820D01*
X-11612Y64504D01*
X39574Y114902D02*
X38741Y113653D01*
Y114902D02*
X39574Y113653D01*
X38325D02*
X37908D01*
X38116D01*
Y114902D01*
X38325Y114694D01*
D19*
X-2875Y58800D02*
G03*
X-2875Y58800I-125J0D01*
G01*
X59105Y102750D02*
G03*
X59105Y102750I-125J0D01*
G01*
D20*
X-3550Y37820D02*
Y62000D01*
X-12450Y37820D02*
X-3550D01*
X-12450D02*
Y62000D01*
X-3550D01*
X-4950Y58800D02*
X-3550Y59446D01*
X-4950Y58800D02*
X-3550Y58154D01*
Y59446D01*
X58334Y103300D02*
X59626D01*
X58334D02*
X58980Y104700D01*
X59626Y103300D01*
X62180D02*
Y112200D01*
X38000D02*
X62180D01*
X38000Y103300D02*
Y112200D01*
Y103300D02*
X62180D01*
%TF.MD5,f40c44f17df418eb542d9bbf70d2999b*%
M02*
