%TF.GenerationSoftware,Altium Limited,Altium Designer,24.7.2 (38)*%
G04 Layer_Color=255*
%FSLAX43Y43*%
%MOMM*%
%TF.SameCoordinates,F5F67F40-9F63-4A4E-9988-81B998343445*%
%TF.FilePolarity,Positive*%
%TF.FileFunction,Pads,Bot*%
%TF.Part,CustomerPanel*%
G01*
G75*
%TA.AperFunction,SMDPad,CuDef*%
G04:AMPARAMS|DCode=15|XSize=1.55mm|YSize=0.95mm|CornerRadius=0.238mm|HoleSize=0mm|Usage=FLASHONLY|Rotation=180.000|XOffset=0mm|YOffset=0mm|HoleType=Round|Shape=RoundedRectangle|*
%AMROUNDEDRECTD15*
21,1,1.550,0.475,0,0,180.0*
21,1,1.075,0.950,0,0,180.0*
1,1,0.475,-0.538,0.238*
1,1,0.475,0.538,0.238*
1,1,0.475,0.538,-0.238*
1,1,0.475,-0.538,-0.238*
%
%ADD15ROUNDEDRECTD15*%
G04:AMPARAMS|DCode=18|XSize=1.4mm|YSize=1.2mm|CornerRadius=0.15mm|HoleSize=0mm|Usage=FLASHONLY|Rotation=270.000|XOffset=0mm|YOffset=0mm|HoleType=Round|Shape=RoundedRectangle|*
%AMROUNDEDRECTD18*
21,1,1.400,0.900,0,0,270.0*
21,1,1.100,1.200,0,0,270.0*
1,1,0.300,-0.450,-0.550*
1,1,0.300,-0.450,0.550*
1,1,0.300,0.450,0.550*
1,1,0.300,0.450,-0.550*
%
%ADD18ROUNDEDRECTD18*%
G04:AMPARAMS|DCode=21|XSize=1.55mm|YSize=0.95mm|CornerRadius=0.238mm|HoleSize=0mm|Usage=FLASHONLY|Rotation=90.000|XOffset=0mm|YOffset=0mm|HoleType=Round|Shape=RoundedRectangle|*
%AMROUNDEDRECTD21*
21,1,1.550,0.475,0,0,90.0*
21,1,1.075,0.950,0,0,90.0*
1,1,0.475,0.238,0.538*
1,1,0.475,0.238,-0.538*
1,1,0.475,-0.238,-0.538*
1,1,0.475,-0.238,0.538*
%
%ADD21ROUNDEDRECTD21*%
G04:AMPARAMS|DCode=28|XSize=1.274mm|YSize=0.532mm|CornerRadius=0.266mm|HoleSize=0mm|Usage=FLASHONLY|Rotation=270.000|XOffset=0mm|YOffset=0mm|HoleType=Round|Shape=RoundedRectangle|*
%AMROUNDEDRECTD28*
21,1,1.274,0.000,0,0,270.0*
21,1,0.742,0.532,0,0,270.0*
1,1,0.532,0.000,-0.371*
1,1,0.532,0.000,0.371*
1,1,0.532,0.000,0.371*
1,1,0.532,0.000,-0.371*
%
%ADD28ROUNDEDRECTD28*%
%ADD29R,0.532X1.274*%
%ADD113R,2.800X2.800*%
%ADD119R,3.100X3.100*%
%TA.AperFunction,ComponentPad*%
%ADD127C,1.800*%
%ADD128R,1.800X1.800*%
%ADD129R,1.408X1.408*%
%ADD130C,1.408*%
%ADD131C,1.600*%
%ADD132R,1.600X1.600*%
%ADD133C,1.900*%
%ADD134C,1.651*%
%ADD135R,1.651X1.651*%
%ADD136C,3.200*%
%ADD137O,1.524X3.048*%
%ADD138C,2.000*%
%ADD139R,2.000X2.000*%
%ADD140C,2.500*%
%ADD141R,2.700X2.700*%
%ADD142C,2.700*%
%ADD143C,5.700*%
%ADD144C,2.100*%
G04:AMPARAMS|DCode=145|XSize=2.1mm|YSize=2.1mm|CornerRadius=0.525mm|HoleSize=0mm|Usage=FLASHONLY|Rotation=360.000|XOffset=0mm|YOffset=0mm|HoleType=Round|Shape=RoundedRectangle|*
%AMROUNDEDRECTD145*
21,1,2.100,1.050,0,0,360.0*
21,1,1.050,2.100,0,0,360.0*
1,1,1.050,0.525,-0.525*
1,1,1.050,-0.525,-0.525*
1,1,1.050,-0.525,0.525*
1,1,1.050,0.525,0.525*
%
%ADD145ROUNDEDRECTD145*%
G04:AMPARAMS|DCode=146|XSize=1.8mm|YSize=1.8mm|CornerRadius=0.45mm|HoleSize=0mm|Usage=FLASHONLY|Rotation=90.000|XOffset=0mm|YOffset=0mm|HoleType=Round|Shape=RoundedRectangle|*
%AMROUNDEDRECTD146*
21,1,1.800,0.900,0,0,90.0*
21,1,0.900,1.800,0,0,90.0*
1,1,0.900,0.450,0.450*
1,1,0.900,0.450,-0.450*
1,1,0.900,-0.450,-0.450*
1,1,0.900,-0.450,0.450*
%
%ADD146ROUNDEDRECTD146*%
%ADD147C,6.000*%
%ADD149C,1.524*%
%ADD150C,0.700*%
G04:AMPARAMS|DCode=152|XSize=1.4mm|YSize=1.4mm|CornerRadius=0.049mm|HoleSize=0mm|Usage=FLASHONLY|Rotation=180.000|XOffset=0mm|YOffset=0mm|HoleType=Round|Shape=RoundedRectangle|*
%AMROUNDEDRECTD152*
21,1,1.400,1.302,0,0,180.0*
21,1,1.302,1.400,0,0,180.0*
1,1,0.098,-0.651,0.651*
1,1,0.098,0.651,0.651*
1,1,0.098,0.651,-0.651*
1,1,0.098,-0.651,-0.651*
%
%ADD152ROUNDEDRECTD152*%
%ADD153C,1.400*%
G04:AMPARAMS|DCode=154|XSize=2.1mm|YSize=2.1mm|CornerRadius=0.525mm|HoleSize=0mm|Usage=FLASHONLY|Rotation=0.000|XOffset=0mm|YOffset=0mm|HoleType=Round|Shape=RoundedRectangle|*
%AMROUNDEDRECTD154*
21,1,2.100,1.050,0,0,0.0*
21,1,1.050,2.100,0,0,0.0*
1,1,1.050,0.525,-0.525*
1,1,1.050,-0.525,-0.525*
1,1,1.050,-0.525,0.525*
1,1,1.050,0.525,0.525*
%
%ADD154ROUNDEDRECTD154*%
%ADD155C,3.140*%
%ADD157C,2.172*%
G04:AMPARAMS|DCode=158|XSize=2.6mm|YSize=4.7mm|CornerRadius=1.3mm|HoleSize=0mm|Usage=FLASHONLY|Rotation=180.000|XOffset=0mm|YOffset=0mm|HoleType=Round|Shape=RoundedRectangle|*
%AMROUNDEDRECTD158*
21,1,2.600,2.100,0,0,180.0*
21,1,0.000,4.700,0,0,180.0*
1,1,2.600,0.000,1.050*
1,1,2.600,0.000,1.050*
1,1,2.600,0.000,-1.050*
1,1,2.600,0.000,-1.050*
%
%ADD158ROUNDEDRECTD158*%
%ADD159C,1.550*%
%ADD160R,1.550X1.550*%
%ADD161R,1.500X1.500*%
%ADD162C,1.500*%
%ADD163C,1.420*%
G04:AMPARAMS|DCode=164|XSize=1.42mm|YSize=1.42mm|CornerRadius=0.355mm|HoleSize=0mm|Usage=FLASHONLY|Rotation=180.000|XOffset=0mm|YOffset=0mm|HoleType=Round|Shape=RoundedRectangle|*
%AMROUNDEDRECTD164*
21,1,1.420,0.710,0,0,180.0*
21,1,0.710,1.420,0,0,180.0*
1,1,0.710,-0.355,0.355*
1,1,0.710,0.355,0.355*
1,1,0.710,0.355,-0.355*
1,1,0.710,-0.355,-0.355*
%
%ADD164ROUNDEDRECTD164*%
%ADD165C,3.450*%
%ADD166R,1.398X1.398*%
%ADD167C,1.398*%
%ADD168C,3.000*%
G04:AMPARAMS|DCode=169|XSize=1.6mm|YSize=1.6mm|CornerRadius=0.4mm|HoleSize=0mm|Usage=FLASHONLY|Rotation=360.000|XOffset=0mm|YOffset=0mm|HoleType=Round|Shape=RoundedRectangle|*
%AMROUNDEDRECTD169*
21,1,1.600,0.800,0,0,360.0*
21,1,0.800,1.600,0,0,360.0*
1,1,0.800,0.400,-0.400*
1,1,0.800,-0.400,-0.400*
1,1,0.800,-0.400,0.400*
1,1,0.800,0.400,0.400*
%
%ADD169ROUNDEDRECTD169*%
G04:AMPARAMS|DCode=170|XSize=1.6mm|YSize=1.6mm|CornerRadius=0.4mm|HoleSize=0mm|Usage=FLASHONLY|Rotation=270.000|XOffset=0mm|YOffset=0mm|HoleType=Round|Shape=RoundedRectangle|*
%AMROUNDEDRECTD170*
21,1,1.600,0.800,0,0,270.0*
21,1,0.800,1.600,0,0,270.0*
1,1,0.800,-0.400,-0.400*
1,1,0.800,-0.400,0.400*
1,1,0.800,0.400,0.400*
1,1,0.800,0.400,-0.400*
%
%ADD170ROUNDEDRECTD170*%
%ADD171C,1.222*%
%ADD172R,1.222X1.222*%
G04:AMPARAMS|DCode=173|XSize=1.5mm|YSize=1.5mm|CornerRadius=0.375mm|HoleSize=0mm|Usage=FLASHONLY|Rotation=360.000|XOffset=0mm|YOffset=0mm|HoleType=Round|Shape=RoundedRectangle|*
%AMROUNDEDRECTD173*
21,1,1.500,0.750,0,0,360.0*
21,1,0.750,1.500,0,0,360.0*
1,1,0.750,0.375,-0.375*
1,1,0.750,-0.375,-0.375*
1,1,0.750,-0.375,0.375*
1,1,0.750,0.375,0.375*
%
%ADD173ROUNDEDRECTD173*%
%ADD174C,2.950*%
%ADD175C,2.400*%
%ADD176R,2.400X2.400*%
%ADD177R,1.308X1.308*%
%ADD178C,1.308*%
G04:AMPARAMS|DCode=179|XSize=2.1mm|YSize=2.1mm|CornerRadius=0.315mm|HoleSize=0mm|Usage=FLASHONLY|Rotation=270.000|XOffset=0mm|YOffset=0mm|HoleType=Round|Shape=RoundedRectangle|*
%AMROUNDEDRECTD179*
21,1,2.100,1.470,0,0,270.0*
21,1,1.470,2.100,0,0,270.0*
1,1,0.630,-0.735,-0.735*
1,1,0.630,-0.735,0.735*
1,1,0.630,0.735,0.735*
1,1,0.630,0.735,-0.735*
%
%ADD179ROUNDEDRECTD179*%
G04:AMPARAMS|DCode=180|XSize=2mm|YSize=1.5mm|CornerRadius=0.3mm|HoleSize=0mm|Usage=FLASHONLY|Rotation=45.000|XOffset=0mm|YOffset=0mm|HoleType=Round|Shape=RoundedRectangle|*
%AMROUNDEDRECTD180*
21,1,2.000,0.900,0,0,45.0*
21,1,1.400,1.500,0,0,45.0*
1,1,0.600,0.813,0.177*
1,1,0.600,-0.177,-0.813*
1,1,0.600,-0.813,-0.177*
1,1,0.600,0.177,0.813*
%
%ADD180ROUNDEDRECTD180*%
G04:AMPARAMS|DCode=181|XSize=2mm|YSize=1.5mm|CornerRadius=0mm|HoleSize=0mm|Usage=FLASHONLY|Rotation=45.000|XOffset=0mm|YOffset=0mm|HoleType=Round|Shape=Round|*
%AMOVALD181*
21,1,0.500,1.500,0.000,0.000,45.0*
1,1,1.500,-0.177,-0.177*
1,1,1.500,0.177,0.177*
%
%ADD181OVALD181*%

G04:AMPARAMS|DCode=182|XSize=1.6mm|YSize=1.6mm|CornerRadius=0.32mm|HoleSize=0mm|Usage=FLASHONLY|Rotation=0.000|XOffset=0mm|YOffset=0mm|HoleType=Round|Shape=RoundedRectangle|*
%AMROUNDEDRECTD182*
21,1,1.600,0.960,0,0,0.0*
21,1,0.960,1.600,0,0,0.0*
1,1,0.640,0.480,-0.480*
1,1,0.640,-0.480,-0.480*
1,1,0.640,-0.480,0.480*
1,1,0.640,0.480,0.480*
%
%ADD182ROUNDEDRECTD182*%
%ADD183C,0.800*%
%ADD184O,1.150X1.800*%
%ADD185O,1.400X2.000*%
G04:AMPARAMS|DCode=186|XSize=2.4mm|YSize=2.4mm|CornerRadius=0.36mm|HoleSize=0mm|Usage=FLASHONLY|Rotation=270.000|XOffset=0mm|YOffset=0mm|HoleType=Round|Shape=RoundedRectangle|*
%AMROUNDEDRECTD186*
21,1,2.400,1.680,0,0,270.0*
21,1,1.680,2.400,0,0,270.0*
1,1,0.720,-0.840,-0.840*
1,1,0.720,-0.840,0.840*
1,1,0.720,0.840,0.840*
1,1,0.720,0.840,-0.840*
%
%ADD186ROUNDEDRECTD186*%
%ADD187C,1.980*%
%ADD188C,3.550*%
%ADD189C,2.390*%
%ADD190R,1.550X4.100*%
%ADD191R,1.300X3.550*%
%ADD192R,3.550X1.300*%
%TA.AperFunction,SMDPad,CuDef*%
%ADD197R,3.200X2.400*%
%TA.AperFunction,ComponentPad*%
%ADD198C,7.400*%
D15*
X212940Y223700D02*
D03*
Y226050D02*
D03*
D18*
X166250Y192375D02*
D03*
X164250D02*
D03*
Y197500D02*
D03*
X166250D02*
D03*
X164250Y195165D02*
D03*
X166250D02*
D03*
D21*
X166475Y189900D02*
D03*
X164125D02*
D03*
D28*
X160300Y195165D02*
D03*
X161250Y196835D02*
D03*
D29*
X162200Y195165D02*
D03*
D113*
X24526Y188484D02*
D03*
D119*
X99605Y185096D02*
D03*
D127*
X143500Y185000D02*
D03*
X222250Y188040D02*
D03*
Y185500D02*
D03*
Y182960D02*
D03*
Y180420D02*
D03*
Y177880D02*
D03*
X205900Y175750D02*
D03*
Y178290D02*
D03*
X188800Y52165D02*
D03*
X214400Y36400D02*
D03*
X188800Y19940D02*
D03*
Y36448D02*
D03*
X212900Y47340D02*
D03*
Y49880D02*
D03*
Y52420D02*
D03*
Y54960D02*
D03*
Y57500D02*
D03*
X188800Y59465D02*
D03*
Y45065D02*
D03*
D128*
X143500Y174840D02*
D03*
X222250Y175340D02*
D03*
X188800Y49625D02*
D03*
X214400Y38940D02*
D03*
X188800Y17400D02*
D03*
Y33908D02*
D03*
X212900Y60040D02*
D03*
X188800Y56925D02*
D03*
Y42525D02*
D03*
D129*
X161250Y202200D02*
D03*
D130*
Y187000D02*
D03*
X189250Y194600D02*
D03*
Y202200D02*
D03*
D131*
X237290Y213000D02*
D03*
X234750D02*
D03*
X233000Y238000D02*
D03*
X236810Y234190D02*
D03*
X233000Y224000D02*
D03*
X236810Y220190D02*
D03*
X233000Y252000D02*
D03*
X236810Y248190D02*
D03*
X66600Y58000D02*
D03*
X64060D02*
D03*
X56440D02*
D03*
X53900D02*
D03*
X51360D02*
D03*
X46280D02*
D03*
X43740D02*
D03*
X38660D02*
D03*
X33580D02*
D03*
X31040D02*
D03*
X36120D02*
D03*
X41200D02*
D03*
X48820D02*
D03*
X58980D02*
D03*
X61520D02*
D03*
X77000Y71800D02*
D03*
Y74340D02*
D03*
Y79420D02*
D03*
Y81960D02*
D03*
Y76880D02*
D03*
X49325Y221100D02*
D03*
X46785D02*
D03*
X41705D02*
D03*
X39165D02*
D03*
X44245D02*
D03*
X82775Y177340D02*
D03*
D132*
X232210Y213000D02*
D03*
D133*
X229190Y234190D02*
D03*
X236810Y241810D02*
D03*
X229190Y220190D02*
D03*
X236810Y227810D02*
D03*
X229190Y248190D02*
D03*
X236810Y255810D02*
D03*
D134*
X142430Y220110D02*
D03*
Y225190D02*
D03*
Y227730D02*
D03*
Y230270D02*
D03*
Y232810D02*
D03*
Y235350D02*
D03*
Y222650D02*
D03*
X119570D02*
D03*
Y235350D02*
D03*
Y232810D02*
D03*
Y230270D02*
D03*
Y227730D02*
D03*
Y225190D02*
D03*
Y220110D02*
D03*
X100840Y242890D02*
D03*
X98300D02*
D03*
X95760D02*
D03*
X93220D02*
D03*
X90680D02*
D03*
X88140D02*
D03*
X85600D02*
D03*
X100840Y265750D02*
D03*
X98300D02*
D03*
X95760D02*
D03*
X93220D02*
D03*
X90680D02*
D03*
X88140D02*
D03*
X85600D02*
D03*
X83060D02*
D03*
D135*
X142430Y237890D02*
D03*
X119570D02*
D03*
X83060Y242890D02*
D03*
D136*
X221980Y221960D02*
D03*
X151980D02*
D03*
Y261960D02*
D03*
X221980D02*
D03*
X216750Y130750D02*
D03*
X188274Y180750D02*
D03*
X218000Y169466D02*
D03*
X170488Y130616D02*
D03*
X191000Y208500D02*
D03*
X257000Y148500D02*
D03*
X174500Y10500D02*
D03*
X11000Y11000D02*
D03*
X174500Y113125D02*
D03*
X10500Y113500D02*
D03*
D137*
X177380Y221000D02*
D03*
X179920D02*
D03*
X182460D02*
D03*
X185000D02*
D03*
X187540D02*
D03*
X190080D02*
D03*
X192620D02*
D03*
X195160Y220960D02*
D03*
X197700Y221000D02*
D03*
X200240D02*
D03*
X202780D02*
D03*
X205320D02*
D03*
X207860D02*
D03*
X210400D02*
D03*
X212940D02*
D03*
X215480D02*
D03*
D138*
X232750Y180037D02*
D03*
X226250D02*
D03*
X232750Y184537D02*
D03*
X227500Y56700D02*
D03*
Y64300D02*
D03*
X232850Y42350D02*
D03*
X226350D02*
D03*
X232850Y46850D02*
D03*
D139*
X226250Y184537D02*
D03*
X226350Y46850D02*
D03*
D140*
X210700Y194600D02*
D03*
X149500Y188250D02*
D03*
X155500Y202450D02*
D03*
X143500D02*
D03*
X155500Y190250D02*
D03*
X143500D02*
D03*
D141*
X132000Y173000D02*
D03*
D142*
Y180000D02*
D03*
Y187000D02*
D03*
D143*
X124700Y160000D02*
D03*
Y200000D02*
D03*
D144*
X129410Y139850D02*
D03*
X125600D02*
D03*
X276500Y208500D02*
D03*
X273000D02*
D03*
X280000D02*
D03*
X283500D02*
D03*
X141315Y15500D02*
D03*
X144815D02*
D03*
X137815D02*
D03*
X134315D02*
D03*
X154315D02*
D03*
X157815D02*
D03*
X100840Y273000D02*
D03*
X10700Y232775D02*
D03*
Y229275D02*
D03*
Y225775D02*
D03*
X57000Y273075D02*
D03*
X60500D02*
D03*
X53500D02*
D03*
X50000D02*
D03*
X37325Y182500D02*
D03*
X102032Y153130D02*
D03*
X72632Y234949D02*
D03*
D145*
X121790Y139850D02*
D03*
X148315Y15500D02*
D03*
X161315D02*
D03*
X64000Y273075D02*
D03*
D146*
X205900Y173210D02*
D03*
D147*
X238000Y265000D02*
D03*
X121000D02*
D03*
Y131000D02*
D03*
X238000D02*
D03*
X279500Y221000D02*
D03*
X257000D02*
D03*
X279500Y130900D02*
D03*
X257000D02*
D03*
X22000Y57000D02*
D03*
Y17000D02*
D03*
X92000D02*
D03*
Y57000D02*
D03*
X172700Y17000D02*
D03*
Y107000D02*
D03*
X12000D02*
D03*
Y17000D02*
D03*
D149*
X266220Y101460D02*
D03*
X284000D02*
D03*
X281460D02*
D03*
X278920D02*
D03*
X276380D02*
D03*
X273840D02*
D03*
X271300D02*
D03*
X268760D02*
D03*
X284000Y104000D02*
D03*
X281460D02*
D03*
X278920D02*
D03*
X276380D02*
D03*
X273840D02*
D03*
X271300D02*
D03*
X268760D02*
D03*
X266220D02*
D03*
X221220Y104000D02*
D03*
X223760D02*
D03*
X226300D02*
D03*
X228840D02*
D03*
X231380D02*
D03*
X233920D02*
D03*
X236460D02*
D03*
X239000D02*
D03*
X221220Y101460D02*
D03*
X223760D02*
D03*
X226300D02*
D03*
X228840D02*
D03*
X231380D02*
D03*
X233920D02*
D03*
X236460D02*
D03*
X239000D02*
D03*
X284000Y10000D02*
D03*
X281460D02*
D03*
X278920D02*
D03*
X276380D02*
D03*
X273840D02*
D03*
X271300D02*
D03*
X268760D02*
D03*
X266220D02*
D03*
X284000Y12540D02*
D03*
X281460D02*
D03*
X278920D02*
D03*
X276380D02*
D03*
X273840D02*
D03*
X271300D02*
D03*
X268760D02*
D03*
X266220D02*
D03*
X239000Y10000D02*
D03*
X236460D02*
D03*
X233920D02*
D03*
X231380D02*
D03*
X228840D02*
D03*
X226300D02*
D03*
X223760D02*
D03*
X221220D02*
D03*
X239000Y12540D02*
D03*
X236460D02*
D03*
X233920D02*
D03*
X231380D02*
D03*
X228840D02*
D03*
X226300D02*
D03*
X223760D02*
D03*
X221220D02*
D03*
X283040Y70100D02*
D03*
X288120Y57600D02*
D03*
X285580D02*
D03*
X283040D02*
D03*
X280500D02*
D03*
X277960D02*
D03*
X275420D02*
D03*
Y70100D02*
D03*
X277960D02*
D03*
X280500D02*
D03*
X285580D02*
D03*
X288120D02*
D03*
X236600Y63200D02*
D03*
Y60660D02*
D03*
Y58120D02*
D03*
D150*
X301450Y49857D02*
D03*
Y45743D02*
D03*
D152*
X256000Y203500D02*
D03*
X275000Y178540D02*
D03*
D153*
X256000Y208580D02*
D03*
Y206040D02*
D03*
X275000Y173460D02*
D03*
Y176000D02*
D03*
D154*
X269500Y208500D02*
D03*
D155*
X269000Y182000D02*
D03*
Y171840D02*
D03*
D157*
X117500Y87000D02*
D03*
X171200D02*
D03*
X137000D02*
D03*
X158500D02*
D03*
X163850Y89540D02*
D03*
X129500Y69500D02*
D03*
X146015Y54500D02*
D03*
X142080Y89540D02*
D03*
X154780Y97600D02*
D03*
X142080D02*
D03*
X149700Y87000D02*
D03*
X142200Y78000D02*
D03*
X134580Y72040D02*
D03*
X129500Y78000D02*
D03*
X142200Y69500D02*
D03*
X122580Y98015D02*
D03*
X109880Y89540D02*
D03*
X104800Y87000D02*
D03*
X151095Y57040D02*
D03*
X158715Y54500D02*
D03*
X117500Y95475D02*
D03*
X130200D02*
D03*
D158*
X106250Y16400D02*
D03*
X117450D02*
D03*
D159*
X109350Y23900D02*
D03*
X111850D02*
D03*
X109350Y9400D02*
D03*
X114350D02*
D03*
D160*
Y23900D02*
D03*
D161*
X119620Y56711D02*
D03*
Y72371D02*
D03*
X119620Y40310D02*
D03*
D162*
X117080Y56711D02*
D03*
X114540D02*
D03*
X112000D02*
D03*
X109460D02*
D03*
X106920D02*
D03*
X104380D02*
D03*
X119620Y49091D02*
D03*
X117080D02*
D03*
X114540D02*
D03*
X112000D02*
D03*
X109460D02*
D03*
X106920D02*
D03*
X104380D02*
D03*
X117080Y72371D02*
D03*
X114540D02*
D03*
X112000D02*
D03*
X109460D02*
D03*
X106920D02*
D03*
X104380D02*
D03*
X119620Y64751D02*
D03*
X117080D02*
D03*
X114540D02*
D03*
X112000D02*
D03*
X109460D02*
D03*
X106920D02*
D03*
X104380D02*
D03*
X13885Y76000D02*
D03*
X16425D02*
D03*
X104380Y32690D02*
D03*
X106920D02*
D03*
X109460D02*
D03*
X112000D02*
D03*
X114540D02*
D03*
X117080D02*
D03*
X119620D02*
D03*
X104380Y40310D02*
D03*
X106920D02*
D03*
X109460D02*
D03*
X112000D02*
D03*
X114540D02*
D03*
X117080D02*
D03*
X11920Y145310D02*
D03*
X14460D02*
D03*
D163*
X63230Y103790D02*
D03*
X65730D02*
D03*
Y101790D02*
D03*
D164*
X63230D02*
D03*
D165*
X58460Y106500D02*
D03*
X70500D02*
D03*
D166*
X87754Y101847D02*
D03*
D167*
X85214D02*
D03*
D168*
X92834Y106927D02*
D03*
X82674D02*
D03*
D169*
X28500Y58000D02*
D03*
D170*
X77000Y84500D02*
D03*
X82775Y179880D02*
D03*
D171*
X31040Y63500D02*
D03*
X33580Y66040D02*
D03*
D172*
X31040Y68580D02*
D03*
D173*
X11345Y76000D02*
D03*
X17000Y145310D02*
D03*
D174*
X47000Y114500D02*
D03*
Y99000D02*
D03*
X22000Y114500D02*
D03*
X34500Y99000D02*
D03*
Y114500D02*
D03*
X22000Y99000D02*
D03*
D175*
X11652Y198675D02*
D03*
X19272D02*
D03*
X94728Y203755D02*
D03*
X102348D02*
D03*
X26400Y219190D02*
D03*
D176*
X11652Y203755D02*
D03*
X19272D02*
D03*
X94728Y198675D02*
D03*
X102348D02*
D03*
D177*
X98636Y235256D02*
D03*
D178*
X96636D02*
D03*
X94636D02*
D03*
X92636D02*
D03*
D179*
X10700Y236275D02*
D03*
D180*
X10022Y251853D02*
D03*
D181*
X11436Y250439D02*
D03*
X12850Y249025D02*
D03*
X14264Y247611D02*
D03*
X15678Y246197D02*
D03*
X17093Y244782D02*
D03*
X18507Y243368D02*
D03*
X19921Y241954D02*
D03*
X21335Y240540D02*
D03*
X22749Y239126D02*
D03*
X25578Y267410D02*
D03*
X26992Y265996D02*
D03*
X28406Y264581D02*
D03*
X29821Y263167D02*
D03*
X31235Y261753D02*
D03*
X32649Y260339D02*
D03*
X34063Y258924D02*
D03*
X35477Y257510D02*
D03*
X36892Y256096D02*
D03*
X38306Y254682D02*
D03*
D182*
X36625Y221100D02*
D03*
D183*
X100250Y130862D02*
D03*
X95250D02*
D03*
D184*
X93875Y128162D02*
D03*
X101625D02*
D03*
D185*
X94025Y131962D02*
D03*
X101475D02*
D03*
D186*
X26400Y214110D02*
D03*
D187*
X93110Y161000D02*
D03*
X20890D02*
D03*
D188*
X84730Y168870D02*
D03*
X29530Y153130D02*
D03*
D189*
X93110D02*
D03*
D190*
X21250Y132500D02*
D03*
D191*
X15000D02*
D03*
D192*
X18250Y127700D02*
D03*
D197*
X34895Y204480D02*
D03*
X80006Y201325D02*
D03*
D198*
X77000Y131000D02*
D03*
X31000D02*
D03*
X82750Y273000D02*
D03*
X31000Y272000D02*
D03*
X56821Y178500D02*
D03*
%TF.MD5,530ddd89cf837069adec38c8edcf4375*%
M02*
