%TF.GenerationSoftware,Altium Limited,Altium Designer,24.7.2 (38)*%
G04 Layer_Color=255*
%FSLAX43Y43*%
%MOMM*%
%TF.SameCoordinates,F5F67F40-9F63-4A4E-9988-81B998343445*%
%TF.FilePolarity,Positive*%
%TF.FileFunction,Pads,Top*%
%TF.Part,CustomerPanel*%
G01*
G75*
%TA.AperFunction,SMDPad,CuDef*%
%ADD10R,3.800X2.030*%
G04:AMPARAMS|DCode=11|XSize=2.06mm|YSize=6.4mm|CornerRadius=0.515mm|HoleSize=0mm|Usage=FLASHONLY|Rotation=90.000|XOffset=0mm|YOffset=0mm|HoleType=Round|Shape=RoundedRectangle|*
%AMROUNDEDRECTD11*
21,1,2.060,5.370,0,0,90.0*
21,1,1.030,6.400,0,0,90.0*
1,1,1.030,2.685,0.515*
1,1,1.030,2.685,-0.515*
1,1,1.030,-2.685,-0.515*
1,1,1.030,-2.685,0.515*
%
%ADD11ROUNDEDRECTD11*%
G04:AMPARAMS|DCode=12|XSize=1.4mm|YSize=1.2mm|CornerRadius=0.15mm|HoleSize=0mm|Usage=FLASHONLY|Rotation=360.000|XOffset=0mm|YOffset=0mm|HoleType=Round|Shape=RoundedRectangle|*
%AMROUNDEDRECTD12*
21,1,1.400,0.900,0,0,360.0*
21,1,1.100,1.200,0,0,360.0*
1,1,0.300,0.550,-0.450*
1,1,0.300,-0.550,-0.450*
1,1,0.300,-0.550,0.450*
1,1,0.300,0.550,0.450*
%
%ADD12ROUNDEDRECTD12*%
%ADD13R,0.300X1.475*%
%ADD14R,1.475X0.300*%
G04:AMPARAMS|DCode=15|XSize=1.55mm|YSize=0.95mm|CornerRadius=0.238mm|HoleSize=0mm|Usage=FLASHONLY|Rotation=180.000|XOffset=0mm|YOffset=0mm|HoleType=Round|Shape=RoundedRectangle|*
%AMROUNDEDRECTD15*
21,1,1.550,0.475,0,0,180.0*
21,1,1.075,0.950,0,0,180.0*
1,1,0.475,-0.538,0.238*
1,1,0.475,0.538,0.238*
1,1,0.475,0.538,-0.238*
1,1,0.475,-0.538,-0.238*
%
%ADD15ROUNDEDRECTD15*%
%ADD16R,2.030X3.800*%
G04:AMPARAMS|DCode=17|XSize=1.05mm|YSize=1.1mm|CornerRadius=0.263mm|HoleSize=0mm|Usage=FLASHONLY|Rotation=360.000|XOffset=0mm|YOffset=0mm|HoleType=Round|Shape=RoundedRectangle|*
%AMROUNDEDRECTD17*
21,1,1.050,0.575,0,0,360.0*
21,1,0.525,1.100,0,0,360.0*
1,1,0.525,0.263,-0.288*
1,1,0.525,-0.263,-0.288*
1,1,0.525,-0.263,0.288*
1,1,0.525,0.263,0.288*
%
%ADD17ROUNDEDRECTD17*%
G04:AMPARAMS|DCode=18|XSize=1.4mm|YSize=1.2mm|CornerRadius=0.15mm|HoleSize=0mm|Usage=FLASHONLY|Rotation=270.000|XOffset=0mm|YOffset=0mm|HoleType=Round|Shape=RoundedRectangle|*
%AMROUNDEDRECTD18*
21,1,1.400,0.900,0,0,270.0*
21,1,1.100,1.200,0,0,270.0*
1,1,0.300,-0.450,-0.550*
1,1,0.300,-0.450,0.550*
1,1,0.300,0.450,0.550*
1,1,0.300,0.450,-0.550*
%
%ADD18ROUNDEDRECTD18*%
%ADD19R,1.000X2.500*%
%ADD20R,1.250X1.220*%
G04:AMPARAMS|DCode=21|XSize=1.55mm|YSize=0.95mm|CornerRadius=0.238mm|HoleSize=0mm|Usage=FLASHONLY|Rotation=90.000|XOffset=0mm|YOffset=0mm|HoleType=Round|Shape=RoundedRectangle|*
%AMROUNDEDRECTD21*
21,1,1.550,0.475,0,0,90.0*
21,1,1.075,0.950,0,0,90.0*
1,1,0.475,0.238,0.538*
1,1,0.475,0.238,-0.538*
1,1,0.475,-0.238,-0.538*
1,1,0.475,-0.238,0.538*
%
%ADD21ROUNDEDRECTD21*%
%ADD22R,3.600X2.600*%
G04:AMPARAMS|DCode=23|XSize=1.9mm|YSize=0.6mm|CornerRadius=0.075mm|HoleSize=0mm|Usage=FLASHONLY|Rotation=180.000|XOffset=0mm|YOffset=0mm|HoleType=Round|Shape=RoundedRectangle|*
%AMROUNDEDRECTD23*
21,1,1.900,0.450,0,0,180.0*
21,1,1.750,0.600,0,0,180.0*
1,1,0.150,-0.875,0.225*
1,1,0.150,0.875,0.225*
1,1,0.150,0.875,-0.225*
1,1,0.150,-0.875,-0.225*
%
%ADD23ROUNDEDRECTD23*%
%ADD24R,2.100X5.600*%
%ADD25R,0.660X1.219*%
%ADD26R,0.900X2.500*%
%ADD27R,5.500X2.150*%
G04:AMPARAMS|DCode=28|XSize=1.274mm|YSize=0.532mm|CornerRadius=0.266mm|HoleSize=0mm|Usage=FLASHONLY|Rotation=270.000|XOffset=0mm|YOffset=0mm|HoleType=Round|Shape=RoundedRectangle|*
%AMROUNDEDRECTD28*
21,1,1.274,0.000,0,0,270.0*
21,1,0.742,0.532,0,0,270.0*
1,1,0.532,0.000,-0.371*
1,1,0.532,0.000,0.371*
1,1,0.532,0.000,0.371*
1,1,0.532,0.000,-0.371*
%
%ADD28ROUNDEDRECTD28*%
%ADD29R,0.532X1.274*%
G04:AMPARAMS|DCode=30|XSize=2.06mm|YSize=0.6mm|CornerRadius=0.075mm|HoleSize=0mm|Usage=FLASHONLY|Rotation=360.000|XOffset=0mm|YOffset=0mm|HoleType=Round|Shape=RoundedRectangle|*
%AMROUNDEDRECTD30*
21,1,2.060,0.450,0,0,360.0*
21,1,1.910,0.600,0,0,360.0*
1,1,0.150,0.955,-0.225*
1,1,0.150,-0.955,-0.225*
1,1,0.150,-0.955,0.225*
1,1,0.150,0.955,0.225*
%
%ADD30ROUNDEDRECTD30*%
%ADD31R,2.500X0.900*%
%ADD32R,3.500X1.600*%
G04:AMPARAMS|DCode=33|XSize=1.274mm|YSize=0.532mm|CornerRadius=0.266mm|HoleSize=0mm|Usage=FLASHONLY|Rotation=180.000|XOffset=0mm|YOffset=0mm|HoleType=Round|Shape=RoundedRectangle|*
%AMROUNDEDRECTD33*
21,1,1.274,0.000,0,0,180.0*
21,1,0.742,0.532,0,0,180.0*
1,1,0.532,-0.371,0.000*
1,1,0.532,0.371,0.000*
1,1,0.532,0.371,0.000*
1,1,0.532,-0.371,0.000*
%
%ADD33ROUNDEDRECTD33*%
%ADD34R,1.274X0.532*%
%ADD35R,0.850X0.600*%
%TA.AperFunction,BGAPad,CuDef*%
%ADD44R,0.700X0.700*%
%TA.AperFunction,SMDPad,CuDef*%
%ADD45R,0.900X1.500*%
G04:AMPARAMS|DCode=46|XSize=0.65mm|YSize=1.15mm|CornerRadius=0.163mm|HoleSize=0mm|Usage=FLASHONLY|Rotation=180.000|XOffset=0mm|YOffset=0mm|HoleType=Round|Shape=RoundedRectangle|*
%AMROUNDEDRECTD46*
21,1,0.650,0.825,0,0,180.0*
21,1,0.325,1.150,0,0,180.0*
1,1,0.325,-0.163,0.413*
1,1,0.325,0.163,0.413*
1,1,0.325,0.163,-0.413*
1,1,0.325,-0.163,-0.413*
%
%ADD46ROUNDEDRECTD46*%
%ADD47R,1.000X0.600*%
G04:AMPARAMS|DCode=48|XSize=1.05mm|YSize=1.1mm|CornerRadius=0.263mm|HoleSize=0mm|Usage=FLASHONLY|Rotation=90.000|XOffset=0mm|YOffset=0mm|HoleType=Round|Shape=RoundedRectangle|*
%AMROUNDEDRECTD48*
21,1,1.050,0.575,0,0,90.0*
21,1,0.525,1.100,0,0,90.0*
1,1,0.525,0.288,0.263*
1,1,0.525,0.288,-0.263*
1,1,0.525,-0.288,-0.263*
1,1,0.525,-0.288,0.263*
%
%ADD48ROUNDEDRECTD48*%
%ADD49R,1.473X0.279*%
%ADD50R,0.279X1.473*%
G04:AMPARAMS|DCode=51|XSize=1mm|YSize=1.05mm|CornerRadius=0.25mm|HoleSize=0mm|Usage=FLASHONLY|Rotation=90.000|XOffset=0mm|YOffset=0mm|HoleType=Round|Shape=RoundedRectangle|*
%AMROUNDEDRECTD51*
21,1,1.000,0.550,0,0,90.0*
21,1,0.500,1.050,0,0,90.0*
1,1,0.500,0.275,0.250*
1,1,0.500,0.275,-0.250*
1,1,0.500,-0.275,-0.250*
1,1,0.500,-0.275,0.250*
%
%ADD51ROUNDEDRECTD51*%
%ADD52R,2.400X6.170*%
%ADD53O,1.400X0.450*%
G04:AMPARAMS|DCode=54|XSize=1.35mm|YSize=0.4mm|CornerRadius=0.1mm|HoleSize=0mm|Usage=FLASHONLY|Rotation=180.000|XOffset=0mm|YOffset=0mm|HoleType=Round|Shape=RoundedRectangle|*
%AMROUNDEDRECTD54*
21,1,1.350,0.200,0,0,180.0*
21,1,1.150,0.400,0,0,180.0*
1,1,0.200,-0.575,0.100*
1,1,0.200,0.575,0.100*
1,1,0.200,0.575,-0.100*
1,1,0.200,-0.575,-0.100*
%
%ADD54ROUNDEDRECTD54*%
G04:AMPARAMS|DCode=55|XSize=1mm|YSize=1.05mm|CornerRadius=0.25mm|HoleSize=0mm|Usage=FLASHONLY|Rotation=360.000|XOffset=0mm|YOffset=0mm|HoleType=Round|Shape=RoundedRectangle|*
%AMROUNDEDRECTD55*
21,1,1.000,0.550,0,0,360.0*
21,1,0.500,1.050,0,0,360.0*
1,1,0.500,0.250,-0.275*
1,1,0.500,-0.250,-0.275*
1,1,0.500,-0.250,0.275*
1,1,0.500,0.250,0.275*
%
%ADD55ROUNDEDRECTD55*%
%ADD56O,0.250X1.600*%
%ADD57O,1.600X0.250*%
%ADD58R,2.700X2.700*%
%ADD59O,1.900X0.600*%
G04:AMPARAMS|DCode=60|XSize=1.9mm|YSize=1.9mm|CornerRadius=0.475mm|HoleSize=0mm|Usage=FLASHONLY|Rotation=180.000|XOffset=0mm|YOffset=0mm|HoleType=Round|Shape=RoundedRectangle|*
%AMROUNDEDRECTD60*
21,1,1.900,0.950,0,0,180.0*
21,1,0.950,1.900,0,0,180.0*
1,1,0.950,-0.475,0.475*
1,1,0.950,0.475,0.475*
1,1,0.950,0.475,-0.475*
1,1,0.950,-0.475,-0.475*
%
%ADD60ROUNDEDRECTD60*%
%ADD61R,0.240X0.600*%
%ADD62R,2.400X1.650*%
%ADD63R,1.000X3.400*%
%ADD64R,1.750X2.650*%
G04:AMPARAMS|DCode=65|XSize=2.6mm|YSize=1.5mm|CornerRadius=0.375mm|HoleSize=0mm|Usage=FLASHONLY|Rotation=180.000|XOffset=0mm|YOffset=0mm|HoleType=Round|Shape=RoundedRectangle|*
%AMROUNDEDRECTD65*
21,1,2.600,0.750,0,0,180.0*
21,1,1.850,1.500,0,0,180.0*
1,1,0.750,-0.925,0.375*
1,1,0.750,0.925,0.375*
1,1,0.750,0.925,-0.375*
1,1,0.750,-0.925,-0.375*
%
%ADD65ROUNDEDRECTD65*%
G04:AMPARAMS|DCode=66|XSize=1.524mm|YSize=0.578mm|CornerRadius=0.289mm|HoleSize=0mm|Usage=FLASHONLY|Rotation=270.000|XOffset=0mm|YOffset=0mm|HoleType=Round|Shape=RoundedRectangle|*
%AMROUNDEDRECTD66*
21,1,1.524,0.000,0,0,270.0*
21,1,0.946,0.578,0,0,270.0*
1,1,0.578,0.000,-0.473*
1,1,0.578,0.000,0.473*
1,1,0.578,0.000,0.473*
1,1,0.578,0.000,-0.473*
%
%ADD66ROUNDEDRECTD66*%
%ADD67R,0.578X1.524*%
%ADD68R,3.800X2.030*%
%ADD69R,0.900X0.800*%
%ADD70R,1.250X1.550*%
%ADD71R,1.550X1.250*%
%ADD72R,1.050X1.450*%
%ADD73R,2.500X1.700*%
%ADD74R,1.300X1.500*%
%ADD75R,0.800X0.900*%
%ADD76R,1.350X0.850*%
G04:AMPARAMS|DCode=77|XSize=0.6mm|YSize=1.7mm|CornerRadius=0.3mm|HoleSize=0mm|Usage=FLASHONLY|Rotation=270.000|XOffset=0mm|YOffset=0mm|HoleType=Round|Shape=RoundedRectangle|*
%AMROUNDEDRECTD77*
21,1,0.600,1.100,0,0,270.0*
21,1,0.000,1.700,0,0,270.0*
1,1,0.600,-0.550,0.000*
1,1,0.600,-0.550,0.000*
1,1,0.600,0.550,0.000*
1,1,0.600,0.550,0.000*
%
%ADD77ROUNDEDRECTD77*%
%ADD78R,1.550X1.300*%
%ADD79R,1.450X1.050*%
%ADD80R,0.900X0.800*%
%ADD81R,1.450X1.200*%
%ADD82R,0.950X1.400*%
%ADD83R,1.700X2.500*%
%ADD84R,1.350X1.550*%
G04:AMPARAMS|DCode=85|XSize=1.54mm|YSize=0.566mm|CornerRadius=0.283mm|HoleSize=0mm|Usage=FLASHONLY|Rotation=270.000|XOffset=0mm|YOffset=0mm|HoleType=Round|Shape=RoundedRectangle|*
%AMROUNDEDRECTD85*
21,1,1.540,0.000,0,0,270.0*
21,1,0.974,0.566,0,0,270.0*
1,1,0.566,0.000,-0.487*
1,1,0.566,0.000,0.487*
1,1,0.566,0.000,0.487*
1,1,0.566,0.000,-0.487*
%
%ADD85ROUNDEDRECTD85*%
%ADD86R,0.566X1.540*%
%ADD87R,0.800X0.900*%
%ADD88O,0.600X1.900*%
%ADD90R,1.400X1.500*%
G04:AMPARAMS|DCode=91|XSize=0.28mm|YSize=1.47mm|CornerRadius=0.042mm|HoleSize=0mm|Usage=FLASHONLY|Rotation=180.000|XOffset=0mm|YOffset=0mm|HoleType=Round|Shape=RoundedRectangle|*
%AMROUNDEDRECTD91*
21,1,0.280,1.386,0,0,180.0*
21,1,0.196,1.470,0,0,180.0*
1,1,0.084,-0.098,0.693*
1,1,0.084,0.098,0.693*
1,1,0.084,0.098,-0.693*
1,1,0.084,-0.098,-0.693*
%
%ADD91ROUNDEDRECTD91*%
G04:AMPARAMS|DCode=92|XSize=0.28mm|YSize=1.47mm|CornerRadius=0.042mm|HoleSize=0mm|Usage=FLASHONLY|Rotation=90.000|XOffset=0mm|YOffset=0mm|HoleType=Round|Shape=RoundedRectangle|*
%AMROUNDEDRECTD92*
21,1,0.280,1.386,0,0,90.0*
21,1,0.196,1.470,0,0,90.0*
1,1,0.084,0.693,0.098*
1,1,0.084,0.693,-0.098*
1,1,0.084,-0.693,-0.098*
1,1,0.084,-0.693,0.098*
%
%ADD92ROUNDEDRECTD92*%
%ADD93R,1.600X1.500*%
%ADD94R,1.500X1.400*%
G04:AMPARAMS|DCode=95|XSize=2mm|YSize=1.4mm|CornerRadius=0.28mm|HoleSize=0mm|Usage=FLASHONLY|Rotation=0.000|XOffset=0mm|YOffset=0mm|HoleType=Round|Shape=RoundedRectangle|*
%AMROUNDEDRECTD95*
21,1,2.000,0.840,0,0,0.0*
21,1,1.440,1.400,0,0,0.0*
1,1,0.560,0.720,-0.420*
1,1,0.560,-0.720,-0.420*
1,1,0.560,-0.720,0.420*
1,1,0.560,0.720,0.420*
%
%ADD95ROUNDEDRECTD95*%
%ADD96R,2.500X4.000*%
%ADD97R,2.000X5.500*%
%ADD98R,1.500X1.600*%
%ADD99R,0.560X0.950*%
%ADD100R,0.950X0.560*%
%TA.AperFunction,ConnectorPad*%
G04:AMPARAMS|DCode=101|XSize=0.45mm|YSize=1.3mm|CornerRadius=0.113mm|HoleSize=0mm|Usage=FLASHONLY|Rotation=0.000|XOffset=0mm|YOffset=0mm|HoleType=Round|Shape=RoundedRectangle|*
%AMROUNDEDRECTD101*
21,1,0.450,1.075,0,0,0.0*
21,1,0.225,1.300,0,0,0.0*
1,1,0.225,0.113,-0.538*
1,1,0.225,-0.113,-0.538*
1,1,0.225,-0.113,0.538*
1,1,0.225,0.113,0.538*
%
%ADD101ROUNDEDRECTD101*%
%TA.AperFunction,SMDPad,CuDef*%
G04:AMPARAMS|DCode=102|XSize=1.1mm|YSize=1.2mm|CornerRadius=0.22mm|HoleSize=0mm|Usage=FLASHONLY|Rotation=270.000|XOffset=0mm|YOffset=0mm|HoleType=Round|Shape=RoundedRectangle|*
%AMROUNDEDRECTD102*
21,1,1.100,0.760,0,0,270.0*
21,1,0.660,1.200,0,0,270.0*
1,1,0.440,-0.380,-0.330*
1,1,0.440,-0.380,0.330*
1,1,0.440,0.380,0.330*
1,1,0.440,0.380,-0.330*
%
%ADD102ROUNDEDRECTD102*%
%ADD103R,1.680X1.700*%
G04:AMPARAMS|DCode=104|XSize=2.005mm|YSize=0.594mm|CornerRadius=0.297mm|HoleSize=0mm|Usage=FLASHONLY|Rotation=90.000|XOffset=0mm|YOffset=0mm|HoleType=Round|Shape=RoundedRectangle|*
%AMROUNDEDRECTD104*
21,1,2.005,0.000,0,0,90.0*
21,1,1.411,0.594,0,0,90.0*
1,1,0.594,0.000,0.705*
1,1,0.594,0.000,-0.705*
1,1,0.594,0.000,-0.705*
1,1,0.594,0.000,0.705*
%
%ADD104ROUNDEDRECTD104*%
%ADD105R,0.594X2.005*%
%ADD106R,4.300X2.900*%
%ADD107R,0.650X1.060*%
G04:AMPARAMS|DCode=108|XSize=0.6mm|YSize=1.45mm|CornerRadius=0.051mm|HoleSize=0mm|Usage=FLASHONLY|Rotation=90.000|XOffset=0mm|YOffset=0mm|HoleType=Round|Shape=RoundedRectangle|*
%AMROUNDEDRECTD108*
21,1,0.600,1.348,0,0,90.0*
21,1,0.498,1.450,0,0,90.0*
1,1,0.102,0.674,0.249*
1,1,0.102,0.674,-0.249*
1,1,0.102,-0.674,-0.249*
1,1,0.102,-0.674,0.249*
%
%ADD108ROUNDEDRECTD108*%
G04:AMPARAMS|DCode=109|XSize=7.7mm|YSize=3.3mm|CornerRadius=0.825mm|HoleSize=0mm|Usage=FLASHONLY|Rotation=180.000|XOffset=0mm|YOffset=0mm|HoleType=Round|Shape=RoundedRectangle|*
%AMROUNDEDRECTD109*
21,1,7.700,1.650,0,0,180.0*
21,1,6.050,3.300,0,0,180.0*
1,1,1.650,-3.025,0.825*
1,1,1.650,3.025,0.825*
1,1,1.650,3.025,-0.825*
1,1,1.650,-3.025,-0.825*
%
%ADD109ROUNDEDRECTD109*%
%ADD110R,2.000X0.239*%
G04:AMPARAMS|DCode=111|XSize=2mm|YSize=0.239mm|CornerRadius=0.12mm|HoleSize=0mm|Usage=FLASHONLY|Rotation=0.000|XOffset=0mm|YOffset=0mm|HoleType=Round|Shape=RoundedRectangle|*
%AMROUNDEDRECTD111*
21,1,2.000,0.000,0,0,0.0*
21,1,1.761,0.239,0,0,0.0*
1,1,0.239,0.880,0.000*
1,1,0.239,-0.880,0.000*
1,1,0.239,-0.880,0.000*
1,1,0.239,0.880,0.000*
%
%ADD111ROUNDEDRECTD111*%
G04:AMPARAMS|DCode=112|XSize=0.239mm|YSize=2mm|CornerRadius=0.12mm|HoleSize=0mm|Usage=FLASHONLY|Rotation=0.000|XOffset=0mm|YOffset=0mm|HoleType=Round|Shape=RoundedRectangle|*
%AMROUNDEDRECTD112*
21,1,0.239,1.761,0,0,0.0*
21,1,0.000,2.000,0,0,0.0*
1,1,0.239,0.000,-0.880*
1,1,0.239,0.000,-0.880*
1,1,0.239,0.000,0.880*
1,1,0.239,0.000,0.880*
%
%ADD112ROUNDEDRECTD112*%
%ADD113R,2.800X2.800*%
%ADD114R,1.700X1.680*%
%ADD115R,2.800X1.500*%
%ADD116R,1.550X3.600*%
%ADD117R,0.956X1.556*%
%ADD118O,0.450X1.400*%
%ADD119R,3.100X3.100*%
G04:AMPARAMS|DCode=120|XSize=1.5mm|YSize=1.4mm|CornerRadius=0mm|HoleSize=0mm|Usage=FLASHONLY|Rotation=45.000|XOffset=0mm|YOffset=0mm|HoleType=Round|Shape=Rectangle|*
%AMROTATEDRECTD120*
4,1,4,-0.035,-1.025,-1.025,-0.035,0.035,1.025,1.025,0.035,-0.035,-1.025,0.0*
%
%ADD120ROTATEDRECTD120*%

G04:AMPARAMS|DCode=121|XSize=2mm|YSize=1.4mm|CornerRadius=0.28mm|HoleSize=0mm|Usage=FLASHONLY|Rotation=225.000|XOffset=0mm|YOffset=0mm|HoleType=Round|Shape=RoundedRectangle|*
%AMROUNDEDRECTD121*
21,1,2.000,0.840,0,0,225.0*
21,1,1.440,1.400,0,0,225.0*
1,1,0.560,-0.806,-0.212*
1,1,0.560,0.212,0.806*
1,1,0.560,0.806,0.212*
1,1,0.560,-0.212,-0.806*
%
%ADD121ROUNDEDRECTD121*%
%TA.AperFunction,ComponentPad*%
%ADD127C,1.800*%
%ADD128R,1.800X1.800*%
%ADD129R,1.408X1.408*%
%ADD130C,1.408*%
%ADD131C,1.600*%
%ADD132R,1.600X1.600*%
%ADD133C,1.900*%
%ADD134C,1.651*%
%ADD135R,1.651X1.651*%
%ADD136C,3.200*%
%ADD137O,1.524X3.048*%
%ADD138C,2.000*%
%ADD139R,2.000X2.000*%
%ADD140C,2.500*%
%ADD141R,2.700X2.700*%
%ADD142C,2.700*%
%ADD143C,5.700*%
%ADD144C,2.100*%
G04:AMPARAMS|DCode=145|XSize=2.1mm|YSize=2.1mm|CornerRadius=0.525mm|HoleSize=0mm|Usage=FLASHONLY|Rotation=360.000|XOffset=0mm|YOffset=0mm|HoleType=Round|Shape=RoundedRectangle|*
%AMROUNDEDRECTD145*
21,1,2.100,1.050,0,0,360.0*
21,1,1.050,2.100,0,0,360.0*
1,1,1.050,0.525,-0.525*
1,1,1.050,-0.525,-0.525*
1,1,1.050,-0.525,0.525*
1,1,1.050,0.525,0.525*
%
%ADD145ROUNDEDRECTD145*%
G04:AMPARAMS|DCode=146|XSize=1.8mm|YSize=1.8mm|CornerRadius=0.45mm|HoleSize=0mm|Usage=FLASHONLY|Rotation=90.000|XOffset=0mm|YOffset=0mm|HoleType=Round|Shape=RoundedRectangle|*
%AMROUNDEDRECTD146*
21,1,1.800,0.900,0,0,90.0*
21,1,0.900,1.800,0,0,90.0*
1,1,0.900,0.450,0.450*
1,1,0.900,0.450,-0.450*
1,1,0.900,-0.450,-0.450*
1,1,0.900,-0.450,0.450*
%
%ADD146ROUNDEDRECTD146*%
%ADD147C,6.000*%
%ADD149C,1.524*%
%ADD150C,0.700*%
G04:AMPARAMS|DCode=152|XSize=1.4mm|YSize=1.4mm|CornerRadius=0.049mm|HoleSize=0mm|Usage=FLASHONLY|Rotation=180.000|XOffset=0mm|YOffset=0mm|HoleType=Round|Shape=RoundedRectangle|*
%AMROUNDEDRECTD152*
21,1,1.400,1.302,0,0,180.0*
21,1,1.302,1.400,0,0,180.0*
1,1,0.098,-0.651,0.651*
1,1,0.098,0.651,0.651*
1,1,0.098,0.651,-0.651*
1,1,0.098,-0.651,-0.651*
%
%ADD152ROUNDEDRECTD152*%
%ADD153C,1.400*%
G04:AMPARAMS|DCode=154|XSize=2.1mm|YSize=2.1mm|CornerRadius=0.525mm|HoleSize=0mm|Usage=FLASHONLY|Rotation=0.000|XOffset=0mm|YOffset=0mm|HoleType=Round|Shape=RoundedRectangle|*
%AMROUNDEDRECTD154*
21,1,2.100,1.050,0,0,0.0*
21,1,1.050,2.100,0,0,0.0*
1,1,1.050,0.525,-0.525*
1,1,1.050,-0.525,-0.525*
1,1,1.050,-0.525,0.525*
1,1,1.050,0.525,0.525*
%
%ADD154ROUNDEDRECTD154*%
%ADD155C,3.140*%
%ADD157C,2.172*%
G04:AMPARAMS|DCode=158|XSize=2.6mm|YSize=4.7mm|CornerRadius=1.3mm|HoleSize=0mm|Usage=FLASHONLY|Rotation=180.000|XOffset=0mm|YOffset=0mm|HoleType=Round|Shape=RoundedRectangle|*
%AMROUNDEDRECTD158*
21,1,2.600,2.100,0,0,180.0*
21,1,0.000,4.700,0,0,180.0*
1,1,2.600,0.000,1.050*
1,1,2.600,0.000,1.050*
1,1,2.600,0.000,-1.050*
1,1,2.600,0.000,-1.050*
%
%ADD158ROUNDEDRECTD158*%
%ADD159C,1.550*%
%ADD160R,1.550X1.550*%
%ADD161R,1.500X1.500*%
%ADD162C,1.500*%
%ADD163C,1.420*%
G04:AMPARAMS|DCode=164|XSize=1.42mm|YSize=1.42mm|CornerRadius=0.355mm|HoleSize=0mm|Usage=FLASHONLY|Rotation=180.000|XOffset=0mm|YOffset=0mm|HoleType=Round|Shape=RoundedRectangle|*
%AMROUNDEDRECTD164*
21,1,1.420,0.710,0,0,180.0*
21,1,0.710,1.420,0,0,180.0*
1,1,0.710,-0.355,0.355*
1,1,0.710,0.355,0.355*
1,1,0.710,0.355,-0.355*
1,1,0.710,-0.355,-0.355*
%
%ADD164ROUNDEDRECTD164*%
%ADD165C,3.450*%
%ADD166R,1.398X1.398*%
%ADD167C,1.398*%
%ADD168C,3.000*%
G04:AMPARAMS|DCode=169|XSize=1.6mm|YSize=1.6mm|CornerRadius=0.4mm|HoleSize=0mm|Usage=FLASHONLY|Rotation=360.000|XOffset=0mm|YOffset=0mm|HoleType=Round|Shape=RoundedRectangle|*
%AMROUNDEDRECTD169*
21,1,1.600,0.800,0,0,360.0*
21,1,0.800,1.600,0,0,360.0*
1,1,0.800,0.400,-0.400*
1,1,0.800,-0.400,-0.400*
1,1,0.800,-0.400,0.400*
1,1,0.800,0.400,0.400*
%
%ADD169ROUNDEDRECTD169*%
G04:AMPARAMS|DCode=170|XSize=1.6mm|YSize=1.6mm|CornerRadius=0.4mm|HoleSize=0mm|Usage=FLASHONLY|Rotation=270.000|XOffset=0mm|YOffset=0mm|HoleType=Round|Shape=RoundedRectangle|*
%AMROUNDEDRECTD170*
21,1,1.600,0.800,0,0,270.0*
21,1,0.800,1.600,0,0,270.0*
1,1,0.800,-0.400,-0.400*
1,1,0.800,-0.400,0.400*
1,1,0.800,0.400,0.400*
1,1,0.800,0.400,-0.400*
%
%ADD170ROUNDEDRECTD170*%
%ADD171C,1.222*%
%ADD172R,1.222X1.222*%
G04:AMPARAMS|DCode=173|XSize=1.5mm|YSize=1.5mm|CornerRadius=0.375mm|HoleSize=0mm|Usage=FLASHONLY|Rotation=360.000|XOffset=0mm|YOffset=0mm|HoleType=Round|Shape=RoundedRectangle|*
%AMROUNDEDRECTD173*
21,1,1.500,0.750,0,0,360.0*
21,1,0.750,1.500,0,0,360.0*
1,1,0.750,0.375,-0.375*
1,1,0.750,-0.375,-0.375*
1,1,0.750,-0.375,0.375*
1,1,0.750,0.375,0.375*
%
%ADD173ROUNDEDRECTD173*%
%ADD174C,2.950*%
%ADD175C,2.400*%
%ADD176R,2.400X2.400*%
%ADD177R,1.308X1.308*%
%ADD178C,1.308*%
G04:AMPARAMS|DCode=179|XSize=2.1mm|YSize=2.1mm|CornerRadius=0.315mm|HoleSize=0mm|Usage=FLASHONLY|Rotation=270.000|XOffset=0mm|YOffset=0mm|HoleType=Round|Shape=RoundedRectangle|*
%AMROUNDEDRECTD179*
21,1,2.100,1.470,0,0,270.0*
21,1,1.470,2.100,0,0,270.0*
1,1,0.630,-0.735,-0.735*
1,1,0.630,-0.735,0.735*
1,1,0.630,0.735,0.735*
1,1,0.630,0.735,-0.735*
%
%ADD179ROUNDEDRECTD179*%
G04:AMPARAMS|DCode=180|XSize=2mm|YSize=1.5mm|CornerRadius=0.3mm|HoleSize=0mm|Usage=FLASHONLY|Rotation=45.000|XOffset=0mm|YOffset=0mm|HoleType=Round|Shape=RoundedRectangle|*
%AMROUNDEDRECTD180*
21,1,2.000,0.900,0,0,45.0*
21,1,1.400,1.500,0,0,45.0*
1,1,0.600,0.813,0.177*
1,1,0.600,-0.177,-0.813*
1,1,0.600,-0.813,-0.177*
1,1,0.600,0.177,0.813*
%
%ADD180ROUNDEDRECTD180*%
G04:AMPARAMS|DCode=181|XSize=2mm|YSize=1.5mm|CornerRadius=0mm|HoleSize=0mm|Usage=FLASHONLY|Rotation=45.000|XOffset=0mm|YOffset=0mm|HoleType=Round|Shape=Round|*
%AMOVALD181*
21,1,0.500,1.500,0.000,0.000,45.0*
1,1,1.500,-0.177,-0.177*
1,1,1.500,0.177,0.177*
%
%ADD181OVALD181*%

G04:AMPARAMS|DCode=182|XSize=1.6mm|YSize=1.6mm|CornerRadius=0.32mm|HoleSize=0mm|Usage=FLASHONLY|Rotation=0.000|XOffset=0mm|YOffset=0mm|HoleType=Round|Shape=RoundedRectangle|*
%AMROUNDEDRECTD182*
21,1,1.600,0.960,0,0,0.0*
21,1,0.960,1.600,0,0,0.0*
1,1,0.640,0.480,-0.480*
1,1,0.640,-0.480,-0.480*
1,1,0.640,-0.480,0.480*
1,1,0.640,0.480,0.480*
%
%ADD182ROUNDEDRECTD182*%
%ADD183C,0.800*%
%ADD184O,1.150X1.800*%
%ADD185O,1.400X2.000*%
G04:AMPARAMS|DCode=186|XSize=2.4mm|YSize=2.4mm|CornerRadius=0.36mm|HoleSize=0mm|Usage=FLASHONLY|Rotation=270.000|XOffset=0mm|YOffset=0mm|HoleType=Round|Shape=RoundedRectangle|*
%AMROUNDEDRECTD186*
21,1,2.400,1.680,0,0,270.0*
21,1,1.680,2.400,0,0,270.0*
1,1,0.720,-0.840,-0.840*
1,1,0.720,-0.840,0.840*
1,1,0.720,0.840,0.840*
1,1,0.720,0.840,-0.840*
%
%ADD186ROUNDEDRECTD186*%
%ADD187C,1.980*%
%ADD188C,3.550*%
%ADD189C,2.390*%
%ADD190R,1.550X4.100*%
%ADD191R,1.300X3.550*%
%ADD192R,3.550X1.300*%
D10*
X158000Y130300D02*
D03*
X205500Y129650D02*
D03*
X202500Y206680D02*
D03*
Y209925D02*
D03*
X207500D02*
D03*
Y206680D02*
D03*
X240250Y162000D02*
D03*
Y165500D02*
D03*
X198500Y162900D02*
D03*
X192024Y166000D02*
D03*
Y174000D02*
D03*
X192000Y144266D02*
D03*
X288900Y38810D02*
D03*
X304100Y37500D02*
D03*
X257000Y79800D02*
D03*
X303900Y41175D02*
D03*
X304400Y64300D02*
D03*
Y70100D02*
D03*
X304400Y61400D02*
D03*
X257000Y77000D02*
D03*
X304400Y67200D02*
D03*
X288900Y47805D02*
D03*
X288900Y41805D02*
D03*
X209600Y71000D02*
D03*
Y73985D02*
D03*
X288900Y44805D02*
D03*
X206029Y56000D02*
D03*
X206029Y53000D02*
D03*
X209600Y80000D02*
D03*
X209600Y77000D02*
D03*
X207700Y60040D02*
D03*
X280000Y193500D02*
D03*
X128500Y65011D02*
D03*
X151000Y46000D02*
D03*
X175500Y29000D02*
D03*
X52000Y8500D02*
D03*
X60000Y8504D02*
D03*
X43175Y8499D02*
D03*
X9500Y65936D02*
D03*
X81500Y8500D02*
D03*
X73015Y8501D02*
D03*
X128800Y86000D02*
D03*
X175500Y73675D02*
D03*
Y67030D02*
D03*
X167500Y98000D02*
D03*
X12000Y90003D02*
D03*
X21000Y8524D02*
D03*
X32496Y8500D02*
D03*
X175500Y44000D02*
D03*
X66500Y8500D02*
D03*
X89500Y8499D02*
D03*
X175500Y22000D02*
D03*
Y36500D02*
D03*
X92040Y173510D02*
D03*
X71626Y194925D02*
D03*
X50500Y131000D02*
D03*
X102662Y219598D02*
D03*
Y225517D02*
D03*
X102564Y230950D02*
D03*
D11*
X150033Y150333D02*
D03*
Y147383D02*
D03*
D12*
X241000Y225000D02*
D03*
Y223000D02*
D03*
X229000Y177500D02*
D03*
Y175500D02*
D03*
X231460Y177500D02*
D03*
Y175500D02*
D03*
X146500Y227750D02*
D03*
Y229750D02*
D03*
Y225000D02*
D03*
Y223000D02*
D03*
X241000Y251000D02*
D03*
Y253000D02*
D03*
Y237000D02*
D03*
Y239000D02*
D03*
X209307Y140556D02*
D03*
Y138556D02*
D03*
X158250Y169386D02*
D03*
Y167386D02*
D03*
X157750Y174611D02*
D03*
Y176611D02*
D03*
X160250D02*
D03*
Y174611D02*
D03*
X74190Y37950D02*
D03*
Y35950D02*
D03*
X32496Y20500D02*
D03*
Y18500D02*
D03*
X100500Y111500D02*
D03*
Y109500D02*
D03*
Y105000D02*
D03*
Y107000D02*
D03*
X90500Y96850D02*
D03*
Y98850D02*
D03*
X62500Y52950D02*
D03*
Y54950D02*
D03*
D13*
X222250Y207738D02*
D03*
X222750D02*
D03*
X223250D02*
D03*
X223750D02*
D03*
X224250D02*
D03*
X224750D02*
D03*
X225250D02*
D03*
X225750D02*
D03*
X226250D02*
D03*
X226750D02*
D03*
X227250D02*
D03*
X227750D02*
D03*
X228250D02*
D03*
X228750D02*
D03*
X229250D02*
D03*
X229750D02*
D03*
Y196262D02*
D03*
X229250D02*
D03*
X228750D02*
D03*
X228250D02*
D03*
X227750D02*
D03*
X227250D02*
D03*
X226750D02*
D03*
X226250D02*
D03*
X225750D02*
D03*
X225250D02*
D03*
X224750D02*
D03*
X224250D02*
D03*
X223750D02*
D03*
X223250D02*
D03*
X222750D02*
D03*
X222250D02*
D03*
D14*
X231738Y205750D02*
D03*
Y205250D02*
D03*
Y204750D02*
D03*
Y204250D02*
D03*
Y203750D02*
D03*
Y203250D02*
D03*
Y202750D02*
D03*
Y202250D02*
D03*
Y201750D02*
D03*
Y201250D02*
D03*
Y200750D02*
D03*
Y200250D02*
D03*
Y199750D02*
D03*
Y199250D02*
D03*
Y198750D02*
D03*
Y198250D02*
D03*
X220262D02*
D03*
Y198750D02*
D03*
Y199250D02*
D03*
Y199750D02*
D03*
Y200250D02*
D03*
Y200750D02*
D03*
Y201250D02*
D03*
Y201750D02*
D03*
Y202250D02*
D03*
Y202750D02*
D03*
Y203250D02*
D03*
Y203750D02*
D03*
Y204250D02*
D03*
Y204750D02*
D03*
Y205250D02*
D03*
Y205750D02*
D03*
D15*
X162492Y140731D02*
D03*
Y138381D02*
D03*
X237400Y183575D02*
D03*
Y185925D02*
D03*
X240000Y183575D02*
D03*
Y185925D02*
D03*
X224000Y191150D02*
D03*
Y193500D02*
D03*
X226250Y175341D02*
D03*
Y177691D02*
D03*
X235700Y198075D02*
D03*
Y200425D02*
D03*
Y204925D02*
D03*
Y202575D02*
D03*
X226750Y191150D02*
D03*
Y193500D02*
D03*
X214000Y189825D02*
D03*
Y192175D02*
D03*
X206807Y138362D02*
D03*
Y140712D02*
D03*
X187344Y170926D02*
D03*
Y168576D02*
D03*
X184750Y170926D02*
D03*
Y168576D02*
D03*
Y176006D02*
D03*
Y178356D02*
D03*
X182040Y158075D02*
D03*
Y160425D02*
D03*
X163125Y177086D02*
D03*
Y174736D02*
D03*
X168650Y177086D02*
D03*
Y174736D02*
D03*
X165875D02*
D03*
Y177086D02*
D03*
X165475Y169466D02*
D03*
Y167116D02*
D03*
X168250Y169466D02*
D03*
Y167116D02*
D03*
X170500Y159791D02*
D03*
Y157441D02*
D03*
X165475Y152341D02*
D03*
Y154691D02*
D03*
X168250Y152341D02*
D03*
Y154691D02*
D03*
X165475Y143966D02*
D03*
Y141616D02*
D03*
X168250Y143966D02*
D03*
Y141616D02*
D03*
Y138146D02*
D03*
Y135796D02*
D03*
X165430Y138146D02*
D03*
Y135796D02*
D03*
X162500Y150041D02*
D03*
Y147691D02*
D03*
X261000Y201150D02*
D03*
Y203500D02*
D03*
X60586Y70522D02*
D03*
Y68172D02*
D03*
X45000Y42500D02*
D03*
Y40150D02*
D03*
X112000Y74686D02*
D03*
Y77036D02*
D03*
X104000Y109500D02*
D03*
Y107150D02*
D03*
X81500Y98501D02*
D03*
Y96151D02*
D03*
X60000Y97291D02*
D03*
Y94941D02*
D03*
X157015Y45555D02*
D03*
Y47905D02*
D03*
X112000Y28150D02*
D03*
Y30500D02*
D03*
X11345Y85500D02*
D03*
Y83150D02*
D03*
X124500Y34850D02*
D03*
Y32500D02*
D03*
X68050Y76650D02*
D03*
Y79000D02*
D03*
X21500Y77150D02*
D03*
Y79500D02*
D03*
X77140Y40300D02*
D03*
Y37950D02*
D03*
D16*
X156600Y159100D02*
D03*
X172500Y180500D02*
D03*
X212000Y139631D02*
D03*
X194000Y158500D02*
D03*
X190963D02*
D03*
X192500Y132616D02*
D03*
X293300Y55400D02*
D03*
X202900Y42000D02*
D03*
X293117Y46300D02*
D03*
X241975Y67843D02*
D03*
X205785Y42000D02*
D03*
X46480Y260399D02*
D03*
X100125Y166446D02*
D03*
X100000Y172000D02*
D03*
X32693Y176500D02*
D03*
X57386Y262755D02*
D03*
X54567Y257687D02*
D03*
X47185Y244950D02*
D03*
X40124Y233276D02*
D03*
X28000Y145310D02*
D03*
X102330Y210855D02*
D03*
X94728Y210837D02*
D03*
X19272Y210855D02*
D03*
X11650D02*
D03*
X52791Y246750D02*
D03*
D17*
X234750Y178400D02*
D03*
Y176600D02*
D03*
X197600Y29200D02*
D03*
Y27400D02*
D03*
X252700Y65535D02*
D03*
Y67335D02*
D03*
X248500Y48597D02*
D03*
Y46797D02*
D03*
X251400Y65535D02*
D03*
Y67335D02*
D03*
X253000Y49022D02*
D03*
Y47222D02*
D03*
D18*
X233775Y172500D02*
D03*
X235775D02*
D03*
X233460Y191150D02*
D03*
X231460D02*
D03*
X233460Y193500D02*
D03*
X231460D02*
D03*
X177380Y217000D02*
D03*
X179380D02*
D03*
X197000Y129000D02*
D03*
X199000D02*
D03*
X188250Y127500D02*
D03*
X190250D02*
D03*
X206750Y133316D02*
D03*
X208750D02*
D03*
X193000Y171250D02*
D03*
X191000D02*
D03*
X193000Y168750D02*
D03*
X191000D02*
D03*
X184750Y173466D02*
D03*
X186750D02*
D03*
X197000Y131566D02*
D03*
X199000D02*
D03*
X207000Y148500D02*
D03*
X209000D02*
D03*
Y146000D02*
D03*
X207000D02*
D03*
X203250Y148000D02*
D03*
X201250D02*
D03*
X197500Y160250D02*
D03*
X199500D02*
D03*
X193000Y154691D02*
D03*
X191000D02*
D03*
X193000Y152151D02*
D03*
X191000D02*
D03*
Y149611D02*
D03*
X193000D02*
D03*
X191000Y147071D02*
D03*
X193000D02*
D03*
X161496Y155079D02*
D03*
X159496D02*
D03*
X160492Y157866D02*
D03*
X162492D02*
D03*
X162500Y160166D02*
D03*
X160500D02*
D03*
X159750Y179200D02*
D03*
X157750D02*
D03*
X162750Y169616D02*
D03*
X160750D02*
D03*
X162750Y167116D02*
D03*
X160750D02*
D03*
X199000Y145317D02*
D03*
X197000D02*
D03*
X194000Y140116D02*
D03*
X192000D02*
D03*
X194000Y137616D02*
D03*
X192000D02*
D03*
X184676Y141116D02*
D03*
X186676D02*
D03*
X184750Y153421D02*
D03*
X186750D02*
D03*
X160000Y140826D02*
D03*
X158000D02*
D03*
X160000Y138286D02*
D03*
X158000D02*
D03*
X160000Y150401D02*
D03*
X158000D02*
D03*
X160000Y147416D02*
D03*
X158000D02*
D03*
X66050Y64000D02*
D03*
X64050D02*
D03*
X95970Y80575D02*
D03*
X93970D02*
D03*
X97970Y77900D02*
D03*
X95970D02*
D03*
X88692Y75361D02*
D03*
X86692D02*
D03*
X47000Y46500D02*
D03*
X45000D02*
D03*
X60000Y37028D02*
D03*
X58000D02*
D03*
X104920Y43000D02*
D03*
X106920D02*
D03*
X124500Y29500D02*
D03*
X122500D02*
D03*
X119620D02*
D03*
X117620D02*
D03*
X55135Y97416D02*
D03*
X57135D02*
D03*
X76000Y109280D02*
D03*
X74000D02*
D03*
X136515Y54500D02*
D03*
X138515D02*
D03*
X136515Y51401D02*
D03*
X138515D02*
D03*
X155015Y51000D02*
D03*
X157015D02*
D03*
X136515Y57500D02*
D03*
X138515D02*
D03*
X17475Y93000D02*
D03*
X15475D02*
D03*
X154315Y21625D02*
D03*
X152315D02*
D03*
D19*
X238000Y180750D02*
D03*
X240500D02*
D03*
D20*
X233275Y169500D02*
D03*
X236225D02*
D03*
D21*
X233810Y186950D02*
D03*
X231460D02*
D03*
X223400Y211000D02*
D03*
X225750D02*
D03*
X215325Y201250D02*
D03*
X217675D02*
D03*
X209750Y187250D02*
D03*
X212100D02*
D03*
X206575Y135876D02*
D03*
X208925D02*
D03*
X196825Y134116D02*
D03*
X199175D02*
D03*
X206825Y151000D02*
D03*
X209175D02*
D03*
X203955Y157000D02*
D03*
X201605D02*
D03*
X203955Y142492D02*
D03*
X201605D02*
D03*
X196825Y148000D02*
D03*
X199175D02*
D03*
X199675Y157500D02*
D03*
X197325D02*
D03*
X186925Y158750D02*
D03*
X184575D02*
D03*
X186925Y156000D02*
D03*
X184575D02*
D03*
X196825Y142882D02*
D03*
X199175D02*
D03*
X188850Y136516D02*
D03*
X186500D02*
D03*
X188850Y133616D02*
D03*
X186500D02*
D03*
X184500Y143966D02*
D03*
X186850D02*
D03*
X168250Y159866D02*
D03*
X165900D02*
D03*
X168250Y157116D02*
D03*
X165900D02*
D03*
Y146366D02*
D03*
X168250D02*
D03*
X277350Y182000D02*
D03*
X275000D02*
D03*
X62976Y70891D02*
D03*
X65326D02*
D03*
X60000Y33800D02*
D03*
X57650D02*
D03*
X28850Y83001D02*
D03*
X26500D02*
D03*
X32496Y15500D02*
D03*
X34846D02*
D03*
X59500Y88831D02*
D03*
X57150D02*
D03*
X112000Y62500D02*
D03*
X114350D02*
D03*
X112000Y46500D02*
D03*
X114350D02*
D03*
X112000Y59000D02*
D03*
X114350D02*
D03*
Y42500D02*
D03*
X112000D02*
D03*
X18775Y70398D02*
D03*
X16425D02*
D03*
X17825Y90002D02*
D03*
X15475D02*
D03*
X79150Y20000D02*
D03*
X81500D02*
D03*
X42350Y32500D02*
D03*
X40000D02*
D03*
X82750Y29000D02*
D03*
X80400D02*
D03*
X47650Y78200D02*
D03*
X50000D02*
D03*
D22*
X229500Y166750D02*
D03*
Y137450D02*
D03*
D23*
X236085Y188635D02*
D03*
Y189905D02*
D03*
Y191175D02*
D03*
Y192445D02*
D03*
X240995D02*
D03*
Y191175D02*
D03*
Y189905D02*
D03*
Y188635D02*
D03*
X203955Y154846D02*
D03*
Y153576D02*
D03*
Y152306D02*
D03*
Y151036D02*
D03*
X199045D02*
D03*
Y152306D02*
D03*
Y153576D02*
D03*
Y154846D02*
D03*
X203955Y140521D02*
D03*
Y139251D02*
D03*
Y137981D02*
D03*
Y136711D02*
D03*
X199045D02*
D03*
Y137981D02*
D03*
Y139251D02*
D03*
Y140521D02*
D03*
D24*
X239750Y206250D02*
D03*
Y196750D02*
D03*
D25*
X211650Y189607D02*
D03*
X210700D02*
D03*
X209750D02*
D03*
Y191893D02*
D03*
X210700D02*
D03*
X211650D02*
D03*
D26*
X209000Y184000D02*
D03*
X205900D02*
D03*
X198900Y177000D02*
D03*
X202000D02*
D03*
X198900Y180250D02*
D03*
X202000D02*
D03*
D27*
Y190750D02*
D03*
Y194600D02*
D03*
D28*
X186022Y146235D02*
D03*
X185072Y147906D02*
D03*
D29*
X186972D02*
D03*
D30*
X182040Y176006D02*
D03*
Y174736D02*
D03*
Y173466D02*
D03*
Y172196D02*
D03*
Y170926D02*
D03*
Y169656D02*
D03*
Y168386D02*
D03*
Y167116D02*
D03*
X172760D02*
D03*
Y168386D02*
D03*
Y169656D02*
D03*
Y170926D02*
D03*
Y172196D02*
D03*
Y173466D02*
D03*
Y174736D02*
D03*
Y176006D02*
D03*
X182040Y155961D02*
D03*
Y154691D02*
D03*
Y153421D02*
D03*
Y152151D02*
D03*
Y150881D02*
D03*
Y149611D02*
D03*
Y148341D02*
D03*
Y147071D02*
D03*
X172760D02*
D03*
Y148341D02*
D03*
Y149611D02*
D03*
Y150881D02*
D03*
Y152151D02*
D03*
Y153421D02*
D03*
Y154691D02*
D03*
Y155961D02*
D03*
X182040Y144636D02*
D03*
Y143366D02*
D03*
Y142096D02*
D03*
Y140826D02*
D03*
Y139556D02*
D03*
Y138286D02*
D03*
Y137016D02*
D03*
Y135746D02*
D03*
X172760D02*
D03*
Y137016D02*
D03*
Y138286D02*
D03*
Y139556D02*
D03*
Y140826D02*
D03*
Y142096D02*
D03*
Y143366D02*
D03*
Y144636D02*
D03*
D31*
X197250Y194600D02*
D03*
Y191500D02*
D03*
X194000Y194600D02*
D03*
Y191500D02*
D03*
D32*
X196400Y185500D02*
D03*
X202000D02*
D03*
D33*
X188015Y130616D02*
D03*
X189685Y131566D02*
D03*
D34*
Y129666D02*
D03*
D35*
X156175Y135746D02*
D03*
X154825D02*
D03*
X156100Y150401D02*
D03*
X154750D02*
D03*
X156100Y147416D02*
D03*
X154750D02*
D03*
D44*
X292300Y79600D02*
D03*
Y80700D02*
D03*
Y81800D02*
D03*
X293400D02*
D03*
X294500D02*
D03*
Y80700D02*
D03*
Y79600D02*
D03*
X293400D02*
D03*
Y80700D02*
D03*
D45*
X299600Y72910D02*
D03*
X298100D02*
D03*
X296600D02*
D03*
X295100D02*
D03*
X293600D02*
D03*
X292100D02*
D03*
X290600D02*
D03*
X289100D02*
D03*
X287600D02*
D03*
Y90410D02*
D03*
X289100D02*
D03*
X290600D02*
D03*
X292100D02*
D03*
X293600D02*
D03*
X295100D02*
D03*
X296600D02*
D03*
X298100D02*
D03*
X299600D02*
D03*
D46*
X227400Y94625D02*
D03*
X229200D02*
D03*
X228300Y97175D02*
D03*
X223900Y94625D02*
D03*
X225700D02*
D03*
X224800Y97175D02*
D03*
X220400Y94625D02*
D03*
X222200D02*
D03*
X221300Y97175D02*
D03*
X213400Y94625D02*
D03*
X215200D02*
D03*
X214300Y97175D02*
D03*
X216900Y94625D02*
D03*
X218700D02*
D03*
X217800Y97175D02*
D03*
X230900Y94625D02*
D03*
X232700D02*
D03*
X231800Y97175D02*
D03*
X234400Y94625D02*
D03*
X236200D02*
D03*
X235300Y97175D02*
D03*
X237900Y94625D02*
D03*
X239700D02*
D03*
X238800Y97175D02*
D03*
X241400Y94625D02*
D03*
X243200D02*
D03*
X242300Y97175D02*
D03*
X244900Y94625D02*
D03*
X246700D02*
D03*
X245800Y97175D02*
D03*
X248400Y94625D02*
D03*
X250200D02*
D03*
X249300Y97175D02*
D03*
X251900Y94625D02*
D03*
X253700D02*
D03*
X252800Y97175D02*
D03*
X255400Y94625D02*
D03*
X257200D02*
D03*
X256300Y97175D02*
D03*
X206400Y94625D02*
D03*
X208200D02*
D03*
X207300Y97175D02*
D03*
X202900Y94625D02*
D03*
X204700D02*
D03*
X203800Y97175D02*
D03*
X209900Y94625D02*
D03*
X211700D02*
D03*
X210800Y97175D02*
D03*
X253300Y22875D02*
D03*
X251500D02*
D03*
X252400Y20325D02*
D03*
X274300Y22875D02*
D03*
X272500D02*
D03*
X273400Y20325D02*
D03*
X302300Y22875D02*
D03*
X300500D02*
D03*
X301400Y20325D02*
D03*
X298800Y22875D02*
D03*
X297000D02*
D03*
X297900Y20325D02*
D03*
X281300Y22875D02*
D03*
X279500D02*
D03*
X280400Y20325D02*
D03*
X284800Y22875D02*
D03*
X283000D02*
D03*
X283900Y20325D02*
D03*
X288300Y22875D02*
D03*
X286500D02*
D03*
X287400Y20325D02*
D03*
X291800Y22875D02*
D03*
X290000D02*
D03*
X290900Y20325D02*
D03*
X295300Y22875D02*
D03*
X293500D02*
D03*
X294400Y20325D02*
D03*
X277800Y22875D02*
D03*
X276000D02*
D03*
X276900Y20325D02*
D03*
X249800Y22875D02*
D03*
X248000D02*
D03*
X248900Y20325D02*
D03*
X269900D02*
D03*
X269000Y22875D02*
D03*
X270800D02*
D03*
X266400Y20325D02*
D03*
X265500Y22875D02*
D03*
X267300D02*
D03*
X262900Y20325D02*
D03*
X262000Y22875D02*
D03*
X263800D02*
D03*
X259400Y20325D02*
D03*
X258500Y22875D02*
D03*
X260300D02*
D03*
X255900Y20325D02*
D03*
X255000Y22875D02*
D03*
X256800D02*
D03*
D47*
X293625Y51050D02*
D03*
Y50100D02*
D03*
Y49150D02*
D03*
X296375D02*
D03*
Y50100D02*
D03*
Y51050D02*
D03*
D48*
X298900Y44413D02*
D03*
X297100D02*
D03*
X261300Y53225D02*
D03*
X263100D02*
D03*
X212200Y31600D02*
D03*
X210400D02*
D03*
X199400Y34600D02*
D03*
X197600D02*
D03*
X210400Y32900D02*
D03*
X212200D02*
D03*
X206300Y29500D02*
D03*
X208100D02*
D03*
X234750Y88700D02*
D03*
X232950D02*
D03*
X269650Y29300D02*
D03*
X271450D02*
D03*
X227000Y17500D02*
D03*
X228800D02*
D03*
X278020Y95900D02*
D03*
X279820D02*
D03*
X235500Y44300D02*
D03*
X237300D02*
D03*
X243000Y56700D02*
D03*
X241200D02*
D03*
X261400Y56747D02*
D03*
X263200D02*
D03*
X299600Y93166D02*
D03*
X297800D02*
D03*
X279700Y53600D02*
D03*
X277900D02*
D03*
X279700Y55100D02*
D03*
X277900D02*
D03*
D49*
X246137Y60700D02*
D03*
Y60200D02*
D03*
Y59700D02*
D03*
Y59200D02*
D03*
Y58700D02*
D03*
Y58200D02*
D03*
Y57700D02*
D03*
Y57200D02*
D03*
Y56700D02*
D03*
Y56200D02*
D03*
Y55700D02*
D03*
Y55200D02*
D03*
Y54700D02*
D03*
Y54200D02*
D03*
Y53700D02*
D03*
Y53200D02*
D03*
X257363D02*
D03*
Y53700D02*
D03*
Y54200D02*
D03*
Y54700D02*
D03*
Y55200D02*
D03*
Y55700D02*
D03*
Y56200D02*
D03*
Y56700D02*
D03*
Y57200D02*
D03*
Y57700D02*
D03*
Y58200D02*
D03*
Y58700D02*
D03*
Y59200D02*
D03*
Y59700D02*
D03*
Y60200D02*
D03*
Y60700D02*
D03*
D50*
X248000Y51337D02*
D03*
X248500D02*
D03*
X249000D02*
D03*
X249500D02*
D03*
X250000D02*
D03*
X250500D02*
D03*
X251000D02*
D03*
X251500D02*
D03*
X252000D02*
D03*
X252500D02*
D03*
X253000D02*
D03*
X253500D02*
D03*
X254000D02*
D03*
X254500D02*
D03*
X255000D02*
D03*
X255500D02*
D03*
Y62563D02*
D03*
X255000D02*
D03*
X254500D02*
D03*
X254000D02*
D03*
X253500D02*
D03*
X253000D02*
D03*
X252500D02*
D03*
X252000D02*
D03*
X251500D02*
D03*
X251000D02*
D03*
X250500D02*
D03*
X250000D02*
D03*
X249500D02*
D03*
X249000D02*
D03*
X248500D02*
D03*
X248000D02*
D03*
D51*
X223625Y19925D02*
D03*
X225375D02*
D03*
X235525Y45600D02*
D03*
X237275D02*
D03*
Y46850D02*
D03*
X235525D02*
D03*
X298875Y43213D02*
D03*
X297125D02*
D03*
X206350Y16600D02*
D03*
X204600D02*
D03*
X210150Y15300D02*
D03*
X208400D02*
D03*
X213950Y13800D02*
D03*
X212200D02*
D03*
X279783Y93875D02*
D03*
X281533D02*
D03*
X156515Y29000D02*
D03*
X158265D02*
D03*
X37246Y35500D02*
D03*
X35496D02*
D03*
X84350Y35000D02*
D03*
X82600D02*
D03*
X79750Y24500D02*
D03*
X81500D02*
D03*
X29476Y24500D02*
D03*
X31226D02*
D03*
X78650Y31500D02*
D03*
X80400D02*
D03*
D52*
X275000Y90300D02*
D03*
X230000Y23500D02*
D03*
D53*
X277950Y86075D02*
D03*
Y86725D02*
D03*
Y87375D02*
D03*
Y88025D02*
D03*
Y88675D02*
D03*
Y89325D02*
D03*
Y89975D02*
D03*
Y90625D02*
D03*
Y91275D02*
D03*
Y91925D02*
D03*
Y92575D02*
D03*
Y93225D02*
D03*
Y93875D02*
D03*
Y94525D02*
D03*
X272050Y86075D02*
D03*
Y86725D02*
D03*
Y87375D02*
D03*
Y88025D02*
D03*
Y88675D02*
D03*
Y89325D02*
D03*
Y89975D02*
D03*
Y90625D02*
D03*
Y91275D02*
D03*
Y91925D02*
D03*
Y92575D02*
D03*
Y93225D02*
D03*
Y93875D02*
D03*
Y94525D02*
D03*
X227050Y27725D02*
D03*
Y27075D02*
D03*
Y26425D02*
D03*
Y25775D02*
D03*
Y25125D02*
D03*
Y24475D02*
D03*
Y23825D02*
D03*
Y23175D02*
D03*
Y22525D02*
D03*
Y21875D02*
D03*
Y21225D02*
D03*
Y20575D02*
D03*
Y19925D02*
D03*
Y19275D02*
D03*
X232950Y27725D02*
D03*
Y27075D02*
D03*
Y26425D02*
D03*
Y25775D02*
D03*
Y25125D02*
D03*
Y24475D02*
D03*
Y23825D02*
D03*
Y23175D02*
D03*
Y22525D02*
D03*
Y21875D02*
D03*
Y21225D02*
D03*
Y20575D02*
D03*
Y19925D02*
D03*
Y19275D02*
D03*
D54*
X301225Y47150D02*
D03*
Y47800D02*
D03*
Y49100D02*
D03*
Y48450D02*
D03*
Y46500D02*
D03*
D55*
X202400Y32975D02*
D03*
Y31225D02*
D03*
X201200Y32975D02*
D03*
Y31225D02*
D03*
X204800Y32975D02*
D03*
Y31225D02*
D03*
X203500Y21875D02*
D03*
Y20125D02*
D03*
X194700Y58675D02*
D03*
Y56925D02*
D03*
Y51375D02*
D03*
Y49625D02*
D03*
Y44275D02*
D03*
Y42525D02*
D03*
X283300Y53225D02*
D03*
Y54975D02*
D03*
X284800Y53225D02*
D03*
Y54975D02*
D03*
X124000Y40250D02*
D03*
Y38500D02*
D03*
X76140Y27000D02*
D03*
Y25250D02*
D03*
X136500Y22950D02*
D03*
Y21200D02*
D03*
D56*
X200600Y24075D02*
D03*
X201100D02*
D03*
X201600D02*
D03*
X202100D02*
D03*
X202600D02*
D03*
Y28725D02*
D03*
X202100D02*
D03*
X201600D02*
D03*
X201100D02*
D03*
X200600D02*
D03*
D57*
X203925Y25400D02*
D03*
Y27400D02*
D03*
Y25900D02*
D03*
Y26400D02*
D03*
Y26900D02*
D03*
X199275D02*
D03*
Y26400D02*
D03*
Y25900D02*
D03*
Y25400D02*
D03*
Y27400D02*
D03*
D58*
X201600Y26400D02*
D03*
D59*
X269650Y45085D02*
D03*
Y43815D02*
D03*
Y42545D02*
D03*
Y41275D02*
D03*
Y40005D02*
D03*
Y38735D02*
D03*
Y37465D02*
D03*
Y36195D02*
D03*
Y34925D02*
D03*
Y33655D02*
D03*
Y32385D02*
D03*
Y31115D02*
D03*
X279150Y45085D02*
D03*
Y43815D02*
D03*
Y42545D02*
D03*
Y41275D02*
D03*
Y40005D02*
D03*
Y38735D02*
D03*
Y37465D02*
D03*
Y36195D02*
D03*
Y34925D02*
D03*
Y33655D02*
D03*
Y32385D02*
D03*
Y31115D02*
D03*
X234750Y72715D02*
D03*
Y73985D02*
D03*
Y75255D02*
D03*
Y76525D02*
D03*
Y77795D02*
D03*
Y79065D02*
D03*
Y80335D02*
D03*
Y81605D02*
D03*
Y82875D02*
D03*
Y84145D02*
D03*
Y85415D02*
D03*
Y86685D02*
D03*
X225250Y72715D02*
D03*
Y73985D02*
D03*
Y75255D02*
D03*
Y76525D02*
D03*
Y77795D02*
D03*
Y79065D02*
D03*
Y80335D02*
D03*
Y81605D02*
D03*
Y82875D02*
D03*
Y84145D02*
D03*
Y85415D02*
D03*
Y86685D02*
D03*
X53800Y75000D02*
D03*
Y75800D02*
D03*
Y76600D02*
D03*
Y77400D02*
D03*
Y78200D02*
D03*
Y79000D02*
D03*
Y79800D02*
D03*
Y80600D02*
D03*
Y81400D02*
D03*
Y82200D02*
D03*
Y83000D02*
D03*
X65200D02*
D03*
Y82200D02*
D03*
Y81400D02*
D03*
Y80600D02*
D03*
Y79800D02*
D03*
Y79000D02*
D03*
Y78200D02*
D03*
Y77400D02*
D03*
Y76600D02*
D03*
Y75800D02*
D03*
Y75000D02*
D03*
D60*
X303900Y43725D02*
D03*
Y51875D02*
D03*
Y46600D02*
D03*
Y49000D02*
D03*
D61*
X208300Y33500D02*
D03*
X207800D02*
D03*
X207300D02*
D03*
X206800D02*
D03*
X206300D02*
D03*
Y30700D02*
D03*
X206800D02*
D03*
X207300D02*
D03*
X207800D02*
D03*
X208300D02*
D03*
D62*
X207300Y32100D02*
D03*
D63*
X206500Y37100D02*
D03*
X208600D02*
D03*
D64*
X219500Y58550D02*
D03*
Y62850D02*
D03*
D65*
X206375Y21800D02*
D03*
Y18800D02*
D03*
X210175Y21800D02*
D03*
Y18800D02*
D03*
X213975Y21800D02*
D03*
Y18800D02*
D03*
D66*
X240650Y61940D02*
D03*
X239700Y63760D02*
D03*
D67*
X241600D02*
D03*
D68*
X262000Y211000D02*
D03*
X51700Y207130D02*
D03*
X46453Y210855D02*
D03*
X69038Y198675D02*
D03*
X67500Y131000D02*
D03*
X59000D02*
D03*
X42000D02*
D03*
X87075Y131237D02*
D03*
X12025Y217525D02*
D03*
X51315Y235525D02*
D03*
X19214Y225775D02*
D03*
Y229275D02*
D03*
D69*
X71500Y37950D02*
D03*
X69500Y37000D02*
D03*
Y38900D02*
D03*
X77000Y99451D02*
D03*
Y97551D02*
D03*
X79000Y98501D02*
D03*
X157015Y60130D02*
D03*
X159015Y61080D02*
D03*
Y59180D02*
D03*
D70*
X93970Y74400D02*
D03*
X91920D02*
D03*
X88692Y78500D02*
D03*
X86642D02*
D03*
D71*
X91920Y71500D02*
D03*
Y69450D02*
D03*
D72*
X160500Y29000D02*
D03*
X162350D02*
D03*
X57650Y54950D02*
D03*
X59500D02*
D03*
X134650Y25150D02*
D03*
X136500D02*
D03*
D73*
X161315Y22000D02*
D03*
X157315D02*
D03*
X9500Y99000D02*
D03*
X13500D02*
D03*
X144315Y22000D02*
D03*
X148315D02*
D03*
D74*
X117445Y43000D02*
D03*
X119395D02*
D03*
X76140Y30950D02*
D03*
X74190D02*
D03*
D75*
X41200Y42500D02*
D03*
X42150Y40500D02*
D03*
X40250D02*
D03*
X15475Y85500D02*
D03*
X16425Y83500D02*
D03*
X14525D02*
D03*
D76*
X100550Y40310D02*
D03*
Y41960D02*
D03*
X117620Y27000D02*
D03*
Y25350D02*
D03*
X87500Y96850D02*
D03*
Y98500D02*
D03*
D77*
X65250Y95300D02*
D03*
Y96250D02*
D03*
Y97200D02*
D03*
X68050D02*
D03*
Y96250D02*
D03*
Y95300D02*
D03*
D78*
X114950Y109500D02*
D03*
X107000D02*
D03*
X114950Y114000D02*
D03*
X107000D02*
D03*
D79*
X84376Y98501D02*
D03*
Y96651D02*
D03*
D80*
X66600Y54000D02*
D03*
X64600Y53050D02*
D03*
Y54950D02*
D03*
X139315Y22950D02*
D03*
Y21050D02*
D03*
X141315Y22000D02*
D03*
X43740Y178925D02*
D03*
Y180825D02*
D03*
X41740Y179875D02*
D03*
X88925Y181780D02*
D03*
Y179880D02*
D03*
X90925Y180830D02*
D03*
D81*
X55135Y99790D02*
D03*
Y101790D02*
D03*
D82*
X74000Y105500D02*
D03*
X75850D02*
D03*
D83*
X39910Y92505D02*
D03*
Y88505D02*
D03*
D84*
X12450Y95400D02*
D03*
X10500D02*
D03*
D85*
X23400Y83000D02*
D03*
X22450D02*
D03*
X21500D02*
D03*
Y85431D02*
D03*
X22450D02*
D03*
D86*
X23400D02*
D03*
D87*
X158265Y26525D02*
D03*
X156365D02*
D03*
X157315Y24525D02*
D03*
D88*
X29956Y27800D02*
D03*
X31226D02*
D03*
X32496D02*
D03*
X33766D02*
D03*
X35036D02*
D03*
X36306D02*
D03*
X37576D02*
D03*
X29956Y32500D02*
D03*
X31226D02*
D03*
X32496D02*
D03*
X33766D02*
D03*
X35036D02*
D03*
X36306D02*
D03*
X37576D02*
D03*
X55500Y84700D02*
D03*
X56300D02*
D03*
X57100D02*
D03*
X57900D02*
D03*
X58700D02*
D03*
X59500D02*
D03*
X60300D02*
D03*
X61100D02*
D03*
X61900D02*
D03*
X62700D02*
D03*
X63500D02*
D03*
Y73300D02*
D03*
X62700D02*
D03*
X61900D02*
D03*
X61100D02*
D03*
X60300D02*
D03*
X59500D02*
D03*
X58700D02*
D03*
X57900D02*
D03*
X57100D02*
D03*
X56300D02*
D03*
X55500D02*
D03*
D90*
X104498Y239028D02*
D03*
X102498D02*
D03*
X89661Y215265D02*
D03*
X87661D02*
D03*
X38124Y228904D02*
D03*
X40124D02*
D03*
X49315Y230445D02*
D03*
X51315D02*
D03*
X69453Y213323D02*
D03*
X71453D02*
D03*
X79371Y194925D02*
D03*
X81371D02*
D03*
X35530Y210855D02*
D03*
X33530D02*
D03*
X102580Y179025D02*
D03*
X100580D02*
D03*
X41740Y175884D02*
D03*
X43740D02*
D03*
X49630Y183250D02*
D03*
X51630D02*
D03*
X100600Y141734D02*
D03*
X98600D02*
D03*
X14003Y189364D02*
D03*
X16003D02*
D03*
X14004Y192500D02*
D03*
X16004D02*
D03*
X98950Y137990D02*
D03*
X100950D02*
D03*
X52791Y250663D02*
D03*
X50791D02*
D03*
X47180Y249248D02*
D03*
X45180D02*
D03*
X16001Y183500D02*
D03*
X14001D02*
D03*
Y186519D02*
D03*
X16001D02*
D03*
X30511Y185924D02*
D03*
X32511D02*
D03*
X30511Y188484D02*
D03*
X32511D02*
D03*
X90040Y184821D02*
D03*
X92040D02*
D03*
Y188171D02*
D03*
X90040D02*
D03*
D91*
X57750Y231170D02*
D03*
X58250D02*
D03*
X58750D02*
D03*
X59250D02*
D03*
X59750D02*
D03*
X60250D02*
D03*
X60750D02*
D03*
X61250D02*
D03*
X61750D02*
D03*
X62250D02*
D03*
X62750D02*
D03*
X63250D02*
D03*
X63750D02*
D03*
X64250D02*
D03*
X64750D02*
D03*
X65250D02*
D03*
Y219830D02*
D03*
X64750D02*
D03*
X64250D02*
D03*
X63750D02*
D03*
X63250D02*
D03*
X62750D02*
D03*
X62250Y219823D02*
D03*
X61750Y219830D02*
D03*
X61250D02*
D03*
X60750D02*
D03*
X60250D02*
D03*
X59750D02*
D03*
X59250D02*
D03*
X58750D02*
D03*
X58250D02*
D03*
X57750D02*
D03*
D92*
X67170Y229250D02*
D03*
Y228750D02*
D03*
Y228250D02*
D03*
Y227750D02*
D03*
Y227250D02*
D03*
Y226750D02*
D03*
Y226250D02*
D03*
Y225750D02*
D03*
Y225250D02*
D03*
Y224750D02*
D03*
Y224250D02*
D03*
Y223750D02*
D03*
Y223250D02*
D03*
Y222750D02*
D03*
Y222250D02*
D03*
Y221750D02*
D03*
X55830D02*
D03*
Y222250D02*
D03*
Y222750D02*
D03*
Y223250D02*
D03*
Y223750D02*
D03*
Y224250D02*
D03*
Y224750D02*
D03*
Y225250D02*
D03*
Y225750D02*
D03*
Y226250D02*
D03*
Y226750D02*
D03*
Y227250D02*
D03*
Y227750D02*
D03*
Y228250D02*
D03*
Y228750D02*
D03*
Y229250D02*
D03*
D93*
X59551Y236250D02*
D03*
Y234350D02*
D03*
X62318Y236234D02*
D03*
Y234334D02*
D03*
X83598Y227850D02*
D03*
Y229750D02*
D03*
Y220300D02*
D03*
Y222200D02*
D03*
X64551Y210900D02*
D03*
Y209000D02*
D03*
X51500Y196805D02*
D03*
Y198705D02*
D03*
X93825Y138182D02*
D03*
Y136282D02*
D03*
X97980Y179025D02*
D03*
Y177125D02*
D03*
D94*
X10022Y245225D02*
D03*
Y243225D02*
D03*
X76151Y215323D02*
D03*
Y213323D02*
D03*
X75201Y198675D02*
D03*
Y196675D02*
D03*
X39715Y207135D02*
D03*
Y209135D02*
D03*
X46580Y175884D02*
D03*
Y173884D02*
D03*
X45830Y180925D02*
D03*
Y178925D02*
D03*
X95650Y144210D02*
D03*
Y146210D02*
D03*
X20885Y180950D02*
D03*
Y182950D02*
D03*
X24026Y180950D02*
D03*
Y182950D02*
D03*
X27186Y180950D02*
D03*
Y182950D02*
D03*
X86415Y179880D02*
D03*
Y181880D02*
D03*
X78000Y187121D02*
D03*
Y185121D02*
D03*
X40890Y262460D02*
D03*
Y260460D02*
D03*
X96636Y228950D02*
D03*
Y230950D02*
D03*
X92636Y228950D02*
D03*
Y230950D02*
D03*
X84398Y237256D02*
D03*
Y235256D02*
D03*
D95*
X89661Y223168D02*
D03*
X96661D02*
D03*
X89661Y219168D02*
D03*
X96661D02*
D03*
X79099Y175880D02*
D03*
X72099D02*
D03*
X79099Y179880D02*
D03*
X72099D02*
D03*
D96*
X71626Y209000D02*
D03*
Y202900D02*
D03*
X43750Y196805D02*
D03*
Y202905D02*
D03*
D97*
X78548Y229800D02*
D03*
Y220300D02*
D03*
D98*
X71882Y223250D02*
D03*
X69982D02*
D03*
X71882Y220475D02*
D03*
X69982D02*
D03*
X23526Y194453D02*
D03*
X21626D02*
D03*
X87661Y210837D02*
D03*
X89561D02*
D03*
X100125Y161000D02*
D03*
X102025D02*
D03*
X11920Y153130D02*
D03*
X13820D02*
D03*
X99050Y135100D02*
D03*
X100950D02*
D03*
X58750Y216225D02*
D03*
X56850D02*
D03*
X52757Y224390D02*
D03*
X50857D02*
D03*
X61948Y216223D02*
D03*
X63848D02*
D03*
D99*
X99650Y144235D02*
D03*
X98700Y146185D02*
D03*
X100600D02*
D03*
X86415Y186196D02*
D03*
X85465Y188146D02*
D03*
X87365D02*
D03*
X48680Y178950D02*
D03*
X47730Y180900D02*
D03*
X49630D02*
D03*
D100*
X83436Y186171D02*
D03*
X81486Y185221D02*
D03*
Y187121D02*
D03*
D101*
X99050Y131962D02*
D03*
X98400D02*
D03*
X97750D02*
D03*
X97100D02*
D03*
X96450D02*
D03*
D102*
X46315Y230445D02*
D03*
Y232545D02*
D03*
X34492Y228878D02*
D03*
Y230978D02*
D03*
X27186Y178600D02*
D03*
Y176500D02*
D03*
X20885Y178600D02*
D03*
Y176500D02*
D03*
X24026Y178600D02*
D03*
Y176500D02*
D03*
X38119Y260339D02*
D03*
Y262439D02*
D03*
D103*
X81961Y210837D02*
D03*
Y214417D02*
D03*
X15500Y172920D02*
D03*
Y176500D02*
D03*
X23500Y138920D02*
D03*
Y142500D02*
D03*
D104*
X32990Y207130D02*
D03*
X34260D02*
D03*
X35530D02*
D03*
X36800D02*
D03*
Y201830D02*
D03*
X35530D02*
D03*
X34260D02*
D03*
X81911Y198675D02*
D03*
X80641D02*
D03*
X79371D02*
D03*
X78101D02*
D03*
Y203976D02*
D03*
X79371D02*
D03*
X80641D02*
D03*
D105*
X32990Y201830D02*
D03*
X81911Y203976D02*
D03*
D106*
X34895Y204480D02*
D03*
X80006Y201325D02*
D03*
D107*
X90850Y146410D02*
D03*
X91800D02*
D03*
X92750D02*
D03*
Y144210D02*
D03*
X91800D02*
D03*
X90850D02*
D03*
D108*
X81625Y140230D02*
D03*
Y138960D02*
D03*
Y137690D02*
D03*
Y136420D02*
D03*
X87075Y140230D02*
D03*
Y138960D02*
D03*
Y137690D02*
D03*
Y136420D02*
D03*
D109*
X36360Y137690D02*
D03*
Y145310D02*
D03*
X71640Y137690D02*
D03*
Y145310D02*
D03*
D110*
X21966Y189484D02*
D03*
D111*
Y188984D02*
D03*
Y188484D02*
D03*
Y187984D02*
D03*
Y187484D02*
D03*
X27086D02*
D03*
Y187984D02*
D03*
Y188484D02*
D03*
Y188984D02*
D03*
Y189484D02*
D03*
D112*
X23526Y185924D02*
D03*
X24026D02*
D03*
X24526D02*
D03*
X25026D02*
D03*
X25526D02*
D03*
Y191044D02*
D03*
X25026D02*
D03*
X24526D02*
D03*
X24026D02*
D03*
X23526D02*
D03*
D113*
X24526Y188484D02*
D03*
D114*
X11920Y179500D02*
D03*
X15500D02*
D03*
D115*
X23500Y145310D02*
D03*
Y148410D02*
D03*
D116*
X81325Y145310D02*
D03*
X87275D02*
D03*
D117*
X101230Y190750D02*
D03*
X98880D02*
D03*
D118*
X97330Y188046D02*
D03*
X97980D02*
D03*
X98630D02*
D03*
X99280D02*
D03*
X99930D02*
D03*
X100580D02*
D03*
X101880D02*
D03*
X101230D02*
D03*
X97330Y182146D02*
D03*
X97980D02*
D03*
X98630D02*
D03*
X99280D02*
D03*
X100580D02*
D03*
X99930D02*
D03*
X101880D02*
D03*
X101230D02*
D03*
D119*
X99605Y185096D02*
D03*
D120*
X38925Y243162D02*
D03*
X37511Y244577D02*
D03*
D121*
X30201Y237267D02*
D03*
X35151Y242217D02*
D03*
X33030Y234439D02*
D03*
X37979Y239388D02*
D03*
D127*
X143500Y185000D02*
D03*
X222250Y188040D02*
D03*
Y185500D02*
D03*
Y182960D02*
D03*
Y180420D02*
D03*
Y177880D02*
D03*
X205900Y175750D02*
D03*
Y178290D02*
D03*
X188800Y52165D02*
D03*
X214400Y36400D02*
D03*
X188800Y19940D02*
D03*
Y36448D02*
D03*
X212900Y47340D02*
D03*
Y49880D02*
D03*
Y52420D02*
D03*
Y54960D02*
D03*
Y57500D02*
D03*
X188800Y59465D02*
D03*
Y45065D02*
D03*
D128*
X143500Y174840D02*
D03*
X222250Y175340D02*
D03*
X188800Y49625D02*
D03*
X214400Y38940D02*
D03*
X188800Y17400D02*
D03*
Y33908D02*
D03*
X212900Y60040D02*
D03*
X188800Y56925D02*
D03*
Y42525D02*
D03*
D129*
X161250Y202200D02*
D03*
D130*
Y187000D02*
D03*
X189250Y194600D02*
D03*
Y202200D02*
D03*
D131*
X237290Y213000D02*
D03*
X234750D02*
D03*
X233000Y238000D02*
D03*
X236810Y234190D02*
D03*
X233000Y224000D02*
D03*
X236810Y220190D02*
D03*
X233000Y252000D02*
D03*
X236810Y248190D02*
D03*
X66600Y58000D02*
D03*
X64060D02*
D03*
X56440D02*
D03*
X53900D02*
D03*
X51360D02*
D03*
X46280D02*
D03*
X43740D02*
D03*
X38660D02*
D03*
X33580D02*
D03*
X31040D02*
D03*
X36120D02*
D03*
X41200D02*
D03*
X48820D02*
D03*
X58980D02*
D03*
X61520D02*
D03*
X77000Y71800D02*
D03*
Y74340D02*
D03*
Y79420D02*
D03*
Y81960D02*
D03*
Y76880D02*
D03*
X49325Y221100D02*
D03*
X46785D02*
D03*
X41705D02*
D03*
X39165D02*
D03*
X44245D02*
D03*
X82775Y177340D02*
D03*
D132*
X232210Y213000D02*
D03*
D133*
X229190Y234190D02*
D03*
X236810Y241810D02*
D03*
X229190Y220190D02*
D03*
X236810Y227810D02*
D03*
X229190Y248190D02*
D03*
X236810Y255810D02*
D03*
D134*
X142430Y220110D02*
D03*
Y225190D02*
D03*
Y227730D02*
D03*
Y230270D02*
D03*
Y232810D02*
D03*
Y235350D02*
D03*
Y222650D02*
D03*
X119570D02*
D03*
Y235350D02*
D03*
Y232810D02*
D03*
Y230270D02*
D03*
Y227730D02*
D03*
Y225190D02*
D03*
Y220110D02*
D03*
X100840Y242890D02*
D03*
X98300D02*
D03*
X95760D02*
D03*
X93220D02*
D03*
X90680D02*
D03*
X88140D02*
D03*
X85600D02*
D03*
X100840Y265750D02*
D03*
X98300D02*
D03*
X95760D02*
D03*
X93220D02*
D03*
X90680D02*
D03*
X88140D02*
D03*
X85600D02*
D03*
X83060D02*
D03*
D135*
X142430Y237890D02*
D03*
X119570D02*
D03*
X83060Y242890D02*
D03*
D136*
X221980Y221960D02*
D03*
X151980D02*
D03*
Y261960D02*
D03*
X221980D02*
D03*
X216750Y130750D02*
D03*
X188274Y180750D02*
D03*
X218000Y169466D02*
D03*
X170488Y130616D02*
D03*
X191000Y208500D02*
D03*
X257000Y148500D02*
D03*
X174500Y10500D02*
D03*
X11000Y11000D02*
D03*
X174500Y113125D02*
D03*
X10500Y113500D02*
D03*
D137*
X177380Y221000D02*
D03*
X179920D02*
D03*
X182460D02*
D03*
X185000D02*
D03*
X187540D02*
D03*
X190080D02*
D03*
X192620D02*
D03*
X195160Y220960D02*
D03*
X197700Y221000D02*
D03*
X200240D02*
D03*
X202780D02*
D03*
X205320D02*
D03*
X207860D02*
D03*
X210400D02*
D03*
X212940D02*
D03*
X215480D02*
D03*
D138*
X232750Y180037D02*
D03*
X226250D02*
D03*
X232750Y184537D02*
D03*
X227500Y56700D02*
D03*
Y64300D02*
D03*
X232850Y42350D02*
D03*
X226350D02*
D03*
X232850Y46850D02*
D03*
D139*
X226250Y184537D02*
D03*
X226350Y46850D02*
D03*
D140*
X210700Y194600D02*
D03*
X149500Y188250D02*
D03*
X155500Y202450D02*
D03*
X143500D02*
D03*
X155500Y190250D02*
D03*
X143500D02*
D03*
D141*
X132000Y173000D02*
D03*
D142*
Y180000D02*
D03*
Y187000D02*
D03*
D143*
X124700Y160000D02*
D03*
Y200000D02*
D03*
D144*
X129410Y139850D02*
D03*
X125600D02*
D03*
X276500Y208500D02*
D03*
X273000D02*
D03*
X280000D02*
D03*
X283500D02*
D03*
X141315Y15500D02*
D03*
X144815D02*
D03*
X137815D02*
D03*
X134315D02*
D03*
X154315D02*
D03*
X157815D02*
D03*
X100840Y273000D02*
D03*
X10700Y232775D02*
D03*
Y229275D02*
D03*
Y225775D02*
D03*
X57000Y273075D02*
D03*
X60500D02*
D03*
X53500D02*
D03*
X50000D02*
D03*
X37325Y182500D02*
D03*
X102032Y153130D02*
D03*
X72632Y234949D02*
D03*
D145*
X121790Y139850D02*
D03*
X148315Y15500D02*
D03*
X161315D02*
D03*
X64000Y273075D02*
D03*
D146*
X205900Y173210D02*
D03*
D147*
X238000Y265000D02*
D03*
X121000D02*
D03*
Y131000D02*
D03*
X238000D02*
D03*
X279500Y221000D02*
D03*
X257000D02*
D03*
X279500Y130900D02*
D03*
X257000D02*
D03*
X22000Y57000D02*
D03*
Y17000D02*
D03*
X92000D02*
D03*
Y57000D02*
D03*
X172700Y17000D02*
D03*
Y107000D02*
D03*
X12000D02*
D03*
Y17000D02*
D03*
D149*
X266220Y101460D02*
D03*
X284000D02*
D03*
X281460D02*
D03*
X278920D02*
D03*
X276380D02*
D03*
X273840D02*
D03*
X271300D02*
D03*
X268760D02*
D03*
X284000Y104000D02*
D03*
X281460D02*
D03*
X278920D02*
D03*
X276380D02*
D03*
X273840D02*
D03*
X271300D02*
D03*
X268760D02*
D03*
X266220D02*
D03*
X221220Y104000D02*
D03*
X223760D02*
D03*
X226300D02*
D03*
X228840D02*
D03*
X231380D02*
D03*
X233920D02*
D03*
X236460D02*
D03*
X239000D02*
D03*
X221220Y101460D02*
D03*
X223760D02*
D03*
X226300D02*
D03*
X228840D02*
D03*
X231380D02*
D03*
X233920D02*
D03*
X236460D02*
D03*
X239000D02*
D03*
X284000Y10000D02*
D03*
X281460D02*
D03*
X278920D02*
D03*
X276380D02*
D03*
X273840D02*
D03*
X271300D02*
D03*
X268760D02*
D03*
X266220D02*
D03*
X284000Y12540D02*
D03*
X281460D02*
D03*
X278920D02*
D03*
X276380D02*
D03*
X273840D02*
D03*
X271300D02*
D03*
X268760D02*
D03*
X266220D02*
D03*
X239000Y10000D02*
D03*
X236460D02*
D03*
X233920D02*
D03*
X231380D02*
D03*
X228840D02*
D03*
X226300D02*
D03*
X223760D02*
D03*
X221220D02*
D03*
X239000Y12540D02*
D03*
X236460D02*
D03*
X233920D02*
D03*
X231380D02*
D03*
X228840D02*
D03*
X226300D02*
D03*
X223760D02*
D03*
X221220D02*
D03*
X283040Y70100D02*
D03*
X288120Y57600D02*
D03*
X285580D02*
D03*
X283040D02*
D03*
X280500D02*
D03*
X277960D02*
D03*
X275420D02*
D03*
Y70100D02*
D03*
X277960D02*
D03*
X280500D02*
D03*
X285580D02*
D03*
X288120D02*
D03*
X236600Y63200D02*
D03*
Y60660D02*
D03*
Y58120D02*
D03*
D150*
X301450Y49857D02*
D03*
Y45743D02*
D03*
D152*
X256000Y203500D02*
D03*
X275000Y178540D02*
D03*
D153*
X256000Y208580D02*
D03*
Y206040D02*
D03*
X275000Y173460D02*
D03*
Y176000D02*
D03*
D154*
X269500Y208500D02*
D03*
D155*
X269000Y182000D02*
D03*
Y171840D02*
D03*
D157*
X117500Y87000D02*
D03*
X171200D02*
D03*
X137000D02*
D03*
X158500D02*
D03*
X163850Y89540D02*
D03*
X129500Y69500D02*
D03*
X146015Y54500D02*
D03*
X142080Y89540D02*
D03*
X154780Y97600D02*
D03*
X142080D02*
D03*
X149700Y87000D02*
D03*
X142200Y78000D02*
D03*
X134580Y72040D02*
D03*
X129500Y78000D02*
D03*
X142200Y69500D02*
D03*
X122580Y98015D02*
D03*
X109880Y89540D02*
D03*
X104800Y87000D02*
D03*
X151095Y57040D02*
D03*
X158715Y54500D02*
D03*
X117500Y95475D02*
D03*
X130200D02*
D03*
D158*
X106250Y16400D02*
D03*
X117450D02*
D03*
D159*
X109350Y23900D02*
D03*
X111850D02*
D03*
X109350Y9400D02*
D03*
X114350D02*
D03*
D160*
Y23900D02*
D03*
D161*
X119620Y56711D02*
D03*
Y72371D02*
D03*
X119620Y40310D02*
D03*
D162*
X117080Y56711D02*
D03*
X114540D02*
D03*
X112000D02*
D03*
X109460D02*
D03*
X106920D02*
D03*
X104380D02*
D03*
X119620Y49091D02*
D03*
X117080D02*
D03*
X114540D02*
D03*
X112000D02*
D03*
X109460D02*
D03*
X106920D02*
D03*
X104380D02*
D03*
X117080Y72371D02*
D03*
X114540D02*
D03*
X112000D02*
D03*
X109460D02*
D03*
X106920D02*
D03*
X104380D02*
D03*
X119620Y64751D02*
D03*
X117080D02*
D03*
X114540D02*
D03*
X112000D02*
D03*
X109460D02*
D03*
X106920D02*
D03*
X104380D02*
D03*
X13885Y76000D02*
D03*
X16425D02*
D03*
X104380Y32690D02*
D03*
X106920D02*
D03*
X109460D02*
D03*
X112000D02*
D03*
X114540D02*
D03*
X117080D02*
D03*
X119620D02*
D03*
X104380Y40310D02*
D03*
X106920D02*
D03*
X109460D02*
D03*
X112000D02*
D03*
X114540D02*
D03*
X117080D02*
D03*
X11920Y145310D02*
D03*
X14460D02*
D03*
D163*
X63230Y103790D02*
D03*
X65730D02*
D03*
Y101790D02*
D03*
D164*
X63230D02*
D03*
D165*
X58460Y106500D02*
D03*
X70500D02*
D03*
D166*
X87754Y101847D02*
D03*
D167*
X85214D02*
D03*
D168*
X92834Y106927D02*
D03*
X82674D02*
D03*
D169*
X28500Y58000D02*
D03*
D170*
X77000Y84500D02*
D03*
X82775Y179880D02*
D03*
D171*
X31040Y63500D02*
D03*
X33580Y66040D02*
D03*
D172*
X31040Y68580D02*
D03*
D173*
X11345Y76000D02*
D03*
X17000Y145310D02*
D03*
D174*
X47000Y114500D02*
D03*
Y99000D02*
D03*
X22000Y114500D02*
D03*
X34500Y99000D02*
D03*
Y114500D02*
D03*
X22000Y99000D02*
D03*
D175*
X11652Y198675D02*
D03*
X19272D02*
D03*
X94728Y203755D02*
D03*
X102348D02*
D03*
X26400Y219190D02*
D03*
D176*
X11652Y203755D02*
D03*
X19272D02*
D03*
X94728Y198675D02*
D03*
X102348D02*
D03*
D177*
X98636Y235256D02*
D03*
D178*
X96636D02*
D03*
X94636D02*
D03*
X92636D02*
D03*
D179*
X10700Y236275D02*
D03*
D180*
X10022Y251853D02*
D03*
D181*
X11436Y250439D02*
D03*
X12850Y249025D02*
D03*
X14264Y247611D02*
D03*
X15678Y246197D02*
D03*
X17093Y244782D02*
D03*
X18507Y243368D02*
D03*
X19921Y241954D02*
D03*
X21335Y240540D02*
D03*
X22749Y239126D02*
D03*
X25578Y267410D02*
D03*
X26992Y265996D02*
D03*
X28406Y264581D02*
D03*
X29821Y263167D02*
D03*
X31235Y261753D02*
D03*
X32649Y260339D02*
D03*
X34063Y258924D02*
D03*
X35477Y257510D02*
D03*
X36892Y256096D02*
D03*
X38306Y254682D02*
D03*
D182*
X36625Y221100D02*
D03*
D183*
X100250Y130862D02*
D03*
X95250D02*
D03*
D184*
X93875Y128162D02*
D03*
X101625D02*
D03*
D185*
X94025Y131962D02*
D03*
X101475D02*
D03*
D186*
X26400Y214110D02*
D03*
D187*
X93110Y161000D02*
D03*
X20890D02*
D03*
D188*
X84730Y168870D02*
D03*
X29530Y153130D02*
D03*
D189*
X93110D02*
D03*
D190*
X21250Y132500D02*
D03*
D191*
X15000D02*
D03*
D192*
X18250Y127700D02*
D03*
%TF.MD5,6b83850707f966e1ad9a9f23dddd58dc*%
M02*
