%TF.GenerationSoftware,Altium Limited,Altium Designer,24.7.2 (38)*%
G04 Layer_Color=32768*
%FSLAX43Y43*%
%MOMM*%
%TF.SameCoordinates,F5F67F40-9F63-4A4E-9988-81B998343445*%
%TF.FilePolarity,Positive*%
%TF.FileFunction,Other,Top_Dimensions*%
%TF.Part,CustomerPanel*%
G01*
G75*
%TA.AperFunction,NonConductor*%
%ADD199C,0.254*%
%ADD207C,0.152*%
D199*
X181592Y8524D02*
X182100Y7000D01*
X182608Y8524D01*
X182100Y107000D02*
X182608Y105476D01*
X181592D02*
X182100Y107000D01*
Y7000D02*
Y52125D01*
Y61063D02*
Y107000D01*
X181846Y7000D02*
X186619D01*
X181846Y107000D02*
X186619D01*
X187000Y3500D02*
X188524Y4008D01*
X187000Y3500D02*
X188524Y2992D01*
X305476D02*
X307000Y3500D01*
X305476Y4008D02*
X307000Y3500D01*
X187000D02*
X242125D01*
X251063D02*
X307000D01*
X187000Y3246D02*
Y6619D01*
X307000Y3246D02*
Y6619D01*
X294860Y227600D02*
X295368Y226076D01*
X294352D02*
X294860Y227600D01*
X294352Y127524D02*
X294860Y126000D01*
X295368Y127524D01*
X294860Y180736D02*
Y227600D01*
Y126000D02*
Y172051D01*
X287921Y227600D02*
X295114D01*
X287921Y126000D02*
X295114D01*
X231700Y121000D02*
X233224Y121508D01*
X231700Y121000D02*
X233224Y120492D01*
X285476D02*
X287000Y121000D01*
X285476Y121508D02*
X287000Y121000D01*
X231700D02*
X255109D01*
X262778D02*
X287000D01*
X231700Y120746D02*
Y125746D01*
X287000Y120746D02*
Y125746D01*
X218000Y221000D02*
X218508Y219476D01*
X217492D02*
X218000Y221000D01*
X217492Y132424D02*
X218000Y130900D01*
X218508Y132424D01*
X218000Y179251D02*
Y221000D01*
Y130900D02*
Y171836D01*
X217746Y221000D02*
X279500D01*
X217746Y130900D02*
X279600D01*
X171176Y1492D02*
X172700Y2000D01*
X171176Y2508D02*
X172700Y2000D01*
X12000D02*
X13524Y2508D01*
X12000Y2000D02*
X13524Y1492D01*
X96413Y2000D02*
X172700D01*
X12000D02*
X87475D01*
X172700Y1746D02*
Y13746D01*
X12000Y1746D02*
Y13746D01*
X-2508Y18524D02*
X-2000Y17000D01*
X-1492Y18524D01*
X-2000Y107000D02*
X-1492Y105476D01*
X-2508D02*
X-2000Y107000D01*
Y17000D02*
Y57746D01*
Y65415D02*
Y107000D01*
X-2254Y17000D02*
X12000D01*
X-2254Y107000D02*
X12000D01*
X-6500Y117000D02*
X-5992Y115476D01*
X-7008D02*
X-6500Y117000D01*
X-7008Y8524D02*
X-6500Y7000D01*
X-5992Y8524D01*
X-6500Y65936D02*
Y117000D01*
Y7000D02*
Y57251D01*
X-6754Y117000D02*
X6619D01*
X-6754Y7000D02*
X7000D01*
X29401Y326187D02*
X29760Y325827D01*
X-49830Y246955D02*
X-49471Y246596D01*
X28862Y324570D02*
X29581Y326007D01*
X28144Y325289D02*
X29581Y326007D01*
X-49651Y246776D02*
X-48214Y247494D01*
X-49651Y246776D02*
X-48932Y248213D01*
X-4541Y291886D02*
X29581Y326007D01*
X-49651Y246776D02*
X-15529Y280897D01*
X-21829Y218595D02*
X-21470Y218954D01*
X-49830Y246596D02*
X-49471Y246955D01*
X-23086Y219493D02*
X-21649Y218774D01*
X-22368Y220211D02*
X-21649Y218774D01*
X-49651Y246776D02*
X-48932Y245339D01*
X-49651Y246776D02*
X-48214Y246057D01*
X-31053Y228178D02*
X-21649Y218774D01*
X-49651Y246776D02*
X-40246Y237371D01*
X105476Y282142D02*
X107000Y282650D01*
X105476Y283158D02*
X107000Y282650D01*
X7000D02*
X8524Y283158D01*
X7000Y282650D02*
X8524Y282142D01*
X61063Y282650D02*
X107000D01*
X7000D02*
X52125D01*
X107000Y278404D02*
Y282904D01*
X7000Y278404D02*
Y282904D01*
X113750Y278000D02*
X114258Y276476D01*
X113242D02*
X113750Y278000D01*
X113242Y127524D02*
X113750Y126000D01*
X114258Y127524D01*
X113750Y206063D02*
Y278000D01*
Y126000D02*
Y197125D01*
X107404Y278000D02*
X114004D01*
X107404Y126000D02*
X114004D01*
D207*
X183014Y52531D02*
Y53039D01*
Y52785D01*
X181491D01*
X181745Y52531D01*
Y53801D02*
X181491Y54054D01*
Y54562D01*
X181745Y54816D01*
X182760D01*
X183014Y54562D01*
Y54054D01*
X182760Y53801D01*
X181745D01*
Y55324D02*
X181491Y55578D01*
Y56086D01*
X181745Y56340D01*
X182760D01*
X183014Y56086D01*
Y55578D01*
X182760Y55324D01*
X181745D01*
X183014Y56848D02*
X182760D01*
Y57101D01*
X183014D01*
Y56848D01*
X181745Y58117D02*
X181491Y58371D01*
Y58879D01*
X181745Y59133D01*
X182760D01*
X183014Y58879D01*
Y58371D01*
X182760Y58117D01*
X181745D01*
Y59641D02*
X181491Y59895D01*
Y60402D01*
X181745Y60656D01*
X182760D01*
X183014Y60402D01*
Y59895D01*
X182760Y59641D01*
X181745D01*
X242531Y2586D02*
X243039D01*
X242785D01*
Y4109D01*
X242531Y3855D01*
X244816Y2586D02*
X243801D01*
X244816Y3602D01*
Y3855D01*
X244562Y4109D01*
X244054D01*
X243801Y3855D01*
X245324D02*
X245578Y4109D01*
X246086D01*
X246340Y3855D01*
Y2840D01*
X246086Y2586D01*
X245578D01*
X245324Y2840D01*
Y3855D01*
X246848Y2586D02*
Y2840D01*
X247101D01*
Y2586D01*
X246848D01*
X248117Y3855D02*
X248371Y4109D01*
X248879D01*
X249133Y3855D01*
Y2840D01*
X248879Y2586D01*
X248371D01*
X248117Y2840D01*
Y3855D01*
X249641D02*
X249895Y4109D01*
X250402D01*
X250656Y3855D01*
Y2840D01*
X250402Y2586D01*
X249895D01*
X249641Y2840D01*
Y3855D01*
X295774Y172458D02*
Y172966D01*
Y172712D01*
X294251D01*
X294505Y172458D01*
Y173727D02*
X294251Y173981D01*
Y174489D01*
X294505Y174743D01*
X295520D01*
X295774Y174489D01*
Y173981D01*
X295520Y173727D01*
X294505D01*
X295774Y175251D02*
Y175759D01*
Y175505D01*
X294251D01*
X294505Y175251D01*
X295774Y176521D02*
X295520D01*
Y176774D01*
X295774D01*
Y176521D01*
X294251Y178806D02*
X294505Y178298D01*
X295012Y177790D01*
X295520D01*
X295774Y178044D01*
Y178552D01*
X295520Y178806D01*
X295266D01*
X295012Y178552D01*
Y177790D01*
X294505Y179314D02*
X294251Y179568D01*
Y180075D01*
X294505Y180329D01*
X295520D01*
X295774Y180075D01*
Y179568D01*
X295520Y179314D01*
X294505D01*
X256531Y121609D02*
X255516D01*
Y120848D01*
X256024Y121102D01*
X256277D01*
X256531Y120848D01*
Y120340D01*
X256277Y120086D01*
X255770D01*
X255516Y120340D01*
X258055Y121609D02*
X257039D01*
Y120848D01*
X257547Y121102D01*
X257801D01*
X258055Y120848D01*
Y120340D01*
X257801Y120086D01*
X257293D01*
X257039Y120340D01*
X258563Y120086D02*
Y120340D01*
X258817D01*
Y120086D01*
X258563D01*
X259832Y121355D02*
X260086Y121609D01*
X260594D01*
X260848Y121355D01*
Y121102D01*
X260594Y120848D01*
X260340D01*
X260594D01*
X260848Y120594D01*
Y120340D01*
X260594Y120086D01*
X260086D01*
X259832Y120340D01*
X261356Y121355D02*
X261610Y121609D01*
X262118D01*
X262371Y121355D01*
Y120340D01*
X262118Y120086D01*
X261610D01*
X261356Y120340D01*
Y121355D01*
X218660Y172243D02*
X218914Y172497D01*
Y173004D01*
X218660Y173258D01*
X217645D01*
X217391Y173004D01*
Y172497D01*
X217645Y172243D01*
X217898D01*
X218152Y172497D01*
Y173258D01*
X217645Y173766D02*
X217391Y174020D01*
Y174528D01*
X217645Y174782D01*
X218660D01*
X218914Y174528D01*
Y174020D01*
X218660Y173766D01*
X217645D01*
X218914Y175290D02*
X218660D01*
Y175544D01*
X218914D01*
Y175290D01*
Y176559D02*
Y177067D01*
Y176813D01*
X217391D01*
X217645Y176559D01*
Y177829D02*
X217391Y178083D01*
Y178591D01*
X217645Y178845D01*
X218660D01*
X218914Y178591D01*
Y178083D01*
X218660Y177829D01*
X217645D01*
X87881Y1086D02*
X88389D01*
X88135D01*
Y2609D01*
X87881Y2355D01*
X90166Y2609D02*
X89658Y2355D01*
X89150Y1848D01*
Y1340D01*
X89404Y1086D01*
X89912D01*
X90166Y1340D01*
Y1594D01*
X89912Y1848D01*
X89150D01*
X90674Y2355D02*
X90928Y2609D01*
X91436D01*
X91690Y2355D01*
Y1340D01*
X91436Y1086D01*
X90928D01*
X90674Y1340D01*
Y2355D01*
X92198Y1086D02*
Y1340D01*
X92451D01*
Y1086D01*
X92198D01*
X93467Y2609D02*
X94483D01*
Y2355D01*
X93467Y1340D01*
Y1086D01*
X94991Y2355D02*
X95245Y2609D01*
X95752D01*
X96006Y2355D01*
Y1340D01*
X95752Y1086D01*
X95245D01*
X94991Y1340D01*
Y2355D01*
X-1906Y58152D02*
X-1652Y58406D01*
Y58914D01*
X-1906Y59168D01*
X-2922D01*
X-3176Y58914D01*
Y58406D01*
X-2922Y58152D01*
X-2668D01*
X-2414Y58406D01*
Y59168D01*
X-2922Y59676D02*
X-3176Y59930D01*
Y60438D01*
X-2922Y60692D01*
X-1906D01*
X-1652Y60438D01*
Y59930D01*
X-1906Y59676D01*
X-2922D01*
X-1652Y61199D02*
X-1906D01*
Y61453D01*
X-1652D01*
Y61199D01*
X-2922Y62469D02*
X-3176Y62723D01*
Y63231D01*
X-2922Y63485D01*
X-1906D01*
X-1652Y63231D01*
Y62723D01*
X-1906Y62469D01*
X-2922D01*
Y63993D02*
X-3176Y64246D01*
Y64754D01*
X-2922Y65008D01*
X-1906D01*
X-1652Y64754D01*
Y64246D01*
X-1906Y63993D01*
X-2922D01*
X-5586Y57658D02*
Y58166D01*
Y57912D01*
X-7109D01*
X-6855Y57658D01*
X-5586Y58927D02*
Y59435D01*
Y59181D01*
X-7109D01*
X-6855Y58927D01*
Y60197D02*
X-7109Y60451D01*
Y60959D01*
X-6855Y61213D01*
X-5840D01*
X-5586Y60959D01*
Y60451D01*
X-5840Y60197D01*
X-6855D01*
X-5586Y61721D02*
X-5840D01*
Y61974D01*
X-5586D01*
Y61721D01*
X-6855Y62990D02*
X-7109Y63244D01*
Y63752D01*
X-6855Y64006D01*
X-5840D01*
X-5586Y63752D01*
Y63244D01*
X-5840Y62990D01*
X-6855D01*
Y64514D02*
X-7109Y64768D01*
Y65275D01*
X-6855Y65529D01*
X-5840D01*
X-5586Y65275D01*
Y64768D01*
X-5840Y64514D01*
X-6855D01*
X-14703Y280430D02*
X-14344Y280789D01*
X-14524Y280610D01*
X-15601Y281687D01*
Y281328D01*
X-13806D02*
X-13446Y281687D01*
X-13626Y281508D01*
X-14703Y282585D01*
Y282226D01*
X-12190Y282944D02*
X-12908Y282226D01*
Y283662D01*
X-13087Y283842D01*
X-13446D01*
X-13806Y283483D01*
Y283124D01*
X-11831Y283303D02*
X-12010Y283483D01*
X-11831Y283662D01*
X-11651Y283483D01*
X-11831Y283303D01*
Y285099D02*
Y285458D01*
X-11471Y285817D01*
X-11112D01*
X-10394Y285099D01*
Y284739D01*
X-10753Y284380D01*
X-11112D01*
X-11831Y285099D01*
X-10215Y287074D02*
X-10933Y286355D01*
X-10394Y285817D01*
X-10215Y286355D01*
X-10035Y286535D01*
X-9676D01*
X-9317Y286176D01*
Y285817D01*
X-9676Y285458D01*
X-10035D01*
X-7342Y287792D02*
X-8060D01*
X-8419Y288151D01*
Y288869D01*
X-6803Y288330D02*
X-7521Y289049D01*
X-7342Y289228D01*
X-6983D01*
X-6444Y288689D01*
X-6983Y289228D01*
Y289587D01*
X-6624D01*
X-6085Y289049D01*
X-5726Y289408D02*
X-6444Y290126D01*
X-6265Y290305D01*
X-5905D01*
X-5367Y289767D01*
X-5905Y290305D01*
Y290665D01*
X-5546D01*
X-5008Y290126D01*
X-4649Y290485D02*
Y291203D01*
X-5008Y291562D01*
X-5726D01*
X-39816Y237443D02*
X-39456D01*
X-39097Y237084D01*
Y236725D01*
X-39277Y236545D01*
X-39636D01*
X-39816Y236725D01*
X-39636Y236545D01*
Y236186D01*
X-39816Y236007D01*
X-40175D01*
X-40534Y236366D01*
Y236725D01*
X-39456Y235648D02*
Y235289D01*
X-39097Y234930D01*
X-38738D01*
X-38020Y235648D01*
Y236007D01*
X-38379Y236366D01*
X-38738D01*
X-38918Y236186D01*
Y235827D01*
X-38379Y235289D01*
X-38559Y234391D02*
X-38379Y234570D01*
X-38200Y234391D01*
X-38379Y234211D01*
X-38559Y234391D01*
X-35866Y233852D02*
X-36404Y234032D01*
X-37122D01*
X-37481Y233673D01*
Y233314D01*
X-37122Y232955D01*
X-36763D01*
X-36584Y233134D01*
Y233493D01*
X-37122Y234032D01*
X-35147Y230980D02*
Y231698D01*
X-34788Y232057D01*
X-34070D01*
X-34609Y230441D02*
X-33891Y231159D01*
X-33711Y230980D01*
X-33711Y230620D01*
X-34250Y230082D01*
X-33711Y230620D01*
X-33352D01*
Y230261D01*
X-33891Y229723D01*
X-33531Y229364D02*
X-32813Y230082D01*
X-32634Y229902D01*
X-32634Y229543D01*
X-33172Y229005D01*
X-32634Y229543D01*
X-32275D01*
Y229184D01*
X-32813Y228645D01*
X-32454Y228286D02*
X-31736D01*
X-31377Y228645D01*
Y229364D01*
X52531Y281736D02*
X53039D01*
X52785D01*
Y283259D01*
X52531Y283005D01*
X53801D02*
X54054Y283259D01*
X54562D01*
X54816Y283005D01*
Y281990D01*
X54562Y281736D01*
X54054D01*
X53801Y281990D01*
Y283005D01*
X55324D02*
X55578Y283259D01*
X56086D01*
X56340Y283005D01*
Y281990D01*
X56086Y281736D01*
X55578D01*
X55324Y281990D01*
Y283005D01*
X56848Y281736D02*
Y281990D01*
X57101D01*
Y281736D01*
X56848D01*
X58117Y283005D02*
X58371Y283259D01*
X58879D01*
X59133Y283005D01*
Y281990D01*
X58879Y281736D01*
X58371D01*
X58117Y281990D01*
Y283005D01*
X59641D02*
X59895Y283259D01*
X60402D01*
X60656Y283005D01*
Y281990D01*
X60402Y281736D01*
X59895D01*
X59641Y281990D01*
Y283005D01*
X114664Y197531D02*
Y198039D01*
Y197785D01*
X113141D01*
X113395Y197531D01*
X113141Y199816D02*
Y198801D01*
X113902D01*
X113648Y199308D01*
Y199562D01*
X113902Y199816D01*
X114410D01*
X114664Y199562D01*
Y199054D01*
X114410Y198801D01*
X114664Y201340D02*
Y200324D01*
X113648Y201340D01*
X113395D01*
X113141Y201086D01*
Y200578D01*
X113395Y200324D01*
X114664Y201848D02*
X114410D01*
Y202101D01*
X114664D01*
Y201848D01*
X113395Y203117D02*
X113141Y203371D01*
Y203879D01*
X113395Y204133D01*
X114410D01*
X114664Y203879D01*
Y203371D01*
X114410Y203117D01*
X113395D01*
Y204641D02*
X113141Y204895D01*
Y205402D01*
X113395Y205656D01*
X114410D01*
X114664Y205402D01*
Y204895D01*
X114410Y204641D01*
X113395D01*
%TF.MD5,330e2ae8bd3c5c846be58301e1549031*%
M02*
