%TF.GenerationSoftware,Altium Limited,Altium Designer,24.7.2 (38)*%
G04 Layer_Color=32896*
%FSLAX43Y43*%
%MOMM*%
%TF.SameCoordinates,F5F67F40-9F63-4A4E-9988-81B998343445*%
%TF.FilePolarity,Positive*%
%TF.FileFunction,Legend,Bot*%
%TF.Part,CustomerPanel*%
G01*
G75*
%TA.AperFunction,NonConductor*%
%ADD199C,0.254*%
%ADD203C,0.200*%
G36*
X142309Y166114D02*
X142346Y166244D01*
X142383Y166392D01*
X142457Y166558D01*
X142550Y166707D01*
X142679Y166873D01*
X142698Y166892D01*
X142735Y166929D01*
X142827Y167021D01*
X142846Y167040D01*
X142883Y167058D01*
X142994Y167132D01*
X152678Y172724D01*
X152697Y172743D01*
X152752Y172762D01*
X152863Y172799D01*
X152993Y172854D01*
X153141Y172891D01*
X153326Y172910D01*
X153512D01*
X153715Y172891D01*
X153734D01*
X153771Y172873D01*
X153845Y172854D01*
X153919Y172836D01*
X153937D01*
X153974Y172817D01*
X154030Y172780D01*
X154123Y172743D01*
Y172724D01*
X154141Y172706D01*
X154197Y172669D01*
X154289Y172613D01*
X154382Y172521D01*
X154493Y172410D01*
X154604Y172280D01*
X154697Y172113D01*
X154771Y171928D01*
Y171910D01*
X154789Y171854D01*
X154808Y171780D01*
Y171706D01*
X154826Y171688D01*
Y171613D01*
X154845Y171521D01*
X154845Y160244D01*
X154826Y160133D01*
X154789Y160004D01*
X154752Y159837D01*
X154678Y159670D01*
X154586Y159504D01*
X154456Y159337D01*
X154437Y159318D01*
X154400Y159281D01*
X154308Y159189D01*
X154289Y159170D01*
X154252Y159152D01*
X154123Y159078D01*
X154104Y159059D01*
X154049Y159041D01*
X153956Y159004D01*
X153826Y158948D01*
X153678Y158911D01*
X153512Y158893D01*
X153326D01*
X153123Y158911D01*
X153104D01*
X153049Y158930D01*
X152975Y158948D01*
X152919Y158967D01*
X152901D01*
X152863Y158985D01*
X152808Y159022D01*
X152734Y159059D01*
X152715D01*
X152697D01*
Y159078D01*
X143031Y164651D01*
X143013D01*
X142976Y164688D01*
X142865Y164762D01*
X142698Y164910D01*
X142550Y165077D01*
X142531Y165114D01*
X142494Y165188D01*
X142476Y165207D01*
X142457Y165244D01*
X142420Y165318D01*
X142383Y165392D01*
X142346Y165503D01*
X142328Y165633D01*
X142291Y165762D01*
Y166003D01*
X142309Y166114D01*
D02*
G37*
%LPC*%
G36*
X143235Y165910D02*
Y165873D01*
X143253Y165781D01*
X143272Y165651D01*
X143346Y165503D01*
X143364D01*
X143383Y165484D01*
Y165447D01*
X143402Y165429D01*
X143457Y165373D01*
X143531Y165299D01*
X143642Y165225D01*
X152826Y159911D01*
X152845D01*
X152863D01*
X152882Y159892D01*
X152956Y159874D01*
X152975D01*
X152993Y159855D01*
X153067Y159837D01*
X153086D01*
X153123D01*
X153160Y159818D01*
X153234D01*
X153419Y159837D01*
X153512Y159874D01*
X153604Y159911D01*
X153641Y159930D01*
X153697Y159985D01*
X153715Y160004D01*
X153789Y160059D01*
Y160078D01*
X153826Y160096D01*
X153882Y160207D01*
X153956Y160374D01*
X153974Y160485D01*
X153993Y160596D01*
X153993Y171225D01*
X153974D01*
Y171373D01*
X153956Y171428D01*
X153937Y171465D01*
X153956Y171447D01*
Y171465D01*
X153937Y171502D01*
X153882Y171613D01*
X153771Y171743D01*
X153604Y171891D01*
X153567Y171910D01*
X153493Y171947D01*
X153363Y171965D01*
X153215Y171984D01*
X153197D01*
X153141D01*
X153104D01*
X153030Y171965D01*
X152938Y171928D01*
X152826Y171873D01*
X152808D01*
X143624Y166558D01*
X143605D01*
X143587Y166540D01*
X143531Y166503D01*
X143513Y166484D01*
X143457Y166429D01*
X143439Y166410D01*
X143420Y166392D01*
X143346Y166281D01*
X143290Y166114D01*
X143253Y166021D01*
Y165910D01*
X143235D01*
D02*
G37*
%LPD*%
G36*
X149549Y164374D02*
X147753Y167855D01*
X152160Y165725D01*
X151975Y166503D01*
X153456Y165225D01*
X151678Y164948D01*
X152123Y165522D01*
X148956Y166355D01*
X150271Y163670D01*
X144327Y165392D01*
X144290Y166651D01*
X149549Y164374D01*
D02*
G37*
D199*
X158584Y195609D02*
X157568D01*
X157314Y195862D01*
Y196370D01*
X157568Y196624D01*
X158584D01*
X158838Y196370D01*
Y195862D01*
X158330Y196116D02*
X158838Y195609D01*
Y195862D02*
X158584Y195609D01*
X158838Y195101D02*
Y194593D01*
Y194847D01*
X157314D01*
X157568Y195101D01*
X168750Y195998D02*
X167750D01*
Y195498D01*
X167917Y195331D01*
X168250D01*
X168417Y195498D01*
Y195998D01*
Y195664D02*
X168750Y195331D01*
X167917Y194998D02*
X167750Y194831D01*
Y194498D01*
X167917Y194332D01*
X168083D01*
X168250Y194498D01*
Y194665D01*
Y194498D01*
X168417Y194332D01*
X168583D01*
X168750Y194498D01*
Y194831D01*
X168583Y194998D01*
X168750Y193066D02*
X167750D01*
Y192567D01*
X167917Y192400D01*
X168250D01*
X168417Y192567D01*
Y193066D01*
Y192733D02*
X168750Y192400D01*
Y192067D02*
Y191734D01*
Y191900D01*
X167750D01*
X167917Y192067D01*
X210567Y225466D02*
X210400Y225633D01*
Y225966D01*
X210567Y226133D01*
X211233D01*
X211400Y225966D01*
Y225633D01*
X211233Y225466D01*
X211400Y224633D02*
X210400D01*
X210900Y225133D01*
Y224467D01*
X211400Y223467D02*
Y224134D01*
X210733Y223467D01*
X210567D01*
X210400Y223634D01*
Y223967D01*
X210567Y224134D01*
X168750Y198333D02*
X167750D01*
Y197833D01*
X167917Y197667D01*
X168250D01*
X168417Y197833D01*
Y198333D01*
Y198000D02*
X168750Y197667D01*
Y196834D02*
X167750D01*
X168250Y197333D01*
Y196667D01*
X167978Y190067D02*
X167812Y190233D01*
Y190566D01*
X167978Y190733D01*
X168645D01*
X168811Y190566D01*
Y190233D01*
X168645Y190067D01*
Y189733D02*
X168811Y189567D01*
Y189234D01*
X168645Y189067D01*
X167978D01*
X167812Y189234D01*
Y189567D01*
X167978Y189733D01*
X168145D01*
X168311Y189567D01*
Y189067D01*
X26531Y273818D02*
Y275342D01*
X26024Y274834D01*
X25516Y275342D01*
Y273818D01*
X25008D02*
Y275342D01*
X24246D01*
X23992Y275088D01*
Y274580D01*
X24246Y274326D01*
X25008D01*
X22469Y275342D02*
X23484D01*
Y274580D01*
X22977Y274834D01*
X22723D01*
X22469Y274580D01*
Y274072D01*
X22723Y273818D01*
X23230D01*
X23484Y274072D01*
X52412Y176141D02*
Y177665D01*
X51905Y177157D01*
X51397Y177665D01*
Y176141D01*
X50889D02*
Y177665D01*
X50127D01*
X49873Y177411D01*
Y176903D01*
X50127Y176649D01*
X50889D01*
X48604Y176141D02*
Y177665D01*
X49365Y176903D01*
X48350D01*
X31625Y135461D02*
Y136984D01*
X31117Y136477D01*
X30609Y136984D01*
Y135461D01*
X30101D02*
Y136984D01*
X29340D01*
X29086Y136731D01*
Y136223D01*
X29340Y135969D01*
X30101D01*
X28578Y136731D02*
X28324Y136984D01*
X27816D01*
X27562Y136731D01*
Y136477D01*
X27816Y136223D01*
X28070D01*
X27816D01*
X27562Y135969D01*
Y135715D01*
X27816Y135461D01*
X28324D01*
X28578Y135715D01*
X80444Y135461D02*
Y136984D01*
X79936Y136477D01*
X79428Y136984D01*
Y135461D01*
X78920D02*
Y136984D01*
X78158D01*
X77904Y136731D01*
Y136223D01*
X78158Y135969D01*
X78920D01*
X76381Y135461D02*
X77397D01*
X76381Y136477D01*
Y136731D01*
X76635Y136984D01*
X77143D01*
X77397Y136731D01*
X91027Y273238D02*
Y274762D01*
X90520Y274254D01*
X90012Y274762D01*
Y273238D01*
X89504D02*
Y274762D01*
X88742D01*
X88488Y274508D01*
Y274000D01*
X88742Y273746D01*
X89504D01*
X87980Y273238D02*
X87473D01*
X87726D01*
Y274762D01*
X87980Y274508D01*
D203*
X211840Y222875D02*
Y226875D01*
X214040D02*
X211840D01*
X214040Y222875D02*
X211840D01*
X214040D02*
Y226875D01*
X167300Y188800D02*
X163300D01*
Y191000D01*
X167300Y188800D02*
Y191000D01*
X163300D01*
X167150Y191375D02*
X163350D01*
X167150D02*
Y193375D01*
X163350D01*
Y191375D02*
Y193375D01*
X167150Y198500D02*
X163350D01*
Y196500D02*
Y198500D01*
X167150Y196500D02*
X163350D01*
X167150D02*
Y198500D01*
Y196165D02*
X163350D01*
Y194165D02*
Y196165D01*
X167150Y194165D02*
X163350D01*
X167150D02*
Y196165D01*
X162700Y196177D02*
Y196650D01*
X160609D02*
X159800D01*
X162700D02*
X161891D01*
X159800Y196177D02*
Y196650D01*
%TF.MD5,3d4b921201bbd8deb5847a13e60978d0*%
M02*
