M48
;Layer_Color=9474304
;FILE_FORMAT=4:3
METRIC,LZ
;TYPE=PLATED
T01F00S00C0.300
T02F00S00C0.350
T03F00S00C0.400
T05F00S00C0.711
T06F00S00C0.714
T08F00S00C0.762
T09F00S00C0.800
T11F00S00C0.889
T12F00S00C0.890
T13F00S00C0.900
T14F00S00C0.920
T15F00S00C1.000
T17F00S00C1.016
T18F00S00C1.100
T19F00S00C1.200
T20F00S00C1.300
T21F00S00C1.320
T22F00S00C1.400
T23F00S00C1.448
T24F00S00C1.600
T25F00S00C1.800
T26F00S00C1.950
T27F00S00C2.000
T29F00S00C2.090
T30F00S00C2.300
T31F00S00C3.200
T32F00S00C3.400
T33F00S00C3.800
;TYPE=NON_PLATED
T34F00S00C0.700
T35F00S00C0.800
T36F00S00C2.390
T37F00S00C3.200
T38F00S00C3.400
T39F00S00C3.550
T40F00S00C4.400
%
T01
X0016425Y00245
X0028
X0037576Y00235
X0049Y0022
X00625Y00235
X0073Y0027
X00804
X008275Y00245
X00965Y0027
X00945Y00115
X0131Y00135
X0129Y00195
X0134625Y0022
X0141315Y00195
X0148315Y0027
X0161315
X01725Y0022
Y0029
Y00365
Y0044
X01675Y0051401
X016385Y00505
X0155015Y0049091
Y005704
X015584Y006013
X0155594Y006108
X01725Y006703
X0164262Y0029
X0152315Y00355
X0143Y00295
Y0044
X0138515Y00476
X0134515Y0051401
Y00545
Y00575
X013458Y0058793
X0124
X0123
X011708
X01105Y0059
Y00625
Y00465
Y00425
X011708Y00385
X011962Y0037475
X01225Y00385
X0129Y00365
X0129Y00345
X01265Y00295
X0131Y00415
X0125Y00545
X0124Y0053536
X011708Y00476
X011Y00305
X0107Y0029
X0099Y00305
X0087754Y0031
X00826
X007614Y0029
X007419Y003269
X00695Y00355
X00735Y0044
X0089
X0086Y0048
X0099Y00465
X00965Y00425
X0089Y00355
X00965Y0059
X0101Y006013
X0099Y00625
X009192Y006706
X0086
X008435Y00625
X010438Y00545
X010438Y0051401
X0107Y00505
X010692Y0053536
X00625Y0048
X0058Y004031
X0054Y00415
X0052103Y005045
X00425
X0039905Y00465
X0038938Y00355
X004215
X0047Y00375
X0052103Y0028025
X0036306Y002965
X0033766Y002965
X003612Y006249
X003866Y00635
X00538
X00555Y006249
X00665Y003269
X00181Y002965
X0016425Y00355
X0011345Y00425
X00095Y00635
X0016425
X00181Y006759
X00265
X00234Y00806
X00231Y0090502
X0015475Y0087751
X0032313Y0075799
X0034884Y0076606
X0037415Y0078229
X0042Y00798
X00412Y00814
X0046Y0082273
X0045Y0084101
X0043Y008615
X00488Y0089
X005Y00905
X0054235Y0089
X0057285Y0091826
X0059548Y00905
X0060989Y00885
X0061899Y0087761
X00627Y0087762
X0063501
X0064692Y0087762
X0066026Y0086546
X00611Y008615
X0061149Y00825
X0061751Y0081934
X0063041Y0081811
X00627Y0082535
X0062971Y0080602
X006296Y0079801
X006297Y00774
X0062971Y0076599
X006297Y0075798
X00645Y00733
X0066026Y0068598
X0062971
X0057135Y0078227
X00559Y00798
Y00814
X0052Y0082273
X0053127Y0084
X00505Y0075
X0045
X0067Y00814
X006323Y009974
X0072175
Y009625
X00695
X00705Y00935
X00695Y0090476
X0077Y00905
Y00895
X0079334Y00905
X0079Y00935
X00826Y0091826
X008435Y00905
X00815Y0087762
X00804Y0086546
X00725Y00845
X0073558Y0083
X00745Y00822
X00715Y00814
X00725Y00798
X00705Y00774
X00745Y007688
X0073558Y007434
X00735Y00733
X0069488Y0068586
X0088692Y007
X009192Y0078011
X009397Y00767
X009597Y0075861
X00965Y0074686
X009797Y0072371
X010438Y00685
X010692Y0075861
X0101Y00885
X01005Y0089501
X0097Y00905
X0086644Y0080613
X0110011Y0074686
X011454Y007
X011708Y0078011
X011962Y00767
X0125Y0078
X0123Y008954
X01175Y008954
X0138515Y0073587
X01422Y007204
X01725Y0073675
X01675Y0087
X018885Y0135066
X0188519Y0139631
X018685Y0142492
X02004
X020125Y01405
X0202199Y0137981
X020125Y0136711
X0199Y0135698
X0198Y0134116
X0201271Y0133
X020275Y013025
X0196Y0137616
X01975Y0139251
X020525Y014625
X01835Y0144636
Y0140826
X01845Y0135746
X01705Y0135771
X0170488Y0140826
X0171Y0143366
X0163431Y0135771
X0158Y013675
Y013225
X009905Y01351
X009895Y013799
X0098587Y0141721
X0097525Y014621
X0093825Y0138182
X009383Y0136282
X0088855Y013896
X0089807Y014017
X0079625Y013896
Y013769
X0081625Y01347
X0041975Y013625
X00235Y014841
X001887Y01765
X001192Y01795
X0014001Y01835
Y0186519
X004773Y01825
X004893Y017588
X004823Y0173884
X00593Y0185526
X0039385Y0149015
X01006Y01479
X0102025Y0161
X009798Y0177125
Y0179025
X010123Y018083
X009204Y0184821
X0078Y0185121
X0170959Y0176006
X01702Y0174736
X0170959Y0173466
X0170505Y0167116
X01705Y0155961
Y0153421
X0163431Y0154691
X0159496Y0153134
X0183796Y0152151
X0185072Y0151642
X0183841Y0147071
X0183624Y0156
X018349Y0159275
Y0172196
X0183395Y0176006
X0189Y0172
X01895Y017125
X0189Y016925
X01985Y01575
X019719Y0153576
X0194559Y0152151
X0202199Y0153576
X020125Y0154846
X020225Y014975
X0203Y01605
X0204
X02155Y015525
Y0152619
X0219108Y015425
X0221065
X0226Y0176292
X02059Y018625
X023325Y01755
X0235Y0166
X024025Y016375
Y016825
X02385Y0191175
X0237825Y0192445
X0234575Y0191175
X0228809Y01935
X02305Y0196262
X022975Y020525
X022675Y0206
X023221Y0207
X0240995Y0213
X0226Y0212843
X022425Y0213
X0224Y020925
X0222152Y0211
X02245Y0206
X0219105Y02065
X02165Y02075
X02132Y020995
X02104Y0209925
X0211Y021125
X02104Y02075
X02025Y020825
X0192731Y0211108
X0208368Y0192356
X02175Y0199017
X02235Y0194881
X0224Y019
X016925Y0192375
X016825Y019375
X0157444Y0192375
X014925Y0223961
X017992Y021325
X0102662Y0219598
Y0225517
X0089661Y0223168
X0083598Y0224878
X0071882Y022325
Y0220475
X0071626Y02029
X0069038Y0198675
X0071626Y0194925
X0075201Y0196675
X0081371Y0194925
X0083475Y0188171
X009204
X0089561Y0210837
X0094728
X0064551Y02109
X0061576
X0062652Y020713
X0063848Y0216223
X0063751Y0218201
X006025
X0060339Y022325
X006255Y02238
X00632Y022265
X0062652Y0221565
X0063986
X006718Y0220184
X0064848Y022575
X0060339Y0226203
X005775Y02257
X0057068Y022425
Y022225
X005583Y0221075
X0054625Y0216225
X0050857Y022439
X00515Y0198705
X004375Y0202905
X0039715Y0209135
X003353Y0210855
X0032511Y0188484
X00585Y0189475
X006025Y0187125
X0024526Y019275
X0021626Y0194453
X001887Y0189364
X0014003
X0014004Y01925
X0019272Y0210855
X0034492Y0230978
X0030201Y0237267
X0046315Y0232545
X005583Y0230978
X0059225Y0227275
X0058525Y0226525
X0065542Y022625
X0065768Y022725
X0065875Y0233009
X0064551Y0233893
X0059551Y023625
X0052791Y0243722
X0049305Y024495
X0054567Y0257687
X0057421Y026272
X0069032Y022825
X014925Y022975
X0241Y022675
Y024075
Y025475
T02
X0098605Y0184096
Y0185096
Y0186096
X0099605
Y0185096
Y0184096
X0100605
Y0185096
Y0186096
X0025415Y0187595
Y0189373
X0023637
Y0187595
X0024526Y0188484
T03
X01947Y00255
X0198849Y0023675
X02024Y0022067
X02006Y0020103
X0220747Y0020213
X0220599Y00216
X0220489Y0023825
X022134Y0024475
X0222133Y0025125
X0223112Y002585
X0223949Y002651
X0224845Y0027214
X0225108Y0017518
X0235051Y0017842
X0234443Y00186
X0235885Y0017238
X023646Y00164
X0237373Y00157
X0238149Y0014912
X0239Y0014206
X02398Y00209
X0240449Y00223
X02421Y0022139
X0241Y0019925
X0239Y0023896
X0238087Y0024475
X0237191Y0025139
X023646Y0025849
X0235576Y0026481
X0234837Y0027214
X0248Y0024254
X02515
X0255
X02585
X0262
X02655
X0269
X02725
X0276
X02795
X0283
X02865
X029
X02935
X0297
X03005
X029792Y001912
X029442
X029092
X028742
X028392
X028042
X0276941Y00191
X0270289Y00266
X027916Y0029
X02765Y0042545
Y0043815
X02675
Y0045085
X0266375Y0061736
X02819Y0052501
X02833Y0052
X02848Y0052
X0286311Y00556
X02965Y00614
Y00643
X03005Y00375
X02545Y00395
X0250488Y0041512
X0251Y00428
X0251515Y0043815
X0251Y00455
X02533Y004585
X0256Y0047478
X0255178Y0050067
X0253801Y004992
X0253506Y0053483
X0253345Y0054655
X0251985Y0053795
X0251553Y0055851
X02489
X0247413Y005545
X0247458Y0056773
X0248Y0054353
X0247623Y005348
X02476Y004962
X02473Y00486
X0245562Y0051071
X02438Y00528
X0244095Y0054378
X0243Y00547
X02416
Y005278
X0239363Y0052884
X0239852Y0050932
X0237275Y0053827
X0239013Y0055978
X02403Y005824
X0248104Y0059876
X02492Y0059349
X0250163Y0060012
X0251Y0061221
X0253489Y0060991
X02545Y0060012
X0255765Y00576
X0254Y0056761
X0254948Y00532
X02613Y0052113
X02614Y0057843
X026141Y00597
X02599Y0056687
X02584Y00621
X02575Y00637
X0256246Y0064051
X0250176Y0065535
X0248516Y0064051
X02467Y0066099
X0231193Y0058649
X02297Y0052796
X0237275Y0047884
X0241025Y0045575
X0247Y00365
X0234388Y00283
X0225455Y0028213
X0217288Y0028801
X02176Y003894
X02029Y003905
X01994Y00362
Y00334
X0199712Y003
X02008Y00448
X01947Y0045945
Y0053045
Y0060345
X0213879Y00671
X02225Y005855
X0225258Y00887
X02257Y0093246
X02222
X02187
X02152
X02117
X02082
X02047
X02143Y00984
X02178
X02225Y00974
X022376
X02024Y00782
X0228Y0075255
Y0073985
X0237Y0074
X0236985Y0072715
X02416Y0072403
X0242033Y0073913
X0243701Y0074
X02457Y0068899
X02393Y00698
X0250771Y00715
X0252663Y0069488
X0256717Y0069539
X0256581Y00715
X0257Y00874
X025499Y00864
X02537Y0093246
X02572
X0261776Y0091892
X026431Y0091646
X0264988Y0092575
X0263648Y0093748
X0263903Y0090312
X02658Y009
X02653Y00988
X02502Y0093246
X02467
X02432
X02397
X02362
X02327
X02292
X02272Y00974
X0234011Y00906
X02665Y0089297
X02673Y0088675
X02681Y0087997
X02689Y00874
X02696Y0086725
X02705Y0086075
X027819Y0085949
X0279633Y0087392
X0281279Y0087121
X0281978Y0087819
X028169Y0089449
X0282363Y0090121
X0283993Y0089834
X0282897Y0092575
X028254Y0096
X02829Y0097967
X02853Y009529
X0278Y00971
X02752Y0097534
X0270566Y0094033
X0269628Y0093875
X02689Y0094759
X02681Y0095575
X02673Y00965
X02665Y00975
X02863Y01044
X02996Y0094656
T05
X0009Y0009
X0016
Y0023
X0023
X00265Y0016
X0009Y0023
X003
X00405Y0016
X0037Y0009
X00545Y0016
X00615
X00685
X00755
X00825
X0086Y0009
X0093
X01
X0107
X01035Y0016
X00965
X01105
X01245
X0128Y0009
X0121
X01525Y0016
X01665
X017Y0009
X01665Y003
X017Y0051
X01735Y0058
X017Y0065
X0156
X0149
X0142
X01455Y0058
X01385Y0044
X01315
X01245
X0128Y0037
X0121
X01105Y0044
X01455Y003
X01035Y0044
X0093Y0051
Y0065
X00755Y0058
X00685
Y0044
Y003
X00895
X0065Y0051
X0058
X00545Y0044
X00405
X0044Y0037
X0037
X003
Y0051
X003359Y0050926
X003612
X0046266Y00535
X0054204Y006126
X0051Y0065
X003866Y006594
X003612Y0065278
X003Y0065
X00405Y003
X0023Y0037
X00265Y0044
X00195
X00125
X0009Y0051
X0023
X00265Y0058
X0023Y0065
X0009Y0037
X00125Y003
X0009757Y0070498
X0009Y0079
X00195Y0086
X00265
X0023Y0093
X00265Y01
X0016Y0107
X00195Y0072
X003359Y00715
X0036175Y0073916
X003866
X0045757Y0068598
X0059Y0079
X0058Y0093
X0065
X0062303Y0097924
X00645Y0107
X0044Y0107
X0037
X003
Y0093
X0037
X0044
X0051
X00405Y01
X00335Y0086
X003Y0079
X0072Y0102
X0079Y0107
X0086
X00825Y01
X0086Y0093
X0093
X00965Y0086
X00895
X0107Y0093
X01035Y01
X0107Y0107
X0114
X0121
X0128
X0135
X0142
X01455Y01
X01385
X01315
X01245
X01175
X01105
X0114Y0093
X0121
X0128
X0135
Y0079
X01315Y0072
X01455
X0121Y0079
X01245Y0086
X01105
X01525
X0156Y0093
X0163
X017
X01735Y01
X01665
X01595
X01525
X0156Y0107
X0163
X0149
Y0093
Y0079
X0156
X0163
X017
X01735Y0086
X01525Y0072
X0267Y0128
X0274
X02775Y0135
X02845
X0281Y0142
X0274
X0267
X02705Y0135
X02635
X02565
X026Y0142
X0253
Y0128
X026
X0072Y0112
X0067
X0062
X0057
X02635Y0149
Y0163
Y0177
X02705
X0274Y017
X0281
X02845Y0177
Y0163
X02775
X02705
X0274Y0156
X0281
X02845Y0149
X02775
X02705
X0267Y0156
Y017
Y0184
X02705Y0191
X02775
X02845
Y0205
X02775
X0281Y0212
X02845Y0219
X02705
X0267Y0198
X02635Y0205
Y0219
X0253Y0212
X02635Y0191
T06
X003104Y00635
X003358Y006604
X003104Y006858
T08
X022122Y001
X022376
Y001254
X022122
X02263
Y001
X022884
X023138
X023392
X023646
X0239
Y001254
X023646
X023392
X023138
X022884
X026622
Y001
X026876
X02713
X027384
X027638
X027892
X028146
X0284
Y001254
X028146
X027892
X027638
X027384
X02713
X026876
X027542Y00576
X027796
X02805
X028304
X028558
X028812
X02366Y005812
Y006066
Y00632
X022376Y010146
Y0104
X022122
Y010146
X02263
Y0104
X022884
X023138
X023392
X023646
X0239
Y010146
X023646
X023392
X023138
X022884
X026622Y010146
X026876
X02713
X027384
X027638
X027892
X028146
X0284
Y0104
X028146
X027892
X027638
X027384
X02713
X026876
X026622
X027542Y00701
X027796
X02805
X028304
X028558
X028812
T09
X02275Y00567
Y00643
X0275Y017346
Y0176
Y017854
X0256Y02035
Y020604
Y020858
X023729Y0213
X023475
X023221
X0098636Y0235256
X0096636
X0094636
X0092636
T11
X006924Y013769
Y014531
X003876
Y013769
X011957Y022011
Y022265
Y022519
X014243
Y022265
Y022011
X010084Y024289
X00983
X009576
X009322
X009068
X008814
X00856
X008306
Y026575
X00856
X008814
X009068
X009322
X009576
X00983
X010084
X011957Y023789
Y023535
Y023281
Y023027
Y022773
X014243
Y023027
Y023281
Y023535
Y023789
T12
X0085214Y0101847
X0087754
T13
X010946Y003269
X0112
X011454
X011708
X011962
Y004031
X011708
X011454
X0112
X010946
X010946Y0049091
X0112
X011454
X011708
X011962
Y0056711
X011708
X011454
X0112
X010946
Y0064751
X0112
X011454
X011708
X011962
X010692
X010438
Y0056711
X010692
Y0049091
X010438
X010438Y004031
X010692
Y003269
X010438
X010438Y0072371
X010692
X010946
X0112
X011454
X011708
X011962
X018925Y01946
Y02022
X016125
Y0187
T14
X006323Y010179
Y010379
X006573
Y010179
T15
X010935Y00094
X011435
Y00239
X011185
X010935
X01888Y001994
Y00174
X022635Y004235
Y004685
X023285
Y004235
X02144Y003894
Y00364
X02129Y004734
Y004988
Y005242
Y005496
Y00575
Y006004
X01888Y0059465
Y0056925
Y0052165
Y0049625
Y0045065
Y0042525
Y0036448
Y0033908
X0016425Y0076
X0013885
X0011345
X001192Y014531
X001446
X0017
X01435Y017484
Y0185
X022225Y01855
Y018296
Y018042
Y017788
Y017534
X022625Y0180037
Y0184537
X023275
Y0180037
X0233Y0224
X023681Y022019
X022225Y018804
X02107Y01946
X0022749Y0239126
X0021335Y024054
X0019921Y0241954
X0018507Y0243368
X0017093Y0244782
X0015678Y0246197
X0014264Y0247611
X001285Y0249025
X0011436Y0250439
X0010022Y0251853
X0028406Y0264581
X0029821Y0263167
X0031235Y0261753
X0032649Y0260339
X0034063Y0258924
X0035477Y025751
X0036892Y0256096
X0038306Y0254682
X0233Y0252
X023681Y024819
X0233Y0238
X023681Y023419
X0026992Y0265996
X0025578Y026741
T17
X018754Y0221
X019008
X019262
X019516Y022096
X01977Y0221
X020024
X020278
X020532
X020786
X02104
X021294
X021548
X0185
X018246
X017992
X017738
T18
X00285Y0058
X003104
X003358
X003612
X003866
X00412
X004374
X004628
X004882
X005136
X00539
X005644
X005898
X006152
X006406
X00666
X0077Y00718
Y007434
Y007688
Y007942
Y008196
Y00845
X0082775Y017734
Y017988
X0049325Y02211
X0046785
X0044245
X0041705
X0039165
X0036625
T19
X02059Y017321
Y017575
Y017829
X0081006Y0201325
X0079006
X0035895Y020448
X0033895
T20
X022919Y022019
X01555Y020245
Y019025
X01495Y018825
X01435Y019025
Y020245
X022919Y023419
X023681Y022781
Y024181
X022919Y024819
X023681Y025581
T21
X002089Y0161
X006375
X0064575Y018138
X0079325Y0157325
X009311Y0161
X0064551Y0196805
X004583Y0188399
T22
X0134315Y00155
X0137815
X0141315
X0144815
X0148315
X0154315
X0157815
X0161315
X012941Y013985
X01256
X012179
X02695Y02085
X0273
X02765
X028
X02835
X00107Y0225775
Y0229275
Y0232775
Y0236275
X005Y0273075
X00535
X0057
X00605
X0064
T23
X0151095Y005704
X0158715Y00545
X0146015
X01048Y0087
X010988Y008954
X01175Y0087
Y0095475
X012258Y0098015
X01302Y0095475
X014208Y00976
Y008954
X0137Y0087
X01422Y0078
Y00695
X013458Y007204
X01295Y00695
Y0078
X01497Y0087
X01585
X016385Y008954
X01712Y0087
X015478Y00976
T24
X0011Y0011
X01745Y00105
X021675Y013075
X0170488Y0130616
X01745Y0113125
X00105Y01135
X0037325Y01825
X0102032Y015313
X0188274Y018075
X0218Y0169466
X0257Y01485
X0191Y02085
X0102348Y0203755
Y0198675
X0094728
Y0203755
X0019272
Y0198675
X0011652
Y0203755
X00264Y021411
Y021919
X0072632Y0234949
X010084Y0273
T25
X0132Y0173
Y018
Y0187
T26
X0022Y0099
X00345
X0047
Y01145
X00345
X0022
T27
X0082674Y0106927
X0092834
T29
X0269Y017184
Y0182
T30
X005846Y01065
X00705
T31
X0238Y0131
X0121
Y0265
X0238
T32
X0012Y0017
X0022
X0092
X01727
X0092Y0057
X0022
X0012Y0107
X01727
X02795Y01309
X0257
X02795Y0221
X0257
T33
X01247Y016
Y02
T34
X030145Y0045743
Y0049857
T35
X009525Y0130862
X010025
T36
X009311Y015313
T37
X022198Y022196
X015198
Y026196
X022198
T38
X0191Y0011
X0303
X0191Y0103
X0303
T39
X002953Y015313
X008473Y016887
T40
X0077Y0131
X0031
X0056821Y01785
X008275Y0273
X0031Y0272
M30
