%TF.GenerationSoftware,Altium Limited,Altium Designer,19.1.6 (110)*%
G04 Layer_Color=255*
%FSLAX43Y43*%
%MOMM*%
%TF.FileFunction,Pads,Bot*%
%TF.Part,Single*%
G01*
G75*
%TA.AperFunction,WasherPad*%
%ADD12C,1.524*%
%TA.AperFunction,ComponentPad*%
%ADD13R,1.750X1.750*%
%ADD14C,1.750*%
%ADD15R,1.750X1.750*%
D12*
X-7500Y85000D02*
D03*
X15000Y107500D02*
D03*
X107500Y15000D02*
D03*
X85000Y-7500D02*
D03*
D13*
X-6750Y58800D02*
D03*
D14*
X-9290Y56260D02*
D03*
Y53720D02*
D03*
Y51180D02*
D03*
Y48640D02*
D03*
Y46100D02*
D03*
Y43560D02*
D03*
Y41020D02*
D03*
X-6750Y43560D02*
D03*
Y53720D02*
D03*
X-9290Y58800D02*
D03*
X-6750Y41020D02*
D03*
Y46100D02*
D03*
Y48640D02*
D03*
Y51180D02*
D03*
Y56260D02*
D03*
X56440Y106500D02*
D03*
X51360D02*
D03*
X48820D02*
D03*
X46280D02*
D03*
X41200D02*
D03*
X58980Y109040D02*
D03*
X53900Y106500D02*
D03*
X43740D02*
D03*
X41200Y109040D02*
D03*
X43740D02*
D03*
X46280D02*
D03*
X48820D02*
D03*
X51360D02*
D03*
X53900D02*
D03*
X56440D02*
D03*
D15*
X58980Y106500D02*
D03*
%TF.MD5,b115a617600f06898d25b299af39ae1b*%
M02*
